<svg xmlns="http://www.w3.org/2000/svg" viewBox="0 0 26.79 18.75"><defs><style>.cls-1{fill:#fff;}.cls-2{fill:#00c6f0;}</style></defs><g id="Capa_2" data-name="Capa 2"><g id="Capa_1-2" data-name="Capa 1"><path class="cls-1" d="M24.11,18.75H2.68A2.68,2.68,0,0,1,0,16.07V2.68A2.68,2.68,0,0,1,2.68,0H24.11a2.69,2.69,0,0,1,2.68,2.68V16.07A2.69,2.69,0,0,1,24.11,18.75ZM2.68,1.79a.89.89,0,0,0-.89.89V16.07a.89.89,0,0,0,.89.89H24.11a.89.89,0,0,0,.89-.89V2.68a.89.89,0,0,0-.89-.89Z"/><path class="cls-1" d="M3.57,16.07A.89.89,0,0,1,3,14.47L10.23,9a.89.89,0,1,1,1.08,1.42l-7.2,5.47A.9.9,0,0,1,3.57,16.07Z"/><path class="cls-1" d="M23.21,16.07a.94.94,0,0,1-.54-.18l-7.19-5.47A.89.89,0,0,1,16.56,9l7.2,5.47a.89.89,0,0,1,.16,1.25A.88.88,0,0,1,23.21,16.07Z"/><path class="cls-2" d="M13.39,12.51a.89.89,0,0,1-.56-.2L3,4.26A.88.88,0,0,1,2.88,3a.89.89,0,0,1,1.26-.13l9.25,7.59,9.26-7.59A.89.89,0,0,1,23.9,3a.88.88,0,0,1-.12,1.25L14,12.31A.94.94,0,0,1,13.39,12.51Z"/></g></g></svg>