<svg xmlns="http://www.w3.org/2000/svg" viewBox="0 0 24.08 30.22"><defs><style>.cls-1{fill:#fff;}.cls-2{fill:#00c6f0;}</style></defs><g id="Capa_2" data-name="Capa 2"><g id="Capa_1-2" data-name="Capa 1"><path class="cls-1" d="M12,30.22a1.94,1.94,0,0,1-1.51-.71l-7.45-9a12.66,12.66,0,0,1-1.73-14A11.74,11.74,0,0,1,10.71.07a13.14,13.14,0,0,1,2.66,0,11.74,11.74,0,0,1,9.35,6.41h0a12.67,12.67,0,0,1-1.75,14l-7.43,9a1.72,1.72,0,0,1-.27.27A1.92,1.92,0,0,1,12,30.22Zm0-28.5a11.12,11.12,0,0,0-1.16.06,10.06,10.06,0,0,0-8,5.48A10.93,10.93,0,0,0,4.4,19.34l7.46,9.07a.24.24,0,0,0,.33,0l7.48-9.09a11,11,0,0,0,1.51-12.1,10.06,10.06,0,0,0-8-5.48A11.27,11.27,0,0,0,12,1.72Z"/><path class="cls-2" d="M12,6.31a5.25,5.25,0,0,0,0,10.5h0a5.25,5.25,0,0,0,0-10.5Zm0,8.77a3.52,3.52,0,1,1,3.52-3.52A3.53,3.53,0,0,1,12,15.08Z"/></g></g></svg>