<svg xmlns="http://www.w3.org/2000/svg" viewBox="0 0 25.64 25.64"><defs><style>.cls-1{fill:#fff;}.cls-2{fill:#00c6f0;}</style></defs><g id="Capa_2" data-name="Capa 2"><g id="Capa_1-2" data-name="Capa 1"><path class="cls-1" d="M18.8,25.64c-2.84,0-6.53-2.36-11.48-7.32C1.8,12.81-.5,8.86.09,5.91.73,2.7,4.37.24,4.52.14a.83.83,0,0,1,1.05.1L11.4,6.07a.83.83,0,0,1,0,1.17L8.78,9.86a17.85,17.85,0,0,0,3.2,3.8,17.85,17.85,0,0,0,3.8,3.2l2.62-2.62a.83.83,0,0,1,1.17,0l5.83,5.83a.83.83,0,0,1,.1,1.05c-.1.15-2.56,3.79-5.77,4.43A4.73,4.73,0,0,1,18.8,25.64ZM4.9,1.91C4,2.65,2.09,4.34,1.71,6.24c-.46,2.29,1.82,6,6.77,10.92s8.63,7.23,10.92,6.77c1.9-.38,3.59-2.25,4.33-3.19L19,16l-2.33,2.34c-.39.38-1,.36-1.79-.09a21.91,21.91,0,0,1-4-3.41A21.64,21.64,0,0,1,7.4,10.78C7,10,6.93,9.38,7.32,9L9.65,6.66ZM16,17h0Z"/><path class="cls-2" d="M4.69,9.41A.82.82,0,0,1,4,9a3.83,3.83,0,0,1-.63-2.41,4.09,4.09,0,0,1,.9-1.7.82.82,0,1,1,1.28,1,2.77,2.77,0,0,0-.57,1h0a3.73,3.73,0,0,0,.48,1.33.82.82,0,0,1-.35,1.11A.85.85,0,0,1,4.69,9.41Z"/></g></g></svg>