<svg xmlns="http://www.w3.org/2000/svg" viewBox="0 0 530.25 530.25"><defs><style>.cls-1{fill:#fff;}</style></defs><g id="Capa_2" data-name="Capa 2"><g id="Capa_1-2" data-name="Capa 1"><path class="cls-1" d="M458.94,98.22C472.17,62.68,485.41,26,498.64,0h-2.28c-12.9,26.06-25.82,61.89-38.73,96.52C458.07,97.06,458.5,97.64,458.94,98.22Z"/><path class="cls-1" d="M445.76,79.08c10-26.84,20-54.85,30-79.08h-2.28c-9.7,23.86-19.37,51-29.06,77Z"/><path class="cls-1" d="M432.59,56.17C439.38,37.74,446.16,18.56,453,0h-2.28c-6.46,17.81-12.94,36.12-19.41,53.73C431.7,54.56,432.15,55.39,432.59,56.17Z"/><path class="cls-1" d="M419.42,30.45C423,20.51,426.56,10.31,430.12,0h-2.3c-3.25,9.36-6.48,18.64-9.73,27.71C418.52,28.63,419,29.54,419.42,30.45Z"/><path class="cls-1" d="M406.24,3c.35-1,.68-2,1-3H405c0,.08,0,.13-.06.21C405.35,1.16,405.81,2.07,406.24,3Z"/><path class="cls-1" d="M452.35,89.23C464,58.08,475.61,25.68,487.23,0h-2.3C473.64,25.48,462.33,57,451,87.24Z"/><path class="cls-1" d="M439.18,68.06C447.58,45.4,456,21.83,464.38,0h-2.3C454,21.25,445.93,44,437.85,65.74,438.29,66.53,438.74,67.32,439.18,68.06Z"/><path class="cls-1" d="M426,43.62c5.18-14.21,10.36-29,15.54-43.62h-2.28c-4.87,13.84-9.72,27.67-14.58,41C425.11,41.88,425.57,42.75,426,43.62Z"/><path class="cls-1" d="M412.83,16.78Q415.76,8.51,418.69,0h-2.28Q414,7.14,411.5,14C411.94,15,412.39,15.91,412.83,16.78Z"/><path class="cls-1" d="M524.84,112.8c1.81-5.55,3.61-11,5.41-16.36V93.79c-2.24,6.54-4.49,13.3-6.73,20.21C524,113.59,524.41,113.17,524.84,112.8Z"/><path class="cls-1" d="M511.65,121.79c6.19-18.47,12.41-36.25,18.6-52V67.11c-6.63,16.57-13.28,35.46-19.91,55.22C510.78,122.17,511.21,122,511.65,121.79Z"/><path class="cls-1" d="M498.48,124.69C509.06,94.12,519.67,65,530.25,43.12V40.43c-11,22.16-22.06,52.49-33.08,84.22C497.61,124.65,498,124.69,498.48,124.69Z"/><path class="cls-1" d="M485.3,121.54c15-41.92,30-82.35,44.95-105.09v-2.7C514.82,36.25,499.41,77.84,484,120.88,484.41,121.09,484.87,121.34,485.3,121.54Z"/><path class="cls-1" d="M472.13,112.55C488.58,67.65,505,22.83,521.49,0h-2.3c-16.14,23.41-32.25,67.44-48.39,111.35C471.24,111.77,471.7,112.14,472.13,112.55Z"/><path class="cls-1" d="M518.24,118.06c4-12.14,8-23.9,12-34.92V80.45c-4.43,12-8.88,25.06-13.32,38.48Z"/><path class="cls-1" d="M505.06,124c8.39-24.61,16.8-48.18,25.19-67.53V53.77c-8.82,20-17.67,44.66-26.49,70.47Z"/><path class="cls-1" d="M491.89,123.86c12.78-36.29,25.58-71.08,38.36-94.07v-2.7c-13.24,23.08-26.45,59-39.69,96.44C491,123.66,491.45,123.74,491.89,123.86Z"/><path class="cls-1" d="M478.72,117.77c17.17-47.47,34.36-93.7,51.53-114.66V.41C512.62,20.8,495,68.23,477.39,116.82,477.83,117.15,478.28,117.44,478.72,117.77Z"/><path class="cls-1" d="M465.54,106c14.83-40.1,29.68-80.95,44.52-106h-2.28c-14.52,25.35-29,65.41-43.56,104.56C464.65,105.06,465.11,105.51,465.54,106Z"/><path class="cls-1" d="M530.25,107.42v-.29c0,.16-.1.33-.14.45Z"/><path class="cls-1" d="M254.73,16.07A123.34,123.34,0,0,0,270.22,0h-2.28a120.5,120.5,0,0,1-14.52,14.87C253.86,15.24,254.29,15.66,254.73,16.07Z"/><path class="cls-1" d="M241.55,5.14c1.95-1.58,3.9-3.32,5.85-5.14h-2.28q-2.44,2.24-4.87,4.23C240.68,4.52,241.12,4.85,241.55,5.14Z"/><path class="cls-1" d="M248.14,10.23A116,116,0,0,0,258.81,0h-2.3a108.45,108.45,0,0,1-9.67,9.15C247.27,9.49,247.71,9.86,248.14,10.23Z"/><path class="cls-1" d="M235,.83c.33-.29.66-.54,1-.83h-2.28V0C234.1.29,234.53.54,235,.83Z"/><path class="cls-1" d="M320.64,117C341.91,97.31,363.16,59.32,384.43,0h-2.28c-20.94,58-41.9,95-62.84,114.29C319.75,115.16,320.2,116,320.64,117Z"/><path class="cls-1" d="M307.46,91.43C325.5,74.9,343.54,45.94,361.59,0h-2.28c-17.73,44.66-35.44,72.83-53.17,89C306.57,89.85,307,90.64,307.46,91.43Z"/><path class="cls-1" d="M294.29,68.23c14.83-13.47,29.64-35,44.47-68.23h-2.3c-14.5,32-29,52.82-43.5,66Z"/><path class="cls-1" d="M281.09,47.64c11.6-10.4,23.22-25.52,34.82-47.64h-2.28c-11.28,21.08-22.55,35.67-33.84,45.78C280.22,46.44,280.66,47,281.09,47.64Z"/><path class="cls-1" d="M267.92,30.24c8.39-7.37,16.76-17.15,25.15-30.24h-2.28c-8.06,12.34-16.13,21.62-24.2,28.71C267,29.21,267.48,29.74,267.92,30.24Z"/><path class="cls-1" d="M314.05,103.94C333.71,85.88,353.36,52.61,373,0h-2.3c-19.33,51.29-38.67,83.64-58,101.41C313.16,102.24,313.61,103.07,314.05,103.94Z"/><path class="cls-1" d="M300.87,79.54c16.43-15,32.88-40.1,49.3-79.54h-2.28c-16.11,38.19-32.23,62.51-48.34,77.22C300,78,300.44,78.75,300.87,79.54Z"/><path class="cls-1" d="M287.68,57.58C300.9,45.65,314.13,27.46,327.35,0h-2.3c-12.89,26.3-25.79,43.87-38.67,55.51C286.81,56.21,287.25,56.88,287.68,57.58Z"/><path class="cls-1" d="M274.51,38.57c10-8.91,20-21.25,30-38.57H302.2c-9.67,16.45-19.32,28.25-29,36.87C273.64,37.41,274.07,38,274.51,38.57Z"/><path class="cls-1" d="M261.31,22.78A130.23,130.23,0,0,0,281.65,0h-2.27A130.3,130.3,0,0,1,260,21.38C260.44,21.83,260.88,22.29,261.31,22.78Z"/><path class="cls-1" d="M458.44,99.55c.16-.42.33-.92.5-1.33-.44-.58-.87-1.16-1.31-1.7-.16.46-.33.87-.5,1.33-24,65.74-47.95,121.17-71.93,149.55l1.32,2.4C410.49,221.13,434.47,165.37,458.44,99.55Z"/><path class="cls-1" d="M445.27,80.49c.16-.46.33-.91.49-1.41L444.46,77c-.17.45-.35.91-.52,1.32C420,144,396,196.57,372,222.71c.44.86.88,1.73,1.31,2.56C397.31,198.93,421.28,146.15,445.27,80.49Z"/><path class="cls-1" d="M430.77,55.1c-24,66.4-47.95,116.69-71.92,141.18.44.86.87,1.73,1.31,2.65,24-24.57,47.95-75.11,71.93-141.39l.5-1.37c-.44-.78-.89-1.61-1.33-2.44Z"/><path class="cls-1" d="M417.59,29.16c-24,67.86-47.95,116.41-71.93,139.53.43.95.89,1.86,1.32,2.77,24-23.24,47.95-72,71.94-139.64l.5-1.37c-.44-.91-.9-1.82-1.33-2.74C417.92,28.17,417.76,28.67,417.59,29.16Z"/><path class="cls-1" d="M404.42,1.62c-24,70-47.95,117.19-71.94,139.52l1.33,2.73c24-22.41,47.95-69.76,71.91-139.48.17-.5.36-.95.52-1.41-.43-.91-.89-1.82-1.32-2.77C404.75.7,404.59,1.2,404.42,1.62Z"/><path class="cls-1" d="M451.85,90.56c.17-.42.33-.87.5-1.33l-1.31-2c-.16.46-.35,1-.51,1.41-24,65.58-47.95,119.47-71.92,146.69.44.83.89,1.66,1.33,2.44C403.9,210.36,427.89,156.18,451.85,90.56Z"/><path class="cls-1" d="M438.68,69.39c.16-.46.33-.87.5-1.33-.44-.74-.89-1.53-1.33-2.32-.17.5-.33.91-.5,1.37-24,66-48,117.32-71.91,142.55l1.3,2.61C390.73,186.87,414.69,135.26,438.68,69.39Z"/><path class="cls-1" d="M424.18,42.38c-24,67-47.95,116.4-71.94,140.14l1.33,2.78c24-23.82,47.95-73.45,71.93-140.31.17-.5.34-1,.5-1.37-.43-.87-.89-1.74-1.32-2.61C424.51,41.51,424.34,41.92,424.18,42.38Z"/><path class="cls-1" d="M411,15.45c-24,68.85-47.95,116.74-71.94,139.44.43.91.89,1.82,1.33,2.73,24-22.74,48-70.71,71.91-139.35.17-.46.35-1,.52-1.49-.44-.87-.89-1.82-1.33-2.74C411.34,14.54,411.17,15,411,15.45Z"/><path class="cls-1" d="M327.22,130.28C350.11,109.07,373,65.87,395.87,0h-2.3C371,64.54,348.45,106.71,325.9,127.59,326.33,128.46,326.79,129.37,327.22,130.28Z"/><path class="cls-1" d="M524.33,114.33c.16-.49.35-1,.51-1.53-.43.37-.89.79-1.32,1.2-.17.5-.33,1-.5,1.49-24,75.48-47.95,157.69-71.93,206,.43.15.89.31,1.32.44C476.38,273,500.36,190,524.33,114.33Z"/><path class="cls-1" d="M511.15,123.28c.17-.49.33-1,.5-1.49-.44.21-.87.38-1.31.54-.16.5-.35,1-.51,1.49-24,73-47.95,147.93-71.92,191,.44.27.89.55,1.33.84C463.2,272.15,487.19,196.61,511.15,123.28Z"/><path class="cls-1" d="M498,126.14c.16-.5.33-1,.5-1.45-.44,0-.87,0-1.31,0-.16.46-.35.95-.52,1.45-24,70.51-47.95,139.15-71.91,177.61.43.46.87.89,1.3,1.31C450,266.1,474,196.9,498,126.14Z"/><path class="cls-1" d="M484.81,123c.16-.5.33-1,.49-1.41-.43-.2-.89-.45-1.32-.66l-.5,1.45c-24,68.27-48,131.61-71.94,166.14.44.58.89,1.14,1.33,1.68C436.86,255.27,460.82,191.43,484.81,123Z"/><path class="cls-1" d="M471.61,113.92c.17-.5.35-1,.52-1.37-.43-.41-.89-.78-1.33-1.2-.16.46-.33.87-.49,1.33-24,66.69-47.95,125.68-71.94,156.88.44.7.89,1.36,1.33,2.05C423.66,240.1,447.65,180.7,471.61,113.92Z"/><path class="cls-1" d="M517.74,119.6c.17-.5.33-1,.5-1.54l-1.31.87c-.16.5-.33,1-.5,1.49-24,74.32-47.95,152.7-71.93,198.29l1.32.66C469.79,273.27,493.78,194.12,517.74,119.6Z"/><path class="cls-1" d="M504.57,125.44c.16-.46.33-1,.49-1.45l-1.3.25c-.17.49-.35,1-.52,1.49-24,71.75-47.95,143.37-71.92,184.07.44.35.88.73,1.31,1.08C456.62,269.74,480.58,197.48,504.57,125.44Z"/><path class="cls-1" d="M491.39,125.27c.17-.45.33-.91.5-1.41-.44-.12-.89-.2-1.33-.33l-.49,1.41c-24,69.35-47.95,135.21-71.92,171.63.44.51.87,1,1.31,1.53C443.44,261.27,467.41,194.87,491.39,125.27Z"/><path class="cls-1" d="M478.22,119.14l.5-1.37c-.44-.33-.89-.62-1.33-1-.16.46-.33.87-.5,1.37-24,67.36-47.95,128.46-71.93,161.27.43.62.89,1.24,1.32,1.86C430.27,248.18,454.23,186.71,478.22,119.14Z"/><path class="cls-1" d="M465,107.38c.16-.5.35-.92.51-1.37-.43-.5-.89-1-1.32-1.45-.17.45-.33.91-.5,1.32-24,66.16-48,123.29-71.94,153,.44.74.9,1.47,1.33,2.2C417.08,231.07,441.06,173.57,465,107.38Z"/><path class="cls-1" d="M518.3,277.16c4-15,8-30.92,12-47.33v-2.65c-4.43,18.19-8.84,35.71-13.28,52.26C517.41,278.69,517.86,277.93,518.3,277.16Z"/><path class="cls-1" d="M505.12,297c8.37-28.21,16.76-60.25,25.13-93.85V200.5c-8.82,35.25-17.63,68.85-26.45,98.2C504.23,298.16,504.69,297.56,505.12,297Z"/><path class="cls-1" d="M491.93,311.21c12.78-38.15,25.54-85.56,38.32-134.74v-2.65C517,224.4,503.84,273.35,490.63,312.31Z"/><path class="cls-1" d="M478.76,319.91c17.17-45.2,34.32-107.73,51.49-170.11v-2.66c-17.61,63.55-35.19,127.53-52.8,173.29C477.89,320.26,478.32,320.1,478.76,319.91Z"/><path class="cls-1" d="M465.58,323.35c21.57-49.82,43.11-127.7,64.67-200.23v-2.65c-22,73.36-44,152.84-66,203C464.69,323.43,465.15,323.39,465.58,323.35Z"/><path class="cls-1" d="M511.71,287.83c6.17-22.06,12.37-46.19,18.54-71.34v-2.65c-6.63,26.89-13.24,52.55-19.86,75.93Z"/><path class="cls-1" d="M498.54,304.79c10.56-33.55,21.15-73.38,31.71-115v-2.65c-11,43.17-22,84.51-33,119Z"/><path class="cls-1" d="M485.34,316.22c15-42,29.93-97,44.91-153.09v-2.65C514.84,217.9,499.45,274.36,484,317.05,484.47,316.78,484.91,316.51,485.34,316.22Z"/><path class="cls-1" d="M472.17,322.23c19.37-47.78,38.71-117.88,58.08-185.77v-2.65c-19.8,68.89-39.58,140.51-59.38,188.75C471.3,322.46,471.74,322.35,472.17,322.23Z"/><path class="cls-1" d="M529.61,109.11c-24,76.52-47.95,162.79-71.94,214,.44.08.89.12,1.33.16C482.75,271.9,506.49,186,530.25,109.78v-2.36l-.14.16C529.94,108.12,529.77,108.62,529.61,109.11Z"/><path class="cls-1" d="M530.25,254v-.2c0,.12-.06.24-.08.37A.54.54,0,0,0,530.25,254Z"/><path class="cls-1" d="M524.89,265c1.78-7.12,3.58-14.43,5.36-21.85v-2.65c-2.24,9.24-4.45,18.27-6.69,27.07C524,266.76,524.45,265.87,524.89,265Z"/><path class="cls-1" d="M116.43,9.82C129.62,6.17,142.82,3.69,156,0h-2.28C140.86,3.48,128,6,115.1,9.53A12.65,12.65,0,0,1,116.43,9.82Z"/><path class="cls-1" d="M103.23,7.21c10-2.9,20-4.93,30-7.21h-2.3c-9.65,2.15-19.3,4.14-28.95,7Z"/><path class="cls-1" d="M90.06,5c6.76-2,13.51-3.6,20.28-5h-2.28c-6.44,1.37-12.88,2.86-19.33,4.81C89.18,4.89,89.61,4.93,90.06,5Z"/><path class="cls-1" d="M76.89,2.9C80.42,1.78,84,.83,87.49,0H85.21C82,.79,78.78,1.62,75.56,2.65Z"/><path class="cls-1" d="M64.64,0H62.41c.43.13.87.21,1.3.33C64,.21,64.33.13,64.64,0Z"/><path class="cls-1" d="M109.82,8.41C121.41,5.14,133,2.86,144.6,0h-2.28c-11.27,2.73-22.54,5-33.81,8.16Z"/><path class="cls-1" d="M96.65,6.09C105,3.6,113.38,1.78,121.75,0h-2.28c-8,1.7-16.08,3.44-24.13,5.84Z"/><path class="cls-1" d="M83.47,4c5.15-1.62,10.31-2.86,15.45-4H96.63C91.8,1.08,87,2.28,82.15,3.77A12.07,12.07,0,0,1,83.47,4Z"/><path class="cls-1" d="M70.3,1.7C72.23,1.08,74.15.54,76.08,0h-2.3C72.17.46,70.58.91,69,1.41,69.42,1.49,69.85,1.62,70.3,1.7Z"/><path class="cls-1" d="M252.9,15.29c-24,20-47.94,22.82-71.91,26.26.44.37.88.79,1.32,1.16,24-3.31,47.95-6.09,71.92-26.18a6.78,6.78,0,0,0,.5-.46c-.44-.41-.87-.83-1.31-1.2A6,6,0,0,0,252.9,15.29Z"/><path class="cls-1" d="M239.73,4.64c-24,19.14-47.94,22.2-71.91,26.64.43.29.87.58,1.3.91,24-4.31,48-7.42,71.94-26.64.16-.12.33-.29.49-.41-.43-.29-.87-.62-1.3-.91C240.07,4.35,239.91,4.52,239.73,4.64Z"/><path class="cls-1" d="M156,24c22.86-4.85,45.73-8.08,68.6-24h-2.3c-22.54,15.2-45.07,18.43-67.61,23.32C155.08,23.53,155.51,23.78,156,24Z"/><path class="cls-1" d="M142.77,17.81C162.42,13.13,182.06,10,201.7,0h-2.28c-19.32,9.49-38.65,12.68-58,17.32Z"/><path class="cls-1" d="M129.6,13.21C146,9,162.44,6.09,178.86,0h-2.28c-16.11,5.76-32.2,8.66-48.31,12.84Z"/><path class="cls-1" d="M246.32,9.57c-24,19.59-47.94,22.58-71.92,26.51.45.33.88.71,1.33,1,24-3.81,47.94-6.76,71.91-26.47.17-.13.33-.29.5-.42-.43-.37-.87-.74-1.3-1.08C246.66,9.28,246.49,9.44,246.32,9.57Z"/><path class="cls-1" d="M233.14.46C209.17,19,185.2,22.16,161.23,27c.43.29.87.54,1.3.83,24-4.77,48-8,71.94-26.64l.5-.37c-.44-.29-.87-.54-1.31-.79A6,6,0,0,0,233.14.46Z"/><path class="cls-1" d="M149.36,20.67c21.25-4.8,42.5-8,63.76-20.67h-2.28C189.91,12.06,169,15.29,148.06,20.09,148.49,20.3,148.93,20.51,149.36,20.67Z"/><path class="cls-1" d="M136.19,15.37c18-4.52,36.07-7.58,54.1-15.37H188c-17.71,7.42-35.42,10.48-53.13,14.91C135.31,15,135.74,15.2,136.19,15.37Z"/><path class="cls-1" d="M123,11.39C137.82,7.46,152.63,4.72,167.44,0h-2.28c-14.48,4.47-29,7.17-43.47,11.06Z"/><path class="cls-1" d="M318.81,114.79c-24,22.21-48,23.57-71.93,20.88l1.32,2.61c24,2.77,47.95,1.37,71.94-20.88.16-.17.33-.29.5-.45-.44-.92-.89-1.79-1.33-2.66Z"/><path class="cls-1" d="M305.64,89.48c-24,21.79-48,23.2-71.94,21.58.45.79.88,1.58,1.33,2.36,24,1.7,48,.29,71.91-21.54a4.29,4.29,0,0,0,.52-.45c-.43-.79-.89-1.58-1.32-2.41A4.18,4.18,0,0,1,305.64,89.48Z"/><path class="cls-1" d="M292.47,66.49c-24,21.46-48,23.07-71.94,22.7.44.7.87,1.41,1.31,2.07,24,.5,48-1.12,71.93-22.62.17-.12.35-.29.52-.41L293,66Z"/><path class="cls-1" d="M279.27,46.23c-24,21.13-48,23.16-71.93,24.11l1.32,1.74c24-.79,48-2.77,71.94-23.94l.49-.5c-.43-.62-.87-1.2-1.3-1.86A5.21,5.21,0,0,1,279.27,46.23Z"/><path class="cls-1" d="M266.1,29.12c-24,20.67-48,23.12-71.94,25.36.45.49.88,1,1.33,1.49,24-2.12,47.94-4.56,71.91-25.27.18-.17.34-.29.52-.46-.44-.5-.88-1-1.33-1.53A4.44,4.44,0,0,1,266.1,29.12Z"/><path class="cls-1" d="M312.23,101.87c-24,21.95-48,23.36-71.94,21.16.45.83.88,1.66,1.33,2.49,24,2.28,47.95.91,71.93-21a5.31,5.31,0,0,1,.5-.54c-.44-.87-.89-1.7-1.33-2.53C312.56,101.58,312.39,101.7,312.23,101.87Z"/><path class="cls-1" d="M299.05,77.67c-24,21.59-48,23.12-71.93,22.08l1.32,2.24c24,1.12,47.95-.37,71.92-22,.16-.16.35-.29.51-.45-.43-.79-.88-1.58-1.32-2.32A5.07,5.07,0,0,1,299.05,77.67Z"/><path class="cls-1" d="M285.86,56c-24,21.29-47.94,23.11-71.92,23.44l1.31,1.87c24-.17,48-1.91,71.93-23.24.17-.17.34-.29.5-.46-.43-.7-.87-1.37-1.3-2.07C286.21,55.68,286,55.8,285.86,56Z"/><path class="cls-1" d="M272.68,37.28c-24,20.92-48,23.16-71.93,24.78.44.49.88,1,1.32,1.57C226.05,62.18,250,60,274,39c.18-.12.34-.29.52-.41-.44-.58-.87-1.16-1.31-1.7A5.79,5.79,0,0,0,272.68,37.28Z"/><path class="cls-1" d="M259.51,21.83c-24,20.34-48,23-71.93,25.85.44.42.88.87,1.32,1.33,24-2.74,47.94-5.35,71.92-25.81a4.57,4.57,0,0,0,.49-.42c-.43-.49-.87-1-1.3-1.4A5.07,5.07,0,0,0,259.51,21.83Z"/><path class="cls-1" d="M386,250.38c.16-.17.35-.42.51-.58l-1.32-2.4a7.56,7.56,0,0,0-.5.66c-24,29.33-47.95,36.33-71.94,34.07.44,1,.9,2,1.33,2.94C338.06,287.2,362,280,386,250.38Z"/><path class="cls-1" d="M372.83,225.85c.17-.2.33-.41.5-.58-.43-.83-.87-1.7-1.31-2.56a7.22,7.22,0,0,1-.49.57c-24,27-47.95,32.07-71.94,28.75.44,1,.89,2,1.33,3.05C324.88,258.27,348.87,253.07,372.83,225.85Z"/><path class="cls-1" d="M358.33,196.77c-24,25.15-47.95,28.59-71.91,24.77.43,1,.89,2.08,1.32,3.11,24,3.77,47.95.13,71.92-25.18.16-.17.33-.38.5-.54-.44-.92-.87-1.79-1.31-2.65A5.85,5.85,0,0,0,358.33,196.77Z"/><path class="cls-1" d="M345.16,169.22c-24,23.82-48,26.19-71.92,22.33.45,1,.88,1.95,1.33,3,24,3.85,47.95,1.4,71.91-22.5.17-.21.34-.37.5-.58-.43-.91-.89-1.82-1.32-2.77C345.49,168.85,345.33,169.06,345.16,169.22Z"/><path class="cls-1" d="M332,141.63c-24,22.83-47.95,24.53-71.92,21.05.44.95.87,1.86,1.31,2.86,24,3.52,47.95,1.74,71.93-21.17l.5-.5-1.33-2.73Z"/><path class="cls-1" d="M379.42,238.4c.16-.2.35-.37.52-.62-.44-.78-.89-1.61-1.33-2.44-.16.17-.33.37-.5.58-24,28.09-47.95,34.09-71.93,31.26.43,1,.89,2,1.32,3C331.47,272.89,355.45,266.74,379.42,238.4Z"/><path class="cls-1" d="M366.25,212.85c.16-.21.33-.38.49-.58l-1.3-2.61c-.17.2-.35.37-.52.54-24,26-47.95,30.23-71.91,26.59.43,1,.88,2.07,1.32,3.07C318.29,243.42,342.28,239,366.25,212.85Z"/><path class="cls-1" d="M351.75,183.1c-24,24.4-47.95,27.26-71.92,23.37.44,1,.89,2,1.33,3,24,3.89,47.95.91,71.91-23.69.17-.17.33-.3.5-.5l-1.33-2.78A7.44,7.44,0,0,0,351.75,183.1Z"/><path class="cls-1" d="M338.57,155.35c-24,23.32-47.95,25.31-71.91,21.58.43.95.87,1.9,1.3,2.9,24,3.77,48,1.7,71.94-21.71l.5-.5c-.44-.91-.9-1.82-1.33-2.73A5.23,5.23,0,0,1,338.57,155.35Z"/><path class="cls-1" d="M325.4,128.05c-24,22.49-47.95,24-71.92,20.88l1.31,2.73c24,3.19,48,1.66,71.94-20.92.16-.17.33-.29.49-.46-.43-.91-.89-1.78-1.32-2.69A5.23,5.23,0,0,1,325.4,128.05Z"/><path class="cls-1" d="M451.91,322.93c.17-.35.34-.68.5-1.05-.43-.13-.89-.29-1.32-.44-.17.38-.34.73-.5,1.08-24,49.9-47.95,72.64-71.94,81.73.44.58.89,1.14,1.33,1.72C404,396.57,427.93,373.43,451.91,322.93Z"/><path class="cls-1" d="M438.72,316.6c.17-.31.35-.62.52-.94-.44-.29-.89-.57-1.33-.84-.16.28-.33.6-.5.89-24,44.47-48,63.34-71.93,69.57.43.68.89,1.37,1.32,2C390.77,380.79,414.76,361.56,438.72,316.6Z"/><path class="cls-1" d="M425.55,305.85,426,305c-.43-.42-.87-.85-1.3-1.31-.17.29-.35.56-.52.85-24,39.71-48,55.06-71.91,58.66.43.79.89,1.6,1.32,2.38C377.6,361.73,401.58,346,425.55,305.85Z"/><path class="cls-1" d="M412.37,291l.5-.82c-.44-.54-.89-1.1-1.33-1.68-.16.25-.33.52-.49.74-24,35.67-47.95,47.89-71.92,49.18.44.85.87,1.72,1.31,2.57C364.42,339.48,388.39,327,412.37,291Z"/><path class="cls-1" d="M399.2,272.27l.5-.66c-.44-.69-.89-1.35-1.33-2.05-.16.25-.33.45-.5.68-24,32.21-47.95,41.66-71.93,40.93.43.93.89,1.86,1.32,2.8C351.25,314.5,375.21,304.79,399.2,272.27Z"/><path class="cls-1" d="M445.31,320.37c.16-.34.35-.67.51-1l-1.32-.66c-.17.31-.33.64-.5,1-24,47.08-47.95,67.82-71.93,75.48.43.62.89,1.26,1.32,1.89C397.36,389.11,421.34,368,445.31,320.37Z"/><path class="cls-1" d="M432.13,311.75c.17-.27.33-.58.5-.87-.43-.35-.87-.73-1.31-1.08-.16.29-.33.56-.49.85-24,42-47.95,59.12-71.94,64l1.33,2.18C384.18,371.67,408.17,354.23,432.13,311.75Z"/><path class="cls-1" d="M419,298.89l.5-.79c-.44-.5-.87-1-1.31-1.53-.16.27-.35.54-.52.83-24,37.59-47.95,51.34-71.91,53.72.43.83.87,1.64,1.3,2.47C371,351,395,336.9,419,298.89Z"/><path class="cls-1" d="M405.79,282c.16-.23.33-.46.49-.71-.43-.62-.89-1.24-1.32-1.86l-.5.7c-24,33.85-47.95,44.64-71.91,44.89l1.3,2.69C357.84,327.31,381.8,316.22,405.79,282Z"/><path class="cls-1" d="M392.61,261.71c.17-.21.33-.44.5-.64-.43-.73-.89-1.46-1.33-2.2l-.49.64c-24,30.66-48,38.84-71.94,37.3.44,1,.89,1.95,1.33,2.95C344.66,301.12,368.63,292.69,392.61,261.71Z"/><path class="cls-1" d="M517.8,279c.17-.64.33-1.26.5-1.88-.44.77-.89,1.53-1.33,2.28l-.49,1.86c-24,90.68-48,143.42-71.94,170,.44.06.89.11,1.33.15C469.85,424.45,493.82,370.76,517.8,279Z"/><path class="cls-1" d="M504.61,298.76c.16-.58.35-1.18.51-1.76-.43.56-.89,1.16-1.32,1.7l-.5,1.66C479.32,381,455.35,425.53,431.37,448l1.32.46C456.66,425.59,480.64,380.33,504.61,298.76Z"/><path class="cls-1" d="M491.43,312.7l.5-1.49-1.3,1.1c-.17.5-.34,1-.5,1.47-24,71.5-47.95,109.2-71.94,128,.44.24.89.51,1.33.76C443.48,423.39,467.47,385,491.43,312.7Z"/><path class="cls-1" d="M478.26,321.24c.17-.46.33-.89.5-1.33-.44.19-.87.35-1.31.52-.16.45-.35.91-.52,1.34C453,385.09,429,417.07,405,432.49l1.3,1.07C430.31,417.84,454.28,385.34,478.26,321.24Z"/><path class="cls-1" d="M465.09,324.53l.49-1.18c-.43,0-.89.08-1.32.1-.17.38-.33.77-.5,1.16-24,56.16-47.95,83.23-71.91,95.39.43.47.87.93,1.3,1.38C417.14,408.91,441.1,381.39,465.09,324.53Z"/><path class="cls-1" d="M511.21,289.61c.17-.6.34-1.18.5-1.78l-1.32,1.94c-.17.6-.33,1.2-.5,1.81-24,85.54-47.95,134-71.94,158.43l1.33.31C463.26,425.44,487.23,376.17,511.21,289.61Z"/><path class="cls-1" d="M498,306.41c.17-.54.35-1.08.52-1.62l-1.33,1.41c-.16.52-.33,1-.5,1.55-24,76-47.94,116.93-71.93,137.54.44.2.89.39,1.32.6C450.07,424.9,474.06,383.25,498,306.41Z"/><path class="cls-1" d="M484.85,317.63c.16-.47.33-.93.49-1.41-.43.29-.87.56-1.3.83-.17.48-.35,1-.52,1.43-24,67.26-47.95,102-71.91,119,.43.31.89.62,1.32.91C436.9,421,460.88,385.72,484.85,317.63Z"/><path class="cls-1" d="M471.67,323.54c.17-.44.34-.85.5-1.31-.43.12-.87.23-1.3.33-.17.42-.36.83-.52,1.27-24,59.61-48,89.06-71.92,102.81.44.42.87.83,1.31,1.23C423.72,413.8,447.69,383.89,471.67,323.54Z"/><path class="cls-1" d="M458.5,324.34c.17-.37.33-.74.5-1.12-.44,0-.89-.08-1.33-.16-.16.37-.33.74-.49,1.12-24,52.92-48,77.73-71.94,88.34.43.54.89,1.05,1.32,1.57C410.55,403.18,434.51,377.91,458.5,324.34Z"/><path class="cls-1" d="M511.75,422.63c6.17-16.57,12.33-36.25,18.5-59.43v-2.67c-6.61,25-13.19,46-19.8,63.4Z"/><path class="cls-1" d="M498.58,434.45c10.56-23.94,21.11-56.13,31.67-97.93v-2.65c-11,43.71-22,77.09-33,101.6Z"/><path class="cls-1" d="M485.41,443.13c14.95-28.5,29.88-71.89,44.84-133.26v-2.68C514.86,370.55,499.47,415,484.08,443.84Z"/><path class="cls-1" d="M472.23,448.79c19.35-30.85,38.67-84.35,58-165.6v-2.68c-19.78,83.25-39.56,137.75-59.34,168.69C471.34,449.08,471.8,448.93,472.23,448.79Z"/><path class="cls-1" d="M529.65,256.34c-24,101.33-47.95,164.17-71.91,195.33l1.3-.11c23.74-31.42,47.47-94.24,71.21-195V254l-.08.17C530,254.91,529.82,255.64,529.65,256.34Z"/><path class="cls-1" d="M505.17,428.94c8.36-20.65,16.71-46.77,25.08-79.08v-2.65c-8.8,34.18-17.59,61.52-26.39,82.87C504.3,429.71,504.73,429.32,505.17,428.94Z"/><path class="cls-1" d="M492,439.18c12.76-26.54,25.5-64.48,38.26-116v-2.65c-13.19,53.46-26.39,92.55-39.58,119.52Z"/><path class="cls-1" d="M478.82,446.32c17.15-29.91,34.28-78.48,51.43-149.79v-2.68c-17.59,73.31-35.17,122.91-52.76,153C477.93,446.71,478.39,446.51,478.82,446.32Z"/><path class="cls-1" d="M465.63,450.53c21.54-31.32,43.08-89.57,64.62-180.68v-2.67c-22,93.06-43.95,152.24-65.93,183.62Z"/><path class="cls-1" d="M524.39,267c.16-.66.33-1.33.5-2-.44.85-.89,1.74-1.33,2.57l-.5,2c-24,95.92-47.95,153.48-71.91,182.27l1.3,0C476.44,422.61,500.4,364.05,524.39,267Z"/><path class="cls-1" d="M524.93,407.61c1.78-5.63,3.54-11.52,5.32-17.73v-2.67c-2.22,7.81-4.41,15.14-6.63,22C524.06,408.71,524.49,408.15,524.93,407.61Z"/><path class="cls-1" d="M530.25,400.63v-.06s0,.06,0,.1Z"/><path class="cls-1" d="M518.34,415.52c4-11.58,7.93-24.54,11.91-39v-2.67C525.84,390,521.45,404.32,517,417,517.47,416.52,517.91,416,518.34,415.52Z"/><path class="cls-1" d="M39.52,0C26.35,6.59,13.17,18.31,0,46.15V48.8C13.94,18.64,27.88,6.63,41.82,0Z"/><path class="cls-1" d="M16.67,0C11.11,4.47,5.56,10.65,0,19.47v2.69C6.33,11.77,12.65,4.85,19,0Z"/><path class="cls-1" d="M28.11,0C18.73,5.88,9.37,15.37,0,32.81V35.5C10.13,16.12,20.26,6.05,30.39,0Z"/><path class="cls-1" d="M5.26,0A72.58,72.58,0,0,0,0,6.13V8.82A73.44,73.44,0,0,1,7.54,0Z"/><path class="cls-1" d="M114.6,9.65c-24,7.29-48,15.54-71.93,54.93.44-.16.88-.37,1.32-.54,24-38.73,47.94-46.85,71.92-54.1l.52-.12a12.65,12.65,0,0,0-1.33-.29Z"/><path class="cls-1" d="M101.41,7.08c-24,7.79-47.94,17.24-71.91,64.13.43-.21.87-.46,1.3-.7,24-46.15,48-55.47,71.94-63.18l.49-.12L101.93,7Z"/><path class="cls-1" d="M88.24,5C64.26,13.13,40.3,24,16.32,79.91c.44-.33.87-.62,1.31-1,24-54.89,48-65.66,71.93-73.78a2,2,0,0,1,.5-.17c-.45-.08-.88-.12-1.33-.2A2.34,2.34,0,0,0,88.24,5Z"/><path class="cls-1" d="M75.06,2.82c-24,8.49-48,21.17-71.93,87.61l1.32-1.12C28.43,24,52.41,11.52,76.39,3l.5-.12-1.33-.25C75.39,2.69,75.23,2.78,75.06,2.82Z"/><path class="cls-1" d="M63.71.33c-.43-.12-.87-.2-1.3-.33h0a2.6,2.6,0,0,1-.49.17C41.26,7.42,20.63,19.76,0,72.83v2.65C21.07,20.42,42.13,7.91,63.19.46Z"/><path class="cls-1" d="M108,8.33C84,15.82,60.06,24.65,36.08,67.65c.45-.25.88-.42,1.33-.66,24-42.26,47.94-51,71.91-58.41a2,2,0,0,1,.5-.17l-1.31-.25A2,2,0,0,0,108,8.33Z"/><path class="cls-1" d="M94.82,6c-24,8-47.94,18.1-71.91,69.34.43-.29.87-.62,1.3-.87,24-50.33,48-60.31,71.94-68.27l.5-.12-1.31-.25C95.17,5.88,95,6,94.82,6Z"/><path class="cls-1" d="M81.65,3.89C57.68,12.26,33.71,24,9.74,85c.43-.34.87-.71,1.3-1C35,24,59,12.43,83,4.14A2.34,2.34,0,0,1,83.47,4a12.07,12.07,0,0,0-1.32-.21Z"/><path class="cls-1" d="M70.3,1.7c-.45-.08-.88-.21-1.33-.29a2.34,2.34,0,0,1-.49.16C45.65,9.69,22.83,22.66,0,86.17v2.65c23.26-65.66,46.52-78.71,69.78-87A2.59,2.59,0,0,1,70.3,1.7Z"/><path class="cls-1" d="M51,0C34,6.92,17,19.55,0,59.49v2.65C17.74,19.64,35.49,7,53.23,0Z"/><path class="cls-1" d="M180.49,41.59c-24,3.36-48,5.88-71.93,22.45.44.17.88.38,1.32.58,24-16.28,47.94-18.64,71.92-21.87.17,0,.34,0,.51,0-.44-.37-.88-.79-1.32-1.16C180.82,41.55,180.66,41.59,180.49,41.59Z"/><path class="cls-1" d="M167.32,31.36c-24,4.39-48,8.33-71.94,28.17l1.33.37c24-19.51,47.94-23.32,71.91-27.63a2.26,2.26,0,0,1,.5-.08c-.43-.33-.87-.62-1.3-.91C167.65,31.32,167.48,31.32,167.32,31.36Z"/><path class="cls-1" d="M154.12,23.41c-24,5.34-47.94,10.48-71.91,34.09.43,0,.87,0,1.3.08,24-23.2,48-28.21,71.94-33.47L156,24c-.44-.21-.87-.46-1.31-.67C154.47,23.36,154.3,23.36,154.12,23.41Z"/><path class="cls-1" d="M141,17.44C117,23.53,93,29.7,69,57.66l1.3-.12c24-27.46,48-33.55,71.94-39.6l.49-.13-1.32-.49Z"/><path class="cls-1" d="M127.78,13c-24,6.75-48,13.92-71.94,47.1a12.91,12.91,0,0,1,1.33-.33c24-32.61,48-39.69,71.93-46.4l.5-.13-1.33-.37Z"/><path class="cls-1" d="M173.91,36.17c-24,3.89-48,7.12-71.94,25.31.44.16.88.29,1.33.45,24-17.85,47.94-21,71.91-24.73.18,0,.34,0,.52-.08-.45-.33-.88-.71-1.33-1A2.11,2.11,0,0,1,173.91,36.17Z"/><path class="cls-1" d="M160.71,27.13c-24,4.89-47.94,9.41-71.91,31.11.44,0,.88.13,1.32.21,24-21.29,47.94-25.72,71.92-30.53.16,0,.33,0,.49-.08-.43-.29-.87-.54-1.3-.83Z"/><path class="cls-1" d="M147.54,20.22C123.56,26,99.6,31.61,75.62,57.29h1.31c24-25.27,48-30.82,71.93-36.49l.5-.13c-.43-.16-.87-.37-1.3-.58Z"/><path class="cls-1" d="M134.36,15c-24,6.46-48,13.13-71.93,43.54.44,0,.88-.13,1.32-.21,24-29.91,48-36.5,71.94-42.88l.5-.12c-.45-.17-.88-.33-1.33-.46Z"/><path class="cls-1" d="M121.19,11.18c-24,7.05-48,14.75-71.93,50.88.44-.17.88-.29,1.32-.46,24-35.5,47.94-43.08,71.92-50.08l.51-.13-1.32-.33Z"/><path class="cls-1" d="M246.38,135.63c-24-2.86-48-9.61-71.94-7,.45.66.88,1.37,1.33,2.07,24-2.4,47.94,4.56,71.91,7.5.18,0,.35,0,.52,0l-1.32-2.61C246.71,135.67,246.55,135.63,246.38,135.63Z"/><path class="cls-1" d="M233.21,111c-24-1.78-48-6.67-71.94-1.41.45.58.88,1.16,1.33,1.78,24-5,47.94.09,71.91,2,.18,0,.34,0,.52.08-.45-.78-.88-1.57-1.33-2.36A2,2,0,0,1,233.21,111Z"/><path class="cls-1" d="M220,89.19c-24-.54-47.94-3.4-71.91,4.52.44.49.88,1,1.32,1.44,24-7.62,47.94-4.55,71.92-3.89h.5c-.44-.66-.87-1.37-1.31-2.07Z"/><path class="cls-1" d="M206.84,70.34c-24,.79-47.94-.12-71.92,10.57.44.37.87.78,1.31,1.15,24-10.43,48-9.32,71.93-10h.5l-1.32-1.74Z"/><path class="cls-1" d="M193.67,54.52c-24,2.11-48,3-71.94,16.53.44.29.88.58,1.33.86C147,58.66,171,58,195,56h.5c-.45-.54-.88-1-1.33-1.49A2,2,0,0,1,193.67,54.52Z"/><path class="cls-1" d="M239.79,123c-24-2.32-48-8.16-71.93-4.22.44.62.88,1.28,1.32,1.9,24-3.68,47.94,2.36,71.92,4.81a2.32,2.32,0,0,1,.52,0c-.45-.83-.88-1.66-1.33-2.49A2.11,2.11,0,0,1,239.79,123Z"/><path class="cls-1" d="M226.62,99.75c-24-1.16-48-5-71.94,1.49l1.33,1.62c24-6.3,47.94-2.2,71.91-.91.18,0,.35,0,.52,0l-1.32-2.24Z"/><path class="cls-1" d="M213.43,79.37c-24,.17-47.94-1.74-71.92,7.58l1.31,1.25c24-9,48-6.92,71.93-6.92h.5l-1.31-1.87A2.19,2.19,0,0,1,213.43,79.37Z"/><path class="cls-1" d="M200.25,62.06c-24,1.44-47.94,1.44-71.91,13.58.43.29.87.67,1.3,1,24-11.81,48-11.64,71.94-13,.16,0,.33,0,.49,0-.44-.54-.88-1.08-1.32-1.57Z"/><path class="cls-1" d="M187.08,47.72c-24,2.74-48,4.44-71.94,19.51.45.21.88.46,1.33.71,24-14.75,48-16.32,71.93-18.89a2.15,2.15,0,0,1,.5,0c-.44-.46-.88-.91-1.32-1.33A2.07,2.07,0,0,0,187.08,47.72Z"/><path class="cls-1" d="M313.59,285.09a4.18,4.18,0,0,0,.5,0c-.43-.95-.89-1.95-1.33-2.94a4,4,0,0,0-.49,0c-24-2.3-47.94-13.51-71.92-19.6.44,1,.87,2.06,1.31,3.07C265.63,271.73,289.61,282.9,313.59,285.09Z"/><path class="cls-1" d="M300.42,255a4.33,4.33,0,0,0,.5.08c-.44-1-.89-2.05-1.33-3.05-.16,0-.33,0-.5-.08-24-3.35-48-14.66-71.93-19.84.44,1,.88,2,1.32,3C252.46,240.39,276.43,251.7,300.42,255Z"/><path class="cls-1" d="M285.92,221.5C262,217.57,238,206.71,214,203l1.32,2.85c24,3.9,48,14.88,71.94,18.77a2.09,2.09,0,0,1,.49.08c-.43-1-.89-2.07-1.32-3.11A2.11,2.11,0,0,1,285.92,221.5Z"/><path class="cls-1" d="M272.75,191.47c-24-4-48-13.88-71.94-15.83l1.31,2.62c24,2.11,48,12.13,71.93,16.15a2,2,0,0,1,.52.13c-.45-1-.88-2-1.33-3C273.08,191.51,272.91,191.51,272.75,191.47Z"/><path class="cls-1" d="M259.55,162.6c-24-3.61-47.94-12.06-71.91-11.85l1.3,2.36c24,0,48,8.66,71.94,12.34a2.29,2.29,0,0,1,.5.09c-.44-1-.87-1.91-1.31-2.86C259.89,162.64,259.73,162.64,259.55,162.6Z"/><path class="cls-1" d="M307,270.14c.16,0,.33,0,.49,0-.43-1-.89-2-1.32-3a2.83,2.83,0,0,0-.5-.05c-24-2.92-48-14.27-71.94-19.94.45,1,.89,2,1.33,3.06C259.05,256,283,267.34,307,270.14Z"/><path class="cls-1" d="M293.83,239.77c.17,0,.33,0,.5.09-.44-1-.89-2-1.32-3.07-.17,0-.34,0-.5,0-24-3.73-48-14.91-71.94-19.39.45.95.88,1.95,1.33,2.9C245.87,224.94,269.86,236.13,293.83,239.77Z"/><path class="cls-1" d="M279.33,206.38c-24-4-48-14.45-71.93-17.35.44.91.88,1.82,1.32,2.77,24,3.07,47.94,13.59,71.92,17.57l.52.12c-.44-1-.89-2-1.33-3A1.76,1.76,0,0,0,279.33,206.38Z"/><path class="cls-1" d="M266.16,176.85c-24-3.86-48-13.09-71.94-14,.44.82.87,1.65,1.31,2.48,24,1.08,48,10.48,71.94,14.38a2.09,2.09,0,0,1,.49.08c-.43-1-.87-2-1.3-2.9A2.17,2.17,0,0,1,266.16,176.85Z"/><path class="cls-1" d="M253,148.84c-24-3.27-47.94-10.93-71.92-9.48l1.31,2.19c24-1.2,48,6.67,71.93,10,.17,0,.33,0,.5.08l-1.31-2.73C253.31,148.88,253.14,148.88,253,148.84Z"/><path class="cls-1" d="M379.48,406.16l.5-.19c-.44-.58-.89-1.14-1.33-1.72l-.49.19c-24,9.05-48,5.26-71.92,1.8.44.81.87,1.6,1.31,2.38C331.53,412,355.49,415.5,379.48,406.16Z"/><path class="cls-1" d="M366.29,387.43l.51-.12c-.43-.66-.89-1.35-1.32-2l-.5.12c-24,6.18-48,.27-71.93-4.55.43.89.89,1.8,1.32,2.67C318.34,388.2,342.32,393.9,366.29,387.43Z"/><path class="cls-1" d="M353.11,365.64a4.55,4.55,0,0,0,.52,0c-.43-.78-.89-1.59-1.32-2.38a4.91,4.91,0,0,1-.5.1c-24,3.55-47.95-4.28-71.94-10.12l1.33,2.88C305.16,361.79,329.15,369.46,353.11,365.64Z"/><path class="cls-1" d="M339.94,341l.5,0c-.44-.85-.87-1.72-1.31-2.57h-.52c-24,1.2-47.95-8.21-71.91-14.59l1.32,3C292,333.15,316,342.43,339.94,341Z"/><path class="cls-1" d="M326.77,314h.49c-.43-.94-.89-1.87-1.32-2.8l-.5,0c-24-.77-47.95-11.33-71.91-17.83l1.32,3.06C278.82,302.9,302.8,313.39,326.77,314Z"/><path class="cls-1" d="M372.9,397.21a4.66,4.66,0,0,0,.49-.16c-.43-.63-.89-1.27-1.32-1.89a3,3,0,0,0-.5.17c-24,7.58-47.95,2.71-71.94-1.47l1.33,2.52C324.94,400.44,348.91,405.08,372.9,397.21Z"/><path class="cls-1" d="M359.7,376.91a4.67,4.67,0,0,1,.52-.08l-1.33-2.18c-.16.05-.33.07-.49.11-24,4.8-48-2.09-71.94-7.48.43.93.89,1.87,1.33,2.76C311.75,375.3,335.74,382,359.7,376.91Z"/><path class="cls-1" d="M346.53,353.67l.49-.08c-.43-.83-.87-1.64-1.3-2.47-.17,0-.35,0-.52.05-24,2.32-47.95-6.34-71.91-12.49l1.32,2.94C298.58,347.73,322.56,356.24,346.53,353.67Z"/><path class="cls-1" d="M333.35,327.74h.5c-.44-.89-.87-1.8-1.3-2.69l-.52,0c-24,.16-47.95-9.88-71.92-16.41.45,1,.88,2.05,1.33,3.07C285.4,318.19,309.39,328.11,333.35,327.74Z"/><path class="cls-1" d="M320.18,299.72a4.21,4.21,0,0,1,.5,0c-.44-1-.89-2-1.33-2.95h-.5c-24-1.59-47.94-12.55-71.91-18.93.44,1,.88,2.08,1.33,3.11C272.24,287.39,296.21,298.29,320.18,299.72Z"/><path class="cls-1" d="M445.37,452c.17-.19.33-.4.5-.6-.44,0-.89-.09-1.33-.15-.17.19-.33.38-.5.56-24,26.87-48,33.41-71.91,38,.43.33.87.66,1.3,1C397.42,486.07,421.38,479.36,445.37,452Z"/><path class="cls-1" d="M432.2,449c.16-.18.33-.33.49-.49l-1.32-.46-.5.48c-24,22.59-47.95,27.32-71.94,30.42.44.42.89.81,1.33,1.2C384.24,476.87,408.21,472,432.2,449Z"/><path class="cls-1" d="M419,443l.52-.4c-.44-.25-.89-.52-1.33-.76a5.92,5.92,0,0,0-.49.41c-24,18.81-47.95,21.56-71.92,23,.44.5.87,1,1.31,1.47C371.05,465.09,395,462.13,419,443Z"/><path class="cls-1" d="M405.83,433.89c.16-.12.33-.22.49-.33l-1.3-1.07a4.78,4.78,0,0,0-.5.33c-24,15.32-47.95,16-71.93,15.74.43.6.89,1.2,1.32,1.8C357.88,450.42,381.86,449.55,405.83,433.89Z"/><path class="cls-1" d="M392.65,421.65a3.46,3.46,0,0,0,.5-.27c-.43-.45-.87-.91-1.3-1.38l-.52.24c-24,12.1-47.95,10.55-71.92,8.64.44.71.87,1.41,1.31,2.09C344.7,432.73,368.67,434.06,392.65,421.65Z"/><path class="cls-1" d="M438.78,450.86l.5-.54L438,450c-.16.18-.33.35-.49.54-24,24.67-47.95,30.3-71.92,34.19l1.31,1.08C390.83,481.78,414.8,476,438.78,450.86Z"/><path class="cls-1" d="M425.59,446.32l.51-.43c-.43-.21-.88-.4-1.32-.6l-.5.43c-24,20.65-47.95,24.4-71.91,26.7.43.48.87.91,1.3,1.37C377.64,471.32,401.62,467.37,425.59,446.32Z"/><path class="cls-1" d="M412.41,438.82c.17-.14.36-.27.52-.39-.43-.29-.89-.6-1.32-.91l-.5.37c-24,17.05-47.95,18.77-71.92,19.39.44.54.87,1.1,1.31,1.63C364.46,458.13,388.45,456.2,412.41,438.82Z"/><path class="cls-1" d="M399.24,428.18l.5-.31c-.44-.4-.87-.81-1.31-1.23-.16.11-.35.19-.52.29C374,440.6,350,440.17,326,439.09l1.3,2C351.29,442,375.26,442.18,399.24,428.18Z"/><path class="cls-1" d="M386.07,414.32l.49-.23c-.43-.52-.89-1-1.32-1.57l-.5.25c-24,10.54-47.95,7.87-71.91,5.15l1.3,2.24C338.12,422.73,362.08,425.17,386.07,414.32Z"/><path class="cls-1" d="M511.26,424c.16-.45.33-.89.49-1.34l-1.3,1.3c-.17.46-.35.91-.52,1.35C486,487.77,462,504.86,438,515.54c.43.07.87.13,1.3.21C463.31,505,487.27,487.56,511.26,424Z"/><path class="cls-1" d="M498.08,435.57c.17-.37.33-.74.5-1.12l-1.33,1c-.16.37-.33.74-.49,1.12-24,52.71-47.95,67-71.92,76.51.44.08.87.19,1.31.27C450.13,503.72,474.1,489.22,498.08,435.57Z"/><path class="cls-1" d="M484.91,444.08c.16-.31.33-.64.5-.95l-1.33.71-.5.93c-24,44.49-47.95,56.46-71.93,64.89l1.32.39C437,501.52,460.92,489.34,484.91,444.08Z"/><path class="cls-1" d="M471.71,449.61c.17-.26.36-.53.52-.82-.43.14-.89.29-1.32.41-.17.27-.33.54-.5.79-24,37.61-48,47.64-71.94,54.91l1.33.54C423.77,498,447.75,487.83,471.71,449.61Z"/><path class="cls-1" d="M458.54,452.25l.5-.69-1.3.11c-.17.22-.36.45-.52.68-24,31.79-48,40.06-71.92,46.09.44.24.87.49,1.31.72C410.59,493,434.56,484.58,458.54,452.25Z"/><path class="cls-1" d="M504.67,430.17c.17-.42.33-.83.5-1.23-.44.38-.87.77-1.31,1.14-.16.42-.35.85-.52,1.25-24,57.39-47.95,73-71.91,83.1.43.08.87.16,1.3.22C456.72,504.44,480.68,488.58,504.67,430.17Z"/><path class="cls-1" d="M491.5,440.21c.16-.33.33-.68.49-1l-1.32.87c-.17.33-.33.66-.5,1-24,48.43-47.95,61.48-71.93,70.47l1.32.33C443.55,502.76,467.51,489.49,491.5,440.21Z"/><path class="cls-1" d="M478.3,447.23c.17-.31.35-.6.52-.91-.43.19-.89.39-1.33.56l-.49.87c-24,40.89-47.95,51.84-71.94,59.72l1.33.47C430.35,500,454.34,488.8,478.3,447.23Z"/><path class="cls-1" d="M465.13,451.29c.16-.25.33-.49.5-.76l-1.31.27c-.16.22-.33.47-.5.72-24,34.57-47.95,43.73-71.93,50.37.43.23.89.44,1.32.65C417.18,495.76,441.16,486.42,465.13,451.29Z"/><path class="cls-1" d="M452,452.49l.49-.62-1.3,0c-.17.21-.35.42-.52.64-24,29.23-47.95,36.64-71.91,42,.43.27.86.56,1.3.83C404,489.8,428,482.22,452,452.49Z"/><path class="cls-1" d="M505.23,527.68c8.35-6.09,16.67-15.43,25-31.11V493.9c-8.78,17-17.56,26.86-26.35,33.24Z"/><path class="cls-1" d="M492,523.29c12.74-8.6,25.48-23.14,38.22-53.4v-2.65c-13.17,31.9-26.35,46.94-39.52,55.72C491.16,523.06,491.6,523.17,492,523.29Z"/><path class="cls-1" d="M478.86,520.72c17.13-10.5,34.26-29.35,51.39-77.48v-2.68c-17.56,50.09-35.13,69.31-52.69,79.95C478,520.58,478.43,520.64,478.86,520.72Z"/><path class="cls-1" d="M465.69,519c21.52-11.91,43-33.8,64.56-102.44v-2.68c-22,70.82-43.93,92.94-65.89,105Z"/><path class="cls-1" d="M524.43,409.2c.17-.53.33-1.07.5-1.59-.44.54-.87,1.1-1.31,1.64-.16.51-.33,1-.49,1.53-24,74-48,94.7-71.94,106.57l1.33.14C476.48,505.52,500.46,484.43,524.43,409.2Z"/><path class="cls-1" d="M498.62,525.18c10.55-7.42,21.09-19.43,31.63-41.95v-2.65c-11,24-22,36.52-32.93,44.18C497.75,524.89,498.19,525,498.62,525.18Z"/><path class="cls-1" d="M485.45,521.84c14.93-9.61,29.87-26.45,44.8-65.29V453.9c-15.37,40.62-30.74,57.89-46.11,67.69Z"/><path class="cls-1" d="M472.27,519.79c19.33-11.25,38.66-31.77,58-89.89v-2.68c-19.76,60.2-39.54,81-59.3,92.43Z"/><path class="cls-1" d="M529.71,402.37c-24,80.45-48,103.25-71.93,115.74.43,0,.89.09,1.32.15,23.72-12.47,47.43-35.38,71.15-115v-2.59l0,0C530,401.23,529.88,401.81,529.71,402.37Z"/><path class="cls-1" d="M517.84,417c.17-.48.34-1,.5-1.45-.43.5-.87,1-1.3,1.45-.17.5-.34,1-.5,1.45-24,68-47.95,86.81-71.94,98.08l1.33.18C469.89,505.29,493.88,486.15,517.84,417Z"/><path class="cls-1" d="M524.24,530.25a75.07,75.07,0,0,0,6-7v-2.67a73.56,73.56,0,0,1-8.28,9.67Z"/><path class="cls-1" d="M512.83,530.25c5.8-4.6,11.62-11,17.42-20.34v-2.67c-6.57,10.93-13.13,18.08-19.7,23Z"/><path class="cls-1" d="M44,64c-.44.17-.88.38-1.32.54l-.5.87C28.12,89,14.05,125.15,0,179.54v2.65C14.49,125.81,29,88.77,43.48,64.87,43.65,64.58,43.82,64.33,44,64Z"/><path class="cls-1" d="M30.8,70.51c-.43.24-.87.49-1.3.7-.17.33-.34.7-.5,1C19.34,91.55,9.66,117.73,0,152.86v2.65c10.1-36.95,20.21-64.17,30.3-84C30.47,71.17,30.63,70.84,30.8,70.51Z"/><path class="cls-1" d="M17.63,79c-.44.33-.87.62-1.31,1-.17.41-.34.83-.52,1.2A457.44,457.44,0,0,0,0,126.18v2.65A453,453,0,0,1,17.13,80.12C17.3,79.75,17.46,79.37,17.63,79Z"/><path class="cls-1" d="M4.45,89.31,3.13,90.43c-.17.46-.33,1-.5,1.41C1.75,94.33.88,96.9,0,99.5v2.66c1.32-4,2.64-7.79,4-11.48Z"/><path class="cls-1" d="M37.41,67c-.45.24-.88.41-1.33.66-.16.29-.33.62-.5.91C23.73,90.31,11.86,121.63,0,166.2v2.65C12.29,122.37,24.6,90.06,36.89,67.9,37.07,67.61,37.23,67.32,37.41,67Z"/><path class="cls-1" d="M24.21,74.48l-1.3.87c-.18.34-.34.71-.52,1.08C14.92,92.75,7.47,113.42,0,139.52v2.65C7.9,114.29,15.81,92.5,23.72,75.56,23.88,75.19,24.05,74.81,24.21,74.48Z"/><path class="cls-1" d="M11,83.93c-.43.33-.87.7-1.3,1-.18.45-.35.86-.52,1.32C6.14,94.24,3.08,103.11,0,112.84v2.65c3.51-11.26,7-21.33,10.54-30.28C10.71,84.76,10.87,84.34,11,83.93Z"/><path class="cls-1" d="M108.06,64.38c-24,16.77-48,49.58-71.94,120,.45-.42.88-.87,1.33-1.29,24-69.47,48-101.66,71.93-118.14a4.44,4.44,0,0,1,.5-.34c-.44-.2-.88-.41-1.32-.58C108.39,64.17,108.22,64.25,108.06,64.38Z"/><path class="cls-1" d="M94.89,60c-24,20-48,59.24-71.94,139.82.45-.63.88-1.2,1.33-1.79,24-79.49,47.94-118,71.91-137.7a6.21,6.21,0,0,1,.52-.41l-1.33-.37A4,4,0,0,1,94.89,60Z"/><path class="cls-1" d="M81.69,58c-24,23.57-47.94,70.75-71.91,162.68.44-.83.88-1.58,1.32-2.37C35.08,127.55,59,81.28,83,58.08l.49-.5c-.43,0-.87-.08-1.3-.08C82,57.66,81.87,57.83,81.69,58Z"/><path class="cls-1" d="M70.34,57.54l-1.3.12-.52.63C45.68,84.84,22.84,137.29,0,232.85v2.7C23.28,137.87,46.56,84.71,69.84,58.16,70,58,70.18,57.75,70.34,57.54Z"/><path class="cls-1" d="M57.17,59.74a12.91,12.91,0,0,0-1.33.33c-.16.24-.33.45-.5.7C36.9,86.58,18.44,131.4,0,206.18v2.69C18.89,132,37.78,86.41,56.67,60.44A8.48,8.48,0,0,1,57.17,59.74Z"/><path class="cls-1" d="M101.47,61.89c-24,18.35-48,54.19-71.93,129.54.44-.5.88-1,1.32-1.53,24-74.32,48-109.53,71.94-127.6l.5-.37c-.45-.16-.89-.29-1.33-.45A4.51,4.51,0,0,0,101.47,61.89Z"/><path class="cls-1" d="M88.3,58.66c-24,21.75-48,64.75-71.94,150.87.45-.7.88-1.41,1.33-2.07,24-85,47.94-127.18,71.91-148.55a6.88,6.88,0,0,1,.52-.46c-.44-.08-.88-.16-1.32-.21C88.63,58.37,88.46,58.54,88.3,58.66Z"/><path class="cls-1" d="M75.11,57.87c-24,25.52-47.95,77.34-71.92,175.36l1.3-2.61c24-96.77,48-147.64,71.94-172.79a6.64,6.64,0,0,0,.5-.54H75.62C75.45,57.5,75.28,57.66,75.11,57.87Z"/><path class="cls-1" d="M63.75,58.37c-.44.08-.88.17-1.32.21-.17.24-.33.45-.5.7C41.29,85.63,20.64,134.34,0,219.52v2.69C21.09,134.92,42.17,85.46,63.26,59,63.42,58.78,63.59,58.58,63.75,58.37Z"/><path class="cls-1" d="M50.58,61.6c-.44.17-.88.29-1.32.46-.17.24-.34.53-.5.78C32.51,87.74,16.25,128.38,0,192.88v2.65C16.69,129,33.39,87.49,50.08,62.35,50.25,62.1,50.42,61.85,50.58,61.6Z"/><path class="cls-1" d="M174,128.71C150,131.49,126,143.54,102,179.29c.44.37.87.7,1.31,1,24-35.34,48-47,71.93-49.55.17,0,.33,0,.5,0-.45-.7-.88-1.41-1.33-2.07C174.28,128.67,174.11,128.71,174,128.71Z"/><path class="cls-1" d="M160.77,109.74c-24,5.38-48,20.75-71.93,61.72.44.17.88.37,1.32.58,24-40.43,48-55.43,71.94-60.56a1.82,1.82,0,0,0,.5-.09c-.45-.62-.88-1.2-1.33-1.78Z"/><path class="cls-1" d="M147.6,93.87c-24,8.12-48,27.09-71.94,73.95.45.08.88.12,1.33.16,24-46.23,47.94-64.83,71.92-72.66a3.39,3.39,0,0,1,.51-.17c-.44-.49-.88-1-1.32-1.44C147.93,93.75,147.77,93.83,147.6,93.87Z"/><path class="cls-1" d="M134.41,81.11c-24,10.94-47.94,33.89-71.92,87.53l1.31-.24c24-53,48-75.48,71.93-86.13.17-.08.33-.12.5-.21-.44-.37-.87-.78-1.31-1.15A2.69,2.69,0,0,1,134.41,81.11Z"/><path class="cls-1" d="M121.23,71.34c-24,13.79-47.94,41.26-71.91,102.73l1.3-.74c24-60.65,48-87.62,71.94-101.12.16-.09.33-.21.5-.3-.45-.28-.89-.57-1.33-.86A4.29,4.29,0,0,1,121.23,71.34Z"/><path class="cls-1" d="M167.36,118.85c-24,4.06-48,17.73-71.94,56l1.33.83c24-37.82,48-51.12,71.94-54.93.16-.05.33-.05.49-.09-.44-.62-.88-1.28-1.32-1.9A2.17,2.17,0,0,0,167.36,118.85Z"/><path class="cls-1" d="M154.19,101.41c-24,6.71-48,23.86-71.94,67.69l1.33.37c24-43.2,47.94-60,71.91-66.44.18,0,.34-.13.52-.17l-1.33-1.62C154.52,101.29,154.35,101.37,154.19,101.41Z"/><path class="cls-1" d="M141,87.12c-24,9.49-48,30.4-71.93,80.53.44,0,.88,0,1.32,0,24-49.46,47.94-70,71.92-79.21a2.9,2.9,0,0,0,.5-.2L141.51,87A2.46,2.46,0,0,0,141,87.12Z"/><path class="cls-1" d="M127.82,75.89c-24,12.35-47.94,37.45-71.92,94.91.44-.21.87-.37,1.31-.54,24-56.67,48-81.32,71.93-93.37l.5-.25c-.43-.33-.87-.71-1.3-1Z"/><path class="cls-1" d="M114.65,67.52c-24,15.29-47.94,45.28-71.92,111.07l1.31-1C68,112.68,92,83.18,116,68.23c.17-.08.33-.21.5-.29-.45-.25-.88-.5-1.33-.71C115,67.32,114.81,67.44,114.65,67.52Z"/><path class="cls-1" d="M241.16,265.43l.5.13c-.44-1-.87-2.05-1.31-3.07l-.52-.14c-24-6-47.94-6.75-71.91,11.74.43.87.87,1.72,1.3,2.59C193.2,258.44,217.18,259.35,241.16,265.43Z"/><path class="cls-1" d="M228,235l.49.12c-.44-1-.88-2-1.32-3a2.17,2.17,0,0,0-.5-.08c-24-5.1-47.94-3.94-71.91,17l1.3,2.36C180,230.74,204,229.79,228,235Z"/><path class="cls-1" d="M213.49,202.9c-24-3.73-48-.29-71.94,23.57l1.33,2.12c24-23.53,47.94-26.72,71.91-22.87.18,0,.35,0,.52.08L214,203A1.73,1.73,0,0,0,213.49,202.9Z"/><path class="cls-1" d="M200.31,175.6c-24-1.82-48,4.19-71.93,31.49.44.62.88,1.2,1.32,1.82,24-27,47.94-32.73,71.92-30.7.16,0,.33,0,.5,0l-1.31-2.62A2.15,2.15,0,0,1,200.31,175.6Z"/><path class="cls-1" d="M187.12,150.75c-24,.33-47.94,9.24-71.91,40.51.43.5.87,1,1.3,1.45,24-30.9,48-39.48,71.94-39.6h.49l-1.3-2.36Z"/><path class="cls-1" d="M234.57,250.13l.5.12c-.44-1-.88-2-1.33-3.06l-.49-.13c-24-5.63-47.94-5.47-71.92,14.19.44.83.87,1.68,1.31,2.53C186.61,244.37,210.6,244.41,234.57,250.13Z"/><path class="cls-1" d="M221.4,220.18a2.17,2.17,0,0,0,.5.08c-.45-.95-.88-1.95-1.33-2.9l-.5-.12c-24-4.44-48-2.2-71.93,20.13.44.75.88,1.49,1.32,2.28C173.44,217.61,197.43,215.58,221.4,220.18Z"/><path class="cls-1" d="M206.9,189c-24-2.82-48,1.86-71.93,27.42.44.62.88,1.28,1.32,1.9,24-25.18,47.94-29.57,71.92-26.59a2.26,2.26,0,0,1,.51.08c-.44-1-.88-1.86-1.32-2.77C207.23,189,207.07,189,206.9,189Z"/><path class="cls-1" d="M193.71,162.84c-24-.78-47.94,6.67-71.92,35.88.45.54.88,1.08,1.33,1.61,24-28.83,47.94-36,71.91-35,.17,0,.33,0,.5,0-.44-.83-.87-1.66-1.31-2.48A1.77,1.77,0,0,0,193.71,162.84Z"/><path class="cls-1" d="M180.53,139.36c-24,1.53-47.94,12-71.91,45.44.43.41.87.83,1.3,1.2,24-33,48-43.12,71.94-44.41.16,0,.33,0,.5,0l-1.31-2.19Z"/><path class="cls-1" d="M307.05,408.56l.5.06c-.44-.78-.87-1.57-1.31-2.38l-.52-.08c-24-3.38-47.94-6.71-71.91,6.19.44.87.88,1.72,1.32,2.57C259.11,402,283.08,405.33,307.05,408.56Z"/><path class="cls-1" d="M293.88,383.44a4.17,4.17,0,0,1,.49.08c-.43-.87-.89-1.78-1.32-2.67l-.5-.06c-24-4.73-47.94-8.39-71.92,4.88l1.31,2.72C245.91,375.17,269.9,378.84,293.88,383.44Z"/><path class="cls-1" d="M280.7,356l.5.13-1.33-2.88c-.16-.05-.33-.07-.49-.11-24-5.71-48-9.36-71.94,4.58.44,1,.88,1.91,1.33,2.86C232.74,346.67,256.73,350.32,280.7,356Z"/><path class="cls-1" d="M267.53,326.68a2.88,2.88,0,0,0,.49.11l-1.32-3a4.67,4.67,0,0,0-.5-.14c-24-6.32-48-9.47-71.93,5.55l1.32,2.86C219.57,317.2,243.55,320.41,267.53,326.68Z"/><path class="cls-1" d="M254.33,296.24a5,5,0,0,0,.52.14l-1.32-3.06a3.51,3.51,0,0,0-.5-.15c-24-6.44-48-8.62-71.94,7.89.45.91.88,1.87,1.33,2.8C206.39,287.52,230.36,289.79,254.33,296.24Z"/><path class="cls-1" d="M300.46,396.32l.5.06-1.33-2.52c-.16,0-.33-.05-.49-.09-24-4.08-47.94-7.62-71.92,5.43l1.31,2.67C252.5,388.84,276.48,392.36,300.46,396.32Z"/><path class="cls-1" d="M287.29,370a4,4,0,0,0,.5.09c-.44-.89-.9-1.83-1.33-2.76a4.42,4.42,0,0,1-.5-.1c-24-5.26-47.94-8.95-71.91,4.62.43.93.87,1.84,1.3,2.79C239.33,361.09,263.31,364.8,287.29,370Z"/><path class="cls-1" d="M274.11,341.51a4,4,0,0,1,.5.11l-1.32-2.94a5,5,0,0,0-.5-.11c-24-6.09-48-9.53-71.94,4.89.45,1,.88,1.91,1.33,2.86C226.15,332,250.14,335.49,274.11,341.51Z"/><path class="cls-1" d="M260.92,311.54c.18,0,.34.11.52.15-.45-1-.88-2-1.33-3.07a4,4,0,0,0-.5-.1c-24-6.44-48-9.18-71.93,6.52.44.94.88,1.89,1.33,2.82C213,302.33,237,305.12,260.92,311.54Z"/><path class="cls-1" d="M247.75,280.82c.17.07.34.11.52.17-.45-1-.89-2.07-1.33-3.11a4.42,4.42,0,0,0-.5-.1c-24-6.32-48-7.83-71.93,9.59.43.91.87,1.8,1.3,2.71C199.79,272.83,223.77,274.51,247.75,280.82Z"/><path class="cls-1" d="M372.94,490.94l.49-.09c-.43-.31-.87-.64-1.3-1l-.52.1c-24,4.46-47.95,5.2-71.91,17.57l1.3,1.12C325,496.34,349,495.54,372.94,490.94Z"/><path class="cls-1" d="M359.76,480.21c.17,0,.33-.06.5-.09-.44-.39-.89-.78-1.33-1.2l-.49.07c-24,3-47.95,3-71.92,15.55l1.31,1.45C311.81,483.4,335.78,483.38,359.76,480.21Z"/><path class="cls-1" d="M346.59,466.77l.5-.07c-.44-.47-.87-1-1.31-1.47h-.52c-24,1.47-47.95.5-71.93,13.18.44.6.88,1.18,1.32,1.76C298.64,467.49,322.6,468.38,346.59,466.77Z"/><path class="cls-1" d="M333.4,450.36h.51c-.43-.6-.89-1.2-1.32-1.8h-.5c-24-.21-47.95-2.09-71.94,10.62.45.69.88,1.39,1.33,2.08C285.44,448.54,309.43,450.34,333.4,450.36Z"/><path class="cls-1" d="M320.22,430.93a4.21,4.21,0,0,0,.5,0c-.44-.68-.87-1.38-1.31-2.09l-.51-.06C294.93,427,271,424.28,247,437c.45.79.88,1.58,1.33,2.34C272.28,426.64,296.26,429.27,320.22,430.93Z"/><path class="cls-1" d="M366.35,485.9a4.33,4.33,0,0,1,.5-.08l-1.31-1.08-.52.07c-24,3.77-47.95,4.12-71.91,16.61.43.43.87.87,1.3,1.28C318.4,490.23,342.36,489.8,366.35,485.9Z"/><path class="cls-1" d="M353.18,473.83l.49,0c-.43-.46-.87-.89-1.3-1.37a4.55,4.55,0,0,1-.52,0c-24,2.26-48,1.74-71.94,14.42.44.54.9,1.07,1.33,1.59C305.22,475.82,329.19,476.25,353.18,473.83Z"/><path class="cls-1" d="M340,458.91h.52c-.44-.53-.87-1.09-1.31-1.63h-.51c-24,.64-47.95-.79-71.94,11.91l1.33,1.9C292,458.38,316,459.72,340,458.91Z"/><path class="cls-1" d="M326.81,441l.49,0-1.3-2a4.18,4.18,0,0,1-.5,0c-24-1-47.95-3.33-71.93,9.38.44.75.88,1.48,1.32,2.2C278.86,437.93,302.84,440.17,326.81,441Z"/><path class="cls-1" d="M313.63,420.12l.5,0-1.3-2.24-.52-.08c-24-2.61-47.94-5.65-71.92,7.13l1.33,2.48C265.7,414.65,289.67,417.65,313.63,420.12Z"/><path class="cls-1" d="M439.32,515.75c-.43-.08-.87-.14-1.3-.21l-.5.21c-17.55,7.25-35.07,10.11-52.61,14.5h2.3c17.21-4.23,34.4-7.08,51.61-14.29C439,515.9,439.16,515.81,439.32,515.75Z"/><path class="cls-1" d="M426.15,513.37c-.44-.08-.87-.19-1.31-.27-.16.06-.35.12-.51.19-20.76,7.66-41.49,10.27-62.25,17h2.28c20.42-6.4,40.87-9,61.29-16.69A3.41,3.41,0,0,0,426.15,513.37Z"/><path class="cls-1" d="M413,510.05l-1.32-.39c-.17.06-.33.1-.5.17-24,7.87-47.95,10-71.92,20.42h2.28c23.66-10,47.31-12.16,71-20A3.17,3.17,0,0,0,413,510.05Z"/><path class="cls-1" d="M399.28,505.58a5,5,0,0,0,.52-.14l-1.33-.54a4.5,4.5,0,0,0-.49.14c-24,6.86-48,8.72-71.92,20l1.31.6C351.33,514.45,375.32,512.56,399.28,505.58Z"/><path class="cls-1" d="M386.11,499.28l.5-.12c-.44-.23-.87-.48-1.31-.72l-.5.12c-24,5.74-47.95,7.12-71.93,19.06.43.29.89.55,1.32.84C338.16,506.6,362.14,505.13,386.11,499.28Z"/><path class="cls-1" d="M432.73,514.65c-.43-.06-.87-.14-1.3-.22l-.52.18c-19.14,7.48-38.28,10.25-57.41,15.64h2.27c18.83-5.18,37.64-8,56.47-15.39A3.44,3.44,0,0,0,432.73,514.65Z"/><path class="cls-1" d="M419.56,511.86l-1.32-.33-.5.18c-22.35,7.79-44.72,10.19-67.07,18.54H353c22-8,44.08-10.44,66.11-18.21Z"/><path class="cls-1" d="M405.89,508.09c.16,0,.33-.11.5-.15l-1.33-.47a4.83,4.83,0,0,0-.5.16c-24,7.38-47.95,9.38-71.91,20.26.43.19.87.35,1.3.52C357.94,517.59,381.91,515.56,405.89,508.09Z"/><path class="cls-1" d="M392.69,502.66l.52-.12c-.43-.21-.89-.42-1.32-.65a3.17,3.17,0,0,1-.5.15c-24,6.3-47.95,8-71.91,19.59.43.25.87.5,1.3.73C344.75,510.8,368.73,509.08,392.69,502.66Z"/><path class="cls-1" d="M379.52,495.39a4.42,4.42,0,0,0,.5-.1c-.44-.27-.87-.56-1.3-.83a4,4,0,0,0-.5.1c-24,5.1-48,6.19-71.94,18.37l1.33,1C331.57,501.79,355.56,500.63,379.52,495.39Z"/><path class="cls-1" d="M505.23,527.68l-1.33-.54c-.16.13-.33.23-.49.36-1.43,1-2.86,1.9-4.29,2.75h2.3c1.1-.68,2.19-1.41,3.29-2.2Z"/><path class="cls-1" d="M492,523.29c-.43-.12-.87-.23-1.3-.33l-.52.33a69.74,69.74,0,0,1-13.94,7h2.3a68.62,68.62,0,0,0,13-6.63Z"/><path class="cls-1" d="M478.86,520.72c-.43-.08-.87-.14-1.3-.21-.17.11-.36.21-.52.32a92.27,92.27,0,0,1-23.59,9.42h2.27A88.22,88.22,0,0,0,478.36,521C478.53,520.91,478.69,520.8,478.86,520.72Z"/><path class="cls-1" d="M465.69,519l-1.33-.14-.5.25c-11.08,5.8-22.18,8.72-33.26,11.14h2.28c10.77-2.36,21.54-5.3,32.31-11C465.36,519.19,465.52,519.09,465.69,519Z"/><path class="cls-1" d="M452.52,517.49l-1.33-.14-.5.22c-14.31,6.65-28.62,9.57-42.94,12.68H410c14-3,28-5.94,42-12.51Z"/><path class="cls-1" d="M498.62,525.18c-.43-.15-.87-.29-1.3-.42-.17.1-.34.23-.5.33a63.25,63.25,0,0,1-9.12,5.16H490a64.52,64.52,0,0,0,8.15-4.72C498.29,525.4,498.46,525.3,498.62,525.18Z"/><path class="cls-1" d="M485.45,521.84l-1.31-.25c-.16.11-.35.21-.51.31a79.41,79.41,0,0,1-18.77,8.35h2.28a76.85,76.85,0,0,0,17.81-8.1Z"/><path class="cls-1" d="M472.27,519.79l-1.32-.14-.5.26C461,525.15,451.5,528,442,530.25h2.3c9.16-2.17,18.31-5,27.47-10.17Z"/><path class="cls-1" d="M459.1,518.26c-.43-.06-.89-.11-1.32-.15l-.5.25c-12.7,6.26-25.4,9.2-38.09,11.89h2.28c12.36-2.63,24.75-5.57,37.11-11.74Z"/><path class="cls-1" d="M445.93,516.68l-1.33-.18-.49.22c-15.93,7-31.84,9.88-47.77,13.53h2.28c15.6-3.52,31.19-6.44,46.79-13.34Z"/><path class="cls-1" d="M37.45,183.1c-.45.42-.88.87-1.33,1.29-.16.49-.33,1-.49,1.45C23.75,220.55,11.88,264.36,0,312.89v2.67c12.31-50.19,24.64-95.55,37-131Z"/><path class="cls-1" d="M24.28,198c-.45.59-.88,1.16-1.33,1.79-.17.53-.33,1.12-.5,1.65-7.48,25-15,53.67-22.45,84.76v2.67C7.92,256,15.84,225.81,23.76,199.71,23.93,199.13,24.1,198.55,24.28,198Z"/><path class="cls-1" d="M11.1,218.31c-.44.79-.88,1.54-1.32,2.37l-.5,1.86q-4.65,17.64-9.28,37v2.68c3.53-14.71,7.05-28.75,10.58-42Z"/><path class="cls-1" d="M30.86,189.9c-.44.49-.88,1-1.32,1.53L29,193C19.36,223.24,9.68,259.6,0,299.55v2.67c10.12-41.67,20.25-79.56,30.37-110.75C30.53,190.93,30.7,190.43,30.86,189.9Z"/><path class="cls-1" d="M17.69,207.46c-.45.66-.88,1.37-1.33,2.07-.16.62-.33,1.2-.49,1.78C10.57,230.16,5.29,250.83,0,272.87v2.69c5.73-23.86,11.44-46.14,17.17-66.32C17.35,208.62,17.51,208,17.69,207.46Z"/><path class="cls-1" d="M4.49,230.62l-1.3,2.61c-.17.66-.33,1.28-.5,2-.9,3.61-1.79,7.25-2.69,11v2.7c1.34-5.51,2.66-11,4-16.28C4.16,231.94,4.33,231.24,4.49,230.62Z"/><path class="cls-1" d="M101.51,180.08c-24,34.8-47.94,99.48-71.91,176.24l1.3-.62c24-76.3,48-140.29,71.94-174.63l.5-.74c-.44-.34-.87-.67-1.31-1C101.86,179.58,101.69,179.83,101.51,180.08Z"/><path class="cls-1" d="M88.34,172.29c-24,39.77-48,112.2-71.94,193.71.45-.44.88-.85,1.33-1.25,24-81,48-152.65,71.94-191.88.16-.25.33-.54.49-.83-.44-.21-.88-.41-1.32-.58C88.67,171.75,88.51,172,88.34,172.29Z"/><path class="cls-1" d="M75.17,168.81c-24,45.32-48,126.85-71.94,212.82l1.33-1.84c24-85.54,47.94-166,71.91-210.81.18-.34.34-.67.52-1-.45,0-.88-.08-1.33-.16C75.5,168.19,75.33,168.48,75.17,168.81Z"/><path class="cls-1" d="M63.8,168.4l-1.31.24c-.16.38-.33.75-.5,1.12C41.33,215,20.66,287.87,0,366.25v2.67C21.1,289.32,42.2,215,63.3,169.47,63.46,169.1,63.63,168.77,63.8,168.4Z"/><path class="cls-1" d="M50.62,173.33l-1.3.74c-.18.42-.34.83-.52,1.29C32.53,216.66,16.27,275.05,0,339.57v2.67c16.7-66,33.42-125.87,50.13-167.63C50.29,174.15,50.46,173.74,50.62,173.33Z"/><path class="cls-1" d="M94.93,175.64C71,212.85,47,281.26,23,360.38c.44-.31.87-.62,1.31-.91,24-78.65,48-146.29,71.93-183,.17-.24.33-.54.5-.78l-1.33-.83C95.26,175.15,95.09,175.4,94.93,175.64Z"/><path class="cls-1" d="M81.75,170c-24,42.46-48,119.27-71.93,203.07.44-.54.88-1.06,1.32-1.55,24-83.37,48-159.26,71.94-201.15.17-.29.33-.62.5-.91l-1.33-.37C82.09,169.39,81.92,169.72,81.75,170Z"/><path class="cls-1" d="M70.4,167.61c-.44,0-.88,0-1.32,0-.17.37-.33.7-.5,1.08C45.72,215.16,22.86,295.32,0,379.58v2.68c23.29-85.34,46.59-167,69.89-213.62C70.06,168.31,70.23,168,70.4,167.61Z"/><path class="cls-1" d="M57.21,170.26c-.44.17-.87.33-1.31.54-.16.37-.33.74-.49,1.16C36.94,215.54,18.47,281.14,0,352.91v2.67c18.9-73.12,37.81-140.21,56.71-184.16C56.88,171.05,57,170.63,57.21,170.26Z"/><path class="cls-1" d="M44,177.59l-1.31,1c-.18.45-.34.95-.52,1.4C28.14,218.31,14.07,269.5,0,326.23v2.67C14.51,270.57,29,217.9,43.54,179,43.7,178.5,43.87,178.05,44,177.59Z"/><path class="cls-1" d="M168.73,277.08c.16-.15.33-.27.49-.4-.43-.87-.87-1.72-1.3-2.59-.18.11-.34.23-.52.36-24,18-47.94,58.49-71.91,119l1.3,2C120.77,335.05,144.75,294.85,168.73,277.08Z"/><path class="cls-1" d="M155.55,251.83c.17-.17.34-.29.5-.46l-1.3-2.36c-.18.12-.35.29-.52.42-24,20.35-47.94,64.16-71.92,126.53.44.52.87,1,1.31,1.59C107.59,315.37,131.58,271.94,155.55,251.83Z"/><path class="cls-1" d="M141.05,227c-24,23.24-48,71-71.93,136L70.44,364c24-64.67,48-112,71.94-134.95l.5-.49-1.33-2.12Z"/><path class="cls-1" d="M127.88,207.67c-24,26.59-48,79.12-71.93,147.41.44.17.88.33,1.32.52,24-67.92,47.94-119.89,71.92-146.15.17-.17.34-.37.51-.54-.44-.62-.88-1.2-1.32-1.82C128.21,207.29,128.05,207.5,127.88,207.67Z"/><path class="cls-1" d="M114.69,192c-24,30.4-47.94,88.52-71.92,160.79.45,0,.88,0,1.33,0C68.07,280.85,92,223.37,116,193.33c.17-.2.33-.41.5-.62-.43-.49-.87-1-1.3-1.45C115,191.51,114.86,191.72,114.69,192Z"/><path class="cls-1" d="M162.14,264.17c.17-.12.33-.27.5-.39-.44-.85-.87-1.7-1.31-2.53l-.52.42c-24,19.11-47.94,61.18-71.91,122.55.43.58.87,1.16,1.3,1.76C114.18,324.78,138.17,283.06,162.14,264.17Z"/><path class="cls-1" d="M149,240.1c.16-.16.33-.29.49-.45-.44-.79-.88-1.53-1.32-2.28l-.5.5c-24,21.73-47.94,67.42-71.91,131,.43.43.87.87,1.3,1.32C101,306.86,125,261.56,149,240.1Z"/><path class="cls-1" d="M134.47,216.91c-24,24.85-48,74.89-71.94,141.44.45.25.88.54,1.33.83,24-66.24,48-115.8,71.93-140.33a4.37,4.37,0,0,0,.5-.54c-.44-.62-.88-1.28-1.32-1.9Z"/><path class="cls-1" d="M121.29,199.34c-24,28.46-48,83.64-71.93,153.84.44.08.88.18,1.32.29C74.66,283.64,98.62,229,122.6,201l.52-.63c-.45-.53-.88-1.07-1.33-1.61C121.63,198.93,121.46,199.13,121.29,199.34Z"/><path class="cls-1" d="M108.1,185.5c-24,32.56-47.94,93.81-71.91,168.28.44-.13.88-.21,1.32-.31,24-74,47.94-134.62,71.92-166.76.16-.21.33-.46.49-.71-.43-.37-.87-.79-1.3-1.2Z"/><path class="cls-1" d="M234.61,415.19c.18-.08.35-.19.52-.27-.44-.85-.88-1.7-1.32-2.57a4.08,4.08,0,0,1-.5.27c-24,12.86-48,44-71.94,105,.45.85.88,1.72,1.33,2.57C186.67,459.08,210.64,428.05,234.61,415.19Z"/><path class="cls-1" d="M221.44,388.7l.5-.31-1.31-2.72-.51.25c-24,13.13-47.94,45.49-71.92,105.53l1.31,2.68C173.48,434,197.47,401.77,221.44,388.7Z"/><path class="cls-1" d="M208.27,360.82c.16-.08.33-.19.5-.29-.45-.95-.89-1.89-1.33-2.86l-.5.31C183,371.69,159,405.5,135,464.88l1.3,2.61C160.31,408.09,184.29,374.45,208.27,360.82Z"/><path class="cls-1" d="M195.09,332.38l.5-.31-1.32-2.86a5.39,5.39,0,0,0-.5.33c-24,14.69-48,50.23-71.94,109.39.45.83.88,1.67,1.33,2.5C147.13,382.3,171.12,346.94,195.09,332.38Z"/><path class="cls-1" d="M181.9,304.17l.52-.31c-.45-.93-.88-1.89-1.33-2.8a5,5,0,0,1-.49.35q-36,24.18-71.94,113.39c.45.74.88,1.51,1.33,2.27C134,357.63,157.93,320.1,181.9,304.17Z"/><path class="cls-1" d="M228,402.14a5,5,0,0,0,.5-.27l-1.31-2.67-.5.31c-24,13-48,44.68-71.93,105.16l1.32,2.59C180.09,446.69,204.05,415.07,228,402.14Z"/><path class="cls-1" d="M214.86,374.86l.49-.27c-.43-.95-.87-1.86-1.3-2.79a4.51,4.51,0,0,0-.52.29c-24,13.36-47.94,46.39-71.92,106.05.44.89.87,1.78,1.31,2.65C166.89,421.07,190.88,388.18,214.86,374.86Z"/><path class="cls-1" d="M201.68,346.61c.17-.1.33-.21.5-.29-.45-.95-.88-1.91-1.33-2.86l-.49.31c-24,14.13-48,48.76-71.94,108,.45.87.88,1.74,1.33,2.61C153.72,395.12,177.71,360.65,201.68,346.61Z"/><path class="cls-1" d="M188.49,318.19l.52-.33c-.45-.93-.89-1.86-1.33-2.82-.17.11-.33.23-.5.33-24,15.33-48,51.93-71.93,111.17.44.81.88,1.64,1.32,2.47C140.55,369.79,164.51,333.39,188.49,318.19Z"/><path class="cls-1" d="M175.31,290.44a5.74,5.74,0,0,0,.5-.36c-.43-.91-.87-1.8-1.3-2.71l-.5.37c-24,17-48,56-71.94,116,.45.71.88,1.43,1.33,2.16C127.37,346,151.34,307.25,175.31,290.44Z"/><path class="cls-1" d="M301,508.67l-1.3-1.12a3.46,3.46,0,0,0-.5.27,104,104,0,0,0-28.48,22.43H273A103.51,103.51,0,0,1,300.5,509C300.67,508.85,300.83,508.77,301,508.67Z"/><path class="cls-1" d="M287.83,496l-1.31-1.45c-.16.08-.35.17-.52.27-12.7,6.88-25.42,17.56-38.13,35.44h2.28c12.4-17,24.78-27.3,37.18-34Z"/><path class="cls-1" d="M274.65,480.17c-.44-.58-.88-1.16-1.32-1.76l-.5.29c-15.94,8.67-31.87,23.77-47.8,51.55h2.27c15.62-26.68,31.24-41.3,46.86-49.79C274.32,480.35,274.49,480.27,274.65,480.17Z"/><path class="cls-1" d="M261.48,461.26c-.45-.69-.88-1.39-1.33-2.08l-.49.29c-19.16,10.38-38.32,30.76-57.48,70.78h2.3c18.84-38.71,37.66-58.49,56.5-68.73Z"/><path class="cls-1" d="M248.31,439.38c-.45-.76-.88-1.55-1.33-2.34a4.08,4.08,0,0,1-.5.27c-22.38,12-44.75,38.86-67.13,92.94h2.28c22.06-52.63,44.12-78.73,66.18-90.6C248,439.55,248.14,439.47,248.31,439.38Z"/><path class="cls-1" d="M294.41,502.7c-.43-.41-.87-.85-1.3-1.28l-.52.27c-11.1,6-22.2,14.72-33.31,28.56h2.28c10.78-13.11,21.56-21.5,32.36-27.28Z"/><path class="cls-1" d="M281.24,488.47c-.43-.52-.89-1.05-1.33-1.59a4,4,0,0,0-.49.27c-14.33,7.78-28.64,20.56-43,43.1h2.28c14-21.54,28-33.91,42-41.51C280.91,488.64,281.07,488.55,281.24,488.47Z"/><path class="cls-1" d="M268.07,471.09l-1.33-1.9-.5.27c-17.54,9.55-35.08,27.15-52.63,60.79h2.28c17.22-32.42,34.46-49.5,51.68-58.87C267.73,471.28,267.9,471.2,268.07,471.09Z"/><path class="cls-1" d="M254.89,450.65c-.44-.72-.88-1.45-1.32-2.2-.17.11-.33.17-.5.27-20.77,11.23-41.54,34.66-62.3,81.53H193c20.46-45.46,40.9-68.25,61.35-79.31A5,5,0,0,0,254.89,450.65Z"/><path class="cls-1" d="M241.72,427.45,240.39,425l-.49.29c-24,12.82-48,43.43-71.94,104.89l.06.1h2.18c23.66-60.05,47.34-89.87,71-102.55Z"/><path class="cls-1" d="M327.37,525.65l-1.31-.6-.52.23c-3,1.47-6.11,3.11-9.15,5h2.3c2.73-1.62,5.45-3,8.18-4.35Z"/><path class="cls-1" d="M314.19,518.46c-.43-.29-.89-.55-1.32-.84l-.5.24a103.09,103.09,0,0,0-18.83,12.39h2.28a102.7,102.7,0,0,1,17.86-11.54C313.84,518.63,314,518.55,314.19,518.46Z"/><path class="cls-1" d="M334,528.41c-.43-.17-.87-.33-1.3-.52l-.5.23c-1.45.68-2.9,1.38-4.35,2.13h2.3q1.68-.84,3.36-1.62A5.27,5.27,0,0,1,334,528.41Z"/><path class="cls-1" d="M320.78,522.36c-.43-.23-.87-.48-1.3-.73l-.52.25a104.29,104.29,0,0,0-14,8.37h2.27a103.61,103.61,0,0,1,13-7.64Z"/><path class="cls-1" d="M307.61,513.93l-1.33-1-.5.27a102.39,102.39,0,0,0-23.65,17h2.3a102.3,102.3,0,0,1,22.66-16.07C307.25,514.09,307.44,514,307.61,513.93Z"/><path class="cls-1" d="M30.9,355.7l-1.3.62c-.18.54-.34,1.06-.52,1.6C19.39,388.35,9.69,419.42,0,446.26v2.67c10.14-27.65,20.27-60,30.41-91.63C30.57,356.76,30.74,356.24,30.9,355.7Z"/><path class="cls-1" d="M17.73,364.75c-.45.4-.88.81-1.33,1.25l-.49,1.63C10.61,385.28,5.3,402.89,0,419.6v2.65c5.75-17.89,11.49-36.87,17.23-55.86C17.4,365.85,17.56,365.29,17.73,364.75Z"/><path class="cls-1" d="M4.56,379.79l-1.33,1.84c-.16.59-.33,1.19-.5,1.77-.91,3.19-1.82,6.35-2.73,9.52v2.68c1.36-4.66,2.7-9.35,4.06-14.07C4.23,381,4.39,380.37,4.56,379.79Z"/><path class="cls-1" d="M24.32,359.47c-.44.29-.87.6-1.31.91-.17.56-.34,1.1-.52,1.66C15,386.25,7.5,410.67,0,432.92v2.67c7.94-23.26,15.88-49,23.82-74.52C24,360.55,24.15,360,24.32,359.47Z"/><path class="cls-1" d="M11.14,371.53c-.44.49-.88,1-1.32,1.55-.17.56-.33,1.14-.5,1.7C6.21,385.38,3.11,396,0,406.26v2.67c3.55-11.66,7.09-23.65,10.65-35.7C10.81,372.65,11,372.09,11.14,371.53Z"/><path class="cls-1" d="M96.79,395.49l-1.3-2-.5,1.25c-17.57,43.45-35.13,96.7-52.69,135.52h2.27c17.25-38.88,34.48-91,51.72-133.52C96.46,396.32,96.63,395.91,96.79,395.49Z"/><path class="cls-1" d="M83.62,377.55c-.44-.55-.87-1.07-1.31-1.59l-.51,1.3C61,430.08,40.23,495.33,19.45,530.25h2.28c20.46-35.56,40.93-99.63,61.39-151.43C83.29,378.38,83.45,378,83.62,377.55Z"/><path class="cls-1" d="M70.44,364,69.12,363l-.5,1.37C45.74,425,22.88,498,0,526.29V529c23.31-27.45,46.64-102,70-163.62Z"/><path class="cls-1" d="M57.27,355.6,56,355.08c-.17.48-.34.93-.5,1.39C37,408.06,18.49,466,0,499.62v2.67C18.92,468.92,37.85,409.51,56.77,357,56.94,356.53,57.11,356.05,57.27,355.6Z"/><path class="cls-1" d="M44.1,352.72c-.45,0-.88,0-1.33,0-.16.5-.33,1-.5,1.47C28.18,395.89,14.1,440.15,0,472.94v2.67c14.53-33.1,29.05-78.71,43.58-121.38C43.76,353.71,43.92,353.22,44.1,352.72Z"/><path class="cls-1" d="M90.2,386c-.43-.6-.87-1.18-1.3-1.76-.18.44-.34.85-.52,1.27C69.21,433.44,50,492.66,30.86,530.25h2.3c18.85-37.95,37.7-95.94,56.55-143C89.87,386.83,90,386.42,90.2,386Z"/><path class="cls-1" d="M77,370.18c-.43-.45-.87-.89-1.3-1.32-.18.43-.35.87-.52,1.3C52.82,428.2,30.43,499.47,8,530.25h2.28c22.06-31.71,44.14-101.8,66.21-158.74C76.7,371.07,76.87,370.62,77,370.18Z"/><path class="cls-1" d="M63.86,359.18c-.45-.29-.88-.58-1.33-.83-.16.46-.33.89-.49,1.35C41.35,415.91,20.68,481.16,0,513v2.68c21.12-31.24,42.24-98,63.36-155.12C63.53,360.07,63.69,359.62,63.86,359.18Z"/><path class="cls-1" d="M50.68,353.47c-.44-.11-.88-.21-1.32-.29-.17.49-.33,1-.5,1.47C32.57,401.4,16.29,452.39,0,486.28V489C16.73,455,33.44,402.64,50.17,354.89Z"/><path class="cls-1" d="M37.51,353.47c-.44.1-.88.18-1.32.31-.17.51-.34,1-.5,1.55C23.79,391.54,11.9,429.19,0,459.6v2.67c12.33-31,24.66-69.95,37-107.27C37.17,354.48,37.33,354,37.51,353.47Z"/><path class="cls-1" d="M162.7,520.16c-.45-.85-.88-1.72-1.33-2.57-.16.44-.33.85-.49,1.31-1.46,3.69-2.91,7.46-4.37,11.35h2.28c1.12-3,2.26-5.94,3.39-8.84C162.36,521,162.52,520.58,162.7,520.16Z"/><path class="cls-1" d="M149.51,494.13l-1.31-2.68c-.17.42-.33.85-.5,1.27-4.68,11.66-9.36,24.21-14,37.53h2.28c4.36-12.34,8.71-24,13.07-34.88C149.17,494.93,149.34,494.54,149.51,494.13Z"/><path class="cls-1" d="M136.33,467.49l-1.3-2.61c-.18.39-.34.79-.52,1.2-7.9,19.41-15.79,41.2-23.7,64.17h2.3c7.57-22,15.15-42.9,22.73-61.54C136,468.32,136.17,467.9,136.33,467.49Z"/><path class="cls-1" d="M123.16,441.43c-.45-.83-.88-1.67-1.33-2.5-.16.41-.33.8-.49,1.2C110.21,467.24,99.09,498.79,88,530.25h2.3c10.8-30.72,21.59-61.25,32.39-87.55C122.83,442.26,123,441.85,123.16,441.43Z"/><path class="cls-1" d="M110,417.07c-.45-.76-.88-1.53-1.33-2.27-.17.39-.33.8-.5,1.22-14.34,35-28.7,77-43,114.23h2.3c14-36.85,28-77.74,42.05-111.91C109.64,417.9,109.81,417.49,110,417.07Z"/><path class="cls-1" d="M156.11,507.26l-1.32-2.59c-.17.41-.33.83-.5,1.24q-4.62,11.56-9.22,24.34h2.3q4.13-11.34,8.23-21.69Z"/><path class="cls-1" d="M142.92,480.79c-.44-.87-.87-1.76-1.31-2.65l-.51,1.24c-6.29,15.53-12.57,32.66-18.85,50.87h2.28c6-17.21,11.93-33.41,17.89-48.18Z"/><path class="cls-1" d="M129.75,454.34c-.45-.87-.88-1.74-1.33-2.61-.17.41-.33.83-.5,1.24-9.5,23.24-19,49.84-28.52,77.28h2.28c9.19-26.6,18.38-52.22,27.57-74.69Z"/><path class="cls-1" d="M116.57,429c-.44-.83-.88-1.66-1.32-2.47-.17.41-.33.85-.5,1.26-12.73,31-25.47,67.65-38.2,102.45h2.28c12.42-34.22,24.83-69.82,37.25-100Z"/><path class="cls-1" d="M103.4,405.87c-.45-.73-.88-1.45-1.33-2.16-.16.42-.33.83-.49,1.27-16,39.13-31.91,86.62-47.87,125.27H56c15.63-38.48,31.24-84.86,46.87-123.16C103.06,406.7,103.22,406.28,103.4,405.87Z"/><path class="cls-1" d="M167.92,530.25h.1l-.06-.1S167.93,530.21,167.92,530.25Z"/></g></g></svg>