<svg xmlns="http://www.w3.org/2000/svg" viewBox="0 0 1024.86 1024.86"><defs><style>.cls-1{fill:#daf3f6;}</style></defs><g id="Capa_2" data-name="Capa 2"><g id="Capa_1-2" data-name="Capa 1"><path class="cls-1" d="M835,887c68.7,25.58,139.55,51.16,189.84,76.75v-4.41C974.5,934.42,905.24,909.44,838.3,884.5,837.26,885.34,836.14,886.18,835,887Z"/><path class="cls-1" d="M872,861.56c51.88,19.34,106,38.71,152.85,58.05v-4.4c-46.12-18.74-98.48-37.44-148.77-56.17Z"/><path class="cls-1" d="M916.29,836.1c35.63,13.13,72.7,26.22,108.57,39.35v-4.4C990.43,858.56,955,846,921,833.54,919.41,834.38,917.81,835.26,916.29,836.1Z"/><path class="cls-1" d="M966,810.64c19.21,6.88,38.91,13.81,58.85,20.7v-4.45c-18.1-6.28-36-12.53-53.57-18.81C969.53,808.92,967.77,809.8,966,810.64Z"/><path class="cls-1" d="M1019.09,785.18c1.93.68,3.85,1.32,5.77,2v-4.44c-.16,0-.24-.08-.4-.13C1022.62,783.45,1020.85,784.34,1019.09,785.18Z"/><path class="cls-1" d="M852.39,874.29c60.21,22.46,122.83,45,172.47,67.42v-4.44c-49.24-21.82-110.09-43.68-168.62-65.5Z"/><path class="cls-1" d="M893.31,848.83c43.8,16.25,89.35,32.47,131.55,48.72v-4.44c-41.08-15.61-84.95-31.23-127.07-46.84C896.27,847.11,894.75,848,893.31,848.83Z"/><path class="cls-1" d="M940.55,823.37c27.46,10,56,20,84.31,30V849c-26.74-9.41-53.49-18.77-79.27-28.18C943.91,821.65,942.23,822.53,940.55,823.37Z"/><path class="cls-1" d="M992.43,797.91q16,5.64,32.43,11.33v-4.41q-13.81-4.74-27.14-9.48C996,796.19,994.11,797.07,992.43,797.91Z"/><path class="cls-1" d="M806.83,1014.41q16.11,5.22,31.63,10.45h5.12q-19-6.49-39.07-13C805.31,1012.69,806.12,1013.57,806.83,1014.41Z"/><path class="cls-1" d="M789.46,988.91c35.71,12,70.06,24,100.49,35.95h5.2c-32-12.81-68.54-25.66-106.73-38.48C788.74,987.22,789.06,988.07,789.46,988.91Z"/><path class="cls-1" d="M783.86,963.45c59.09,20.45,115.45,40.95,157.65,61.41h5.2c-42.83-21.3-101.44-42.64-162.78-63.94C783.93,961.76,783.86,962.6,783.86,963.45Z"/><path class="cls-1" d="M789.94,938c81,28.94,159.17,57.92,203.13,86.87h5.21C954.8,995,874.41,965.25,791.22,935.42,790.82,936.26,790.34,937.15,789.94,938Z"/><path class="cls-1" d="M807.32,912.53c86.79,31.78,173.42,63.61,217.54,95.39v-4.44C979.62,972.29,894.51,941.15,809.64,910,808.84,910.8,808.12,911.68,807.32,912.53Z"/><path class="cls-1" d="M796.67,1001.64c23.46,7.73,46.19,15.49,67.49,23.22h5.21c-23.3-8.57-48.44-17.17-74.38-25.74Z"/><path class="cls-1" d="M785.22,976.18c47.56,16.21,93.12,32.46,130.51,48.68h5.2c-38.59-17.06-86.31-34.15-136.19-51.2Z"/><path class="cls-1" d="M785.46,950.72c70.14,24.69,137.39,49.44,181.83,74.14h5.21c-44.6-25.58-114-51.13-186.4-76.71C785.86,949,785.7,949.88,785.46,950.72Z"/><path class="cls-1" d="M797.23,925.25c91.75,33.19,181.11,66.42,221.62,99.61h5.21c-39.4-34.07-131.07-68.1-225-102.17C798.43,923.53,797.87,924.41,797.23,925.25Z"/><path class="cls-1" d="M820,899.79c77.5,28.67,156.45,57.37,204.89,86v-4.41c-49-28.06-126.43-56.13-202.09-84.19C821.81,898.07,820.93,899,820,899.79Z"/><path class="cls-1" d="M817.24,1024.86h.56c-.32-.08-.64-.2-.88-.28C817,1024.66,817.16,1024.78,817.24,1024.86Z"/><path class="cls-1" d="M993.79,492.33a237.86,237.86,0,0,0,31.07,29.95v-4.41a234.08,234.08,0,0,1-28.75-28.06C995.4,490.65,994.59,491.49,993.79,492.33Z"/><path class="cls-1" d="M1014.93,466.87c3,3.77,6.41,7.53,9.93,11.29v-4.41c-2.88-3.14-5.61-6.26-8.17-9.4C1016.13,465.19,1015.49,466,1014.93,466.87Z"/><path class="cls-1" d="M1005.08,479.6a224.49,224.49,0,0,0,19.78,20.62v-4.44a211.33,211.33,0,0,1-17.7-18.7C1006.52,477.92,1005.8,478.76,1005.08,479.6Z"/><path class="cls-1" d="M1023.25,454.14c.57.64,1,1.28,1.61,1.92v-4.4l-.08,0C1024.3,452.46,1023.82,453.3,1023.25,454.14Z"/><path class="cls-1" d="M798.83,619.72c37.95,41.11,111.37,82.19,226,123.3v-4.4c-112.1-40.47-183.6-81-220.91-121.46C802.27,618,800.59,618.88,798.83,619.72Z"/><path class="cls-1" d="M848.15,594.26c32,34.87,87.91,69.74,176.71,104.61v-4.41C938.54,660.19,884.1,626,852.79,591.7,851.19,592.54,849.67,593.42,848.15,594.26Z"/><path class="cls-1" d="M893,568.8c26,28.66,67.57,57.29,131.87,86v-4.44c-61.9-28-102.09-56-127.55-84.08C895.87,567.07,894.43,568,893,568.8Z"/><path class="cls-1" d="M932.78,543.29c20.1,22.42,49.32,44.88,92.08,67.3v-4.4c-40.75-21.82-68.94-43.6-88.48-65.42C935.1,541.61,934,542.45,932.78,543.29Z"/><path class="cls-1" d="M966.41,517.83c14.25,16.22,33.15,32.39,58.45,48.6V562c-23.86-15.57-41.8-31.17-55.49-46.76C968.41,516.13,967.37,517,966.41,517.83Z"/><path class="cls-1" d="M824,607c34.91,38,99.2,76,200.89,114v-4.44c-99.13-37.35-161.66-74.74-196-112.1C827.25,605.26,825.65,606.15,824,607Z"/><path class="cls-1" d="M871.13,581.52c29,31.75,77.5,63.54,153.73,95.29V672.4C951,641.26,904,610.11,875.61,579,874.17,579.81,872.65,580.68,871.13,581.52Z"/><path class="cls-1" d="M913.57,556c23.06,25.54,58.2,51.12,111.29,76.66v-4.44c-50.84-24.9-84.79-49.84-107.29-74.74C916.21,554.35,914.93,555.19,913.57,556Z"/><path class="cls-1" d="M950.31,530.56c17.22,19.3,41.08,38.64,74.55,57.93v-4.4c-31.79-18.7-54.61-37.35-71.26-56.05C952.56,528.88,951.44,529.72,950.31,530.56Z"/><path class="cls-1" d="M980.82,505.06c11.45,13.11,25.7,26.21,44,39.32V540a250,250,0,0,1-41.32-37.43C982.66,503.38,981.78,504.22,980.82,505.06Z"/><path class="cls-1" d="M832.46,886.06c.8.32,1.76.64,2.56,1,1.12-.84,2.24-1.68,3.28-2.52l-2.56-1c-127.07-46.36-234.2-92.68-289-139l-4.64,2.56C597.46,793.38,705.23,839.74,832.46,886.06Z"/><path class="cls-1" d="M869.29,860.6c.88.32,1.76.64,2.72,1l4.08-2.52c-.88-.32-1.76-.68-2.56-1-127-46.32-228.59-92.68-279.11-139-1.68.84-3.36,1.69-5,2.53C640.38,767.92,742.38,814.24,869.29,860.6Z"/><path class="cls-1" d="M918.37,832.58C790,786.26,692.82,739.9,645.5,693.58c-1.68.84-3.36,1.68-5.12,2.52,47.48,46.36,145.16,92.68,273.26,139l2.65,1c1.52-.84,3.12-1.72,4.72-2.56Z"/><path class="cls-1" d="M968.49,807.12c-131.15-46.36-225-92.68-269.66-139-1.84.84-3.61,1.72-5.37,2.56,44.92,46.36,139.08,92.68,269.91,139l2.64,1c1.76-.84,3.52-1.72,5.28-2.56C970.41,807.76,969.45,807.44,968.49,807.12Z"/><path class="cls-1" d="M1021.73,781.65C886.5,735.29,795.22,689,752.07,642.62c-1.76.84-3.52,1.72-5.28,2.56,43.31,46.32,134.83,92.68,269.58,139,1,.32,1.84.68,2.72,1,1.76-.84,3.53-1.73,5.37-2.57C1023.5,782.29,1022.54,782,1021.73,781.65Z"/><path class="cls-1" d="M849.83,873.33c.8.32,1.68.64,2.56,1l3.85-2.52-2.73-1C726.77,824.45,622.6,778.09,570,731.77c-1.61.84-3.2,1.72-4.73,2.57C618.28,780.65,723,827,849.83,873.33Z"/><path class="cls-1" d="M890.74,847.87c.89.32,1.69.64,2.57,1,1.44-.84,3-1.72,4.48-2.56-1-.32-1.76-.64-2.64-1C767.68,799,668.4,752.63,619.64,706.31l-5,2.52C663.68,755.19,763.44,801.51,890.74,847.87Z"/><path class="cls-1" d="M943,819.85c-129.55-46.36-225-92.68-270.87-139l-5.36,2.56c46,46.36,142,92.68,271.18,139,1,.32,1.85.64,2.65,1,1.68-.84,3.36-1.72,5-2.56C944.63,820.48,943.83,820.16,943,819.85Z"/><path class="cls-1" d="M995,794.38c-133.07-46.35-225.63-92.67-269.5-139-1.76.84-3.53,1.72-5.29,2.56,44,46.32,136.68,92.68,269.35,139,.88.32,1.92.68,2.88,1,1.68-.84,3.52-1.72,5.29-2.56C996.76,795,995.87,794.7,995,794.38Z"/><path class="cls-1" d="M773.05,632.45c41,44.23,124.5,88.43,251.81,132.67v-4.44c-124.75-43.6-206.25-87.2-246.61-130.79C776.57,630.73,774.81,631.61,773.05,632.45Z"/><path class="cls-1" d="M803.87,1013.41l3,1c-.71-.84-1.52-1.72-2.32-2.56l-2.88-1c-145.88-46.36-304.77-92.68-398-139-.28.84-.6,1.72-.84,2.56C497.14,920.73,657.59,967.09,803.87,1013.41Z"/><path class="cls-1" d="M786.58,988l2.88,1c-.4-.84-.72-1.69-1-2.53-1-.32-1.92-.68-2.88-1-141.16-46.32-285.92-92.67-369.15-139-.52.84-1.08,1.72-1.64,2.56C498.86,895.27,644.86,941.63,786.58,988Z"/><path class="cls-1" d="M781.05,962.48c1,.32,1.92.64,2.81,1,0-.85.07-1.69.07-2.53-.87-.32-1.84-.68-2.8-1-136.27-46.32-268.94-92.67-343.28-139-.88.84-1.72,1.68-2.53,2.52C510.55,869.81,644.3,916.13,781.05,962.48Z"/><path class="cls-1" d="M787.22,937c1,.32,1.84.64,2.72,1,.4-.84.88-1.73,1.28-2.57l-2.8-1c-131.95-46.36-254.37-92.67-321.11-139-1.12.85-2.2,1.73-3.24,2.57C531.48,844.35,654.87,890.67,787.22,937Z"/><path class="cls-1" d="M804.67,911.52c1,.32,1.84.69,2.65,1,.8-.85,1.52-1.73,2.32-2.57l-2.56-1c-128.91-46.36-242.93-92.68-303.22-139-1.36.84-2.64,1.73-4,2.57C560.79,818.84,675.61,865.21,804.67,911.52Z"/><path class="cls-1" d="M793.7,1000.68l3,1L795,999.12l-2.89-1C648.46,951.8,497,905.48,408.86,859.12c-.4.84-.88,1.72-1.28,2.56C496.7,908,649.67,954.36,793.7,1000.68Z"/><path class="cls-1" d="M782.41,975.22c.88.32,1.85.64,2.81,1l-.48-2.52c-1-.32-1.92-.68-2.88-1-138.68-46.32-277.12-92.68-355.78-139-.68.84-1.4,1.68-2.08,2.52C503.5,882.54,643.18,928.86,782.41,975.22Z"/><path class="cls-1" d="M782.74,949.76c.87.32,1.76.64,2.72,1,.24-.84.4-1.73.64-2.57l-2.72-1c-134-46.32-261.34-92.68-331.72-139-1,.85-2,1.69-3,2.53C519.87,857.08,648.22,903.4,782.74,949.76Z"/><path class="cls-1" d="M794.58,924.29l2.65,1c.64-.84,1.2-1.72,1.84-2.56-.88-.32-1.68-.64-2.64-1-130.19-46.36-248.29-92.68-311.71-139-1.2.84-2.4,1.72-3.6,2.56C545.18,831.61,664,877.93,794.58,924.29Z"/><path class="cls-1" d="M817.32,898.79c1,.32,1.77.68,2.65,1,1-.84,1.84-1.72,2.8-2.56-.88-.32-1.76-.64-2.56-1-127.87-46.36-238.28-92.68-295.69-139-1.44.84-2.84,1.73-4.24,2.57C578.25,806.12,689.38,852.47,817.32,898.79Z"/><path class="cls-1" d="M489.17,1001.76c29.06,7.68,59.77,15.41,91.48,23.1h5.12c-35.15-8.57-69-17.1-101-25.66C486.21,1000,487.69,1000.92,489.17,1001.76Z"/><path class="cls-1" d="M450.82,976.3c54.52,16.17,116.46,32.39,181.39,48.56h5.12c-68.13-17.06-133.07-34.07-189.8-51.13C448.58,974.57,449.74,975.46,450.82,976.3Z"/><path class="cls-1" d="M423.35,950.8c73.75,24.7,165.38,49.36,260.42,74.06h5.13c-97.77-25.54-192.36-51-267.67-76.59C422,949.11,422.63,950,423.35,950.8Z"/><path class="cls-1" d="M406.54,925.34c87.36,33.18,208.21,66.33,328.8,99.52h5.12c-122.82-34-246.49-68-334.92-102C405.86,923.66,406.18,924.5,406.54,925.34Z"/><path class="cls-1" d="M399.89,899.87c96.28,41.68,246.81,83.31,387,125H792c-141.8-42.52-295.4-85-392.33-127.55C399.73,898.15,399.81,899,399.89,899.87Z"/><path class="cls-1" d="M468.55,989c42.64,11.93,89.28,23.9,137.88,35.83h5.12c-52-12.81-101.56-25.58-146.76-38.39Z"/><path class="cls-1" d="M435.77,963.57C500.62,984,577.6,1004.44,658,1024.86h5.13C579.68,1003.56,499.78,982.3,433,961,433.92,961.85,434.88,962.73,435.77,963.57Z"/><path class="cls-1" d="M413.67,938.06c81.18,29,187.39,57.85,295.88,86.8h5.13c-111-29.79-220.1-59.53-302.61-89.32C412.59,936.38,413.1,937.22,413.67,938.06Z"/><path class="cls-1" d="M402.06,912.6c92.35,37.43,227.83,74.83,359.06,112.26h5.12c-133.15-38.27-271.59-76.51-364.82-114.78C401.62,910.92,401.82,911.76,402.06,912.6Z"/><path class="cls-1" d="M814,1023.62c-147.88-46.36-314.62-92.68-413.51-139-.15.84-.23,1.72-.32,2.56,99.21,45.92,265.15,91.8,412.55,137.72h4.56c-.08-.08-.24-.2-.32-.28C815.88,1024.26,814.92,1023.94,814,1023.62Z"/><path class="cls-1" d="M533.89,1024.86h.4c-.24,0-.48-.12-.72-.16A1.17,1.17,0,0,0,533.89,1024.86Z"/><path class="cls-1" d="M512.63,1014.49c13.77,3.44,27.9,6.92,42.24,10.37H560q-26.79-6.49-52.32-12.93C509.27,1012.77,511,1013.65,512.63,1014.49Z"/><path class="cls-1" d="M1005.88,225c7,25.5,11.85,51,19,76.5v-4.4c-6.73-24.88-11.53-49.78-18.42-74.66C1006.28,223.33,1006.12,224.17,1005.88,225Z"/><path class="cls-1" d="M1010.93,199.53c5.6,19.29,9.52,38.59,13.93,57.89V253c-4.17-18.65-8-37.31-13.45-56Z"/><path class="cls-1" d="M1015.17,174.07c3.92,13.07,7,26.12,9.69,39.19v-4.41c-2.65-12.45-5.53-24.9-9.29-37.35C1015.41,172.36,1015.33,173.21,1015.17,174.07Z"/><path class="cls-1" d="M1019.25,148.6c2.16,6.83,4,13.68,5.61,20.5v-4.4c-1.52-6.23-3.13-12.43-5.13-18.66Z"/><path class="cls-1" d="M1024.86,124.94v-4.32c-.24.84-.4,1.68-.64,2.52C1024.46,123.74,1024.62,124.34,1024.86,124.94Z"/><path class="cls-1" d="M1008.6,212.26c6.33,22.4,10.73,44.82,16.26,67.21v-4.4c-5.29-21.78-9.61-43.56-15.78-65.33Z"/><path class="cls-1" d="M1013.09,186.8c4.8,16.17,8.32,32.34,11.77,48.52v-4.41c-3.29-15.55-6.65-31.08-11.29-46.64Z"/><path class="cls-1" d="M1017.17,161.34c3.13,9.94,5.53,19.91,7.69,29.86v-4.44c-2.08-9.33-4.41-18.66-7.29-28C1017.49,159.63,1017.33,160.47,1017.17,161.34Z"/><path class="cls-1" d="M1021.57,135.87c1.21,3.73,2.25,7.45,3.29,11.17V142.6c-.88-3.1-1.77-6.19-2.72-9.29C1022,134.17,1021.73,135,1021.57,135.87Z"/><path class="cls-1" d="M995.31,488.81c-38.67-46.34-44.11-92.66-50.76-139-.72.86-1.52,1.7-2.24,2.56,6.4,46.34,11.77,92.66,50.6,139a9.59,9.59,0,0,0,.88,1c.8-.84,1.61-1.68,2.32-2.52A8.76,8.76,0,0,0,995.31,488.81Z"/><path class="cls-1" d="M1015.89,463.35c-37-46.34-42.91-92.66-51.48-139-.56.84-1.13,1.68-1.77,2.52,8.33,46.34,14.34,92.7,51.49,139,.24.32.56.64.8,1,.56-.84,1.2-1.68,1.76-2.52C1016.45,464,1016.13,463.69,1015.89,463.35Z"/><path class="cls-1" d="M978.5,301.41c9.37,44.2,15.61,88.4,46.36,132.59v-4.44c-29.39-43.56-35.63-87.11-45.08-130.67C979.38,299.73,978.9,300.57,978.5,301.41Z"/><path class="cls-1" d="M990.43,276c9.05,38,15.13,75.92,34.43,113.9v-4.41c-18.34-37.35-24.5-74.7-33.47-112Z"/><path class="cls-1" d="M999.32,250.49c8.16,31.73,13.77,63.47,25.54,95.2v-4.4c-11.13-31.13-16.74-62.24-24.82-93.36Z"/><path class="cls-1" d="M1006.36,476.08c-37.87-46.34-43.63-92.66-51.24-139-.64.86-1.36,1.7-2,2.56,7.36,46.34,13,92.66,51.16,139,.24.32.56.64.8,1,.72-.84,1.44-1.68,2.08-2.52C1006.92,476.74,1006.6,476.42,1006.36,476.08Z"/><path class="cls-1" d="M1024,450.62c-35.79-46.34-42-92.66-51.32-139-.57.84-1,1.68-1.61,2.52,9.21,46.34,15.38,92.7,51.49,139l.71,1c.57-.84,1-1.68,1.53-2.52A8.76,8.76,0,0,0,1024,450.62Z"/><path class="cls-1" d="M984.9,288.68c9.29,41.08,15.54,82.15,40,123.23V407.5c-23.3-40.45-29.55-80.89-38.84-121.34C985.63,287,985.22,287.84,984.9,288.68Z"/><path class="cls-1" d="M995.15,263.22c8.73,34.85,14.65,69.72,29.71,104.57v-4.45c-14.33-34.22-20.26-68.45-28.83-102.68C995.79,261.52,995.47,262.36,995.15,263.22Z"/><path class="cls-1" d="M1002.84,237.76c7.6,28.62,12.89,57.25,22,85.87v-4.4c-8.65-28-13.85-56-21.38-84C1003.24,236.06,1003.08,236.9,1002.84,237.76Z"/><path class="cls-1" d="M803,616.2c-42.91-46.36-45.55-92.7-40.35-139l-5,2.56c-5.37,46.34-2.65,92.68,40.35,139,.32.32.56.64.88,1,1.76-.84,3.44-1.72,5.12-2.56Z"/><path class="cls-1" d="M851.92,590.74c-42.12-46.36-44.84-92.7-41.72-139l-4.57,2.56c-3.28,46.34-.56,92.68,41.64,139a9.85,9.85,0,0,0,.88,1c1.52-.84,3-1.72,4.64-2.56A8.39,8.39,0,0,1,851.92,590.74Z"/><path class="cls-1" d="M896.35,565.27c-41.48-46.34-44.6-92.7-43.88-139-1.36.84-2.72,1.68-4,2.52-1,46.34,2.16,92.7,43.72,139,.24.32.56.68.8,1,1.44-.84,2.88-1.73,4.32-2.57Z"/><path class="cls-1" d="M935.5,539.77c-40.83-46.34-44.76-92.69-46.6-139-1.11.86-2.24,1.7-3.36,2.56,1.52,46.34,5.36,92.69,46.28,139l1,1c1.2-.84,2.32-1.68,3.6-2.52A9.85,9.85,0,0,1,935.5,539.77Z"/><path class="cls-1" d="M968.57,514.31c-40-46.34-44.68-92.7-49-139-1,.86-1.84,1.71-2.88,2.57,4.08,46.34,8.81,92.66,48.84,139,.32.34.56.66.88,1,1-.86,2-1.7,3-2.56A8.47,8.47,0,0,1,968.57,514.31Z"/><path class="cls-1" d="M828,603.46c-42.43-46.36-45.15-92.69-40.91-139L782.25,467c-4.4,46.34-1.76,92.68,40.68,139a12.3,12.3,0,0,1,1,1c1.68-.84,3.28-1.73,4.89-2.57C828.53,604.1,828.29,603.78,828,603.46Z"/><path class="cls-1" d="M874.73,578c-41.71-46.34-44.68-92.69-42.67-139l-4.33,2.56c-2.16,46.34.72,92.68,42.52,139,.32.32.56.69.88,1,1.52-.84,3-1.71,4.48-2.56A9.59,9.59,0,0,1,874.73,578Z"/><path class="cls-1" d="M916.69,552.5c-41.16-46.34-44.68-92.65-45.32-139l-3.6,2.52c.32,46.34,3.68,92.7,44.91,139,.32.33.56.65.89,1,1.36-.84,2.64-1.68,4-2.52C917.25,553.18,917,552.82,916.69,552.5Z"/><path class="cls-1" d="M952.8,527c-40.43-46.34-44.76-92.7-47.88-139-1,.87-2,1.71-3,2.57,2.81,46.34,7,92.65,47.64,139,.25.34.57.66.8,1,1.13-.84,2.25-1.68,3.29-2.52A8.76,8.76,0,0,0,952.8,527Z"/><path class="cls-1" d="M982.66,501.58c-39.31-46.34-44.44-92.7-50-139-.8.86-1.68,1.7-2.56,2.57,5.28,46.33,10.33,92.65,49.88,139a8.47,8.47,0,0,0,.8,1c1-.84,1.84-1.68,2.72-2.52A9.59,9.59,0,0,0,982.66,501.58Z"/><path class="cls-1" d="M540.93,746.06c.32.32.8.68,1.13,1l4.64-2.56c-.4-.32-.8-.64-1.28-1-56.69-46.36-70.22-92.67-65.86-139-1.92.84-3.84,1.72-5.68,2.56C469.75,653.39,483.77,699.74,540.93,746.06Z"/><path class="cls-1" d="M588.33,720.6a14,14,0,0,1,1.12,1c1.61-.84,3.29-1.69,5-2.53a13.93,13.93,0,0,1-1.12-1c-52.21-46.36-62-92.67-55.57-139-1.92.84-3.92,1.73-5.89,2.57C525.68,627.93,535.73,674.28,588.33,720.6Z"/><path class="cls-1" d="M644.54,692.58c-48.6-46.32-55.25-92.68-47.88-139-2,.84-4,1.72-6,2.57-7.28,46.31-.24,92.67,48.68,139,.32.32.73.64,1,1,1.76-.84,3.44-1.68,5.12-2.52A11.1,11.1,0,0,0,644.54,692.58Z"/><path class="cls-1" d="M697.78,667.12c-46-46.32-50.6-92.68-43.15-139-1.92.86-3.76,1.7-5.77,2.56-7.44,46.32-2.72,92.68,43.48,139,.4.32.72.64,1.12,1,1.76-.84,3.53-1.72,5.37-2.56C698.51,667.76,698.1,667.44,697.78,667.12Z"/><path class="cls-1" d="M751.11,641.66c-44.12-46.32-47.4-92.68-40.67-139-1.85.84-3.61,1.68-5.53,2.52-6.81,46.36-3.36,92.68,40.92,139l1,1c1.76-.84,3.52-1.72,5.28-2.56Z"/><path class="cls-1" d="M564.07,733.33c.4.32.72.69,1.2,1,1.53-.85,3.12-1.73,4.73-2.57a13.93,13.93,0,0,0-1.12-1c-54.29-46.36-65.9-92.68-60.42-139-1.92.85-3.88,1.73-5.8,2.57C497.42,640.65,509.31,687,564.07,733.33Z"/><path class="cls-1" d="M613.47,707.87c.4.32.72.64,1.12,1l5-2.52a12.51,12.51,0,0,1-1-1c-50.28-46.32-58.45-92.68-51.41-139-2,.84-4,1.71-5.92,2.56C554.38,615.19,562.87,661.55,613.47,707.87Z"/><path class="cls-1" d="M671,679.85c-47.16-46.32-52.68-92.68-45.16-139-1.92.84-3.84,1.73-5.84,2.57-7.53,46.31-1.76,92.67,45.8,139a10.86,10.86,0,0,0,1,1l5.36-2.56A13.93,13.93,0,0,0,671,679.85Z"/><path class="cls-1" d="M724.61,654.39c-45.08-46.32-48.93-92.68-41.72-139-1.84.84-3.68,1.68-5.6,2.52-7.29,46.36-3.29,92.68,42,139l1,1c1.76-.84,3.53-1.72,5.29-2.56A8.52,8.52,0,0,1,724.61,654.39Z"/><path class="cls-1" d="M777.37,628.93c-43.48-46.32-46.36-92.68-40.35-139l-5.29,2.52c-6.16,46.36-3.2,92.68,40.43,139,.33.32.57.64.89,1,1.76-.84,3.44-1.72,5.2-2.56A9.59,9.59,0,0,1,777.37,628.93Z"/><path class="cls-1" d="M400.7,873.45c.68.32,1.32.64,2,1,.24-.84.56-1.72.84-2.56-.72-.32-1.4-.64-2.08-1-96.44-46.36-140.4-92.68-158-139-1.12.84-2.2,1.72-3.32,2.56C258.38,780.77,303.09,827.09,400.7,873.45Z"/><path class="cls-1" d="M412.94,848c.61.32,1.2.68,1.81,1,.56-.84,1.12-1.72,1.64-2.56l-1.72-1c-86-46.36-122.43-92.68-134.48-139-1.32.84-2.64,1.72-3.92,2.56C288.88,755.27,326,801.63,412.94,848Z"/><path class="cls-1" d="M433.72,822.49l1.6,1c.81-.84,1.65-1.68,2.53-2.52-.56-.32-1.08-.68-1.65-1-76.74-46.32-106.4-92.68-113.37-139l-4.6,2.56C325.71,729.81,356.06,776.17,433.72,822.49Z"/><path class="cls-1" d="M462.47,797c.56.32,1.08.64,1.6,1,1-.84,2.12-1.72,3.24-2.57-.48-.31-1-.63-1.44-.95-68.94-46.32-92.56-92.68-95-139l-5,2.52C368.71,704.35,392.89,750.67,462.47,797Z"/><path class="cls-1" d="M498.62,771.57l1.28,1c1.32-.84,2.6-1.73,4-2.57-.48-.32-.88-.64-1.32-1-62.25-46.36-80.51-92.68-79.11-139-1.8.84-3.6,1.72-5.4,2.56C417,678.89,435.77,725.21,498.62,771.57Z"/><path class="cls-1" d="M405.66,860.68c.64.32,1.28.68,1.92,1,.4-.84.88-1.72,1.28-2.56-.6-.32-1.24-.64-1.88-1-91-46.36-131.07-92.68-145.88-139l-3.64,2.56C272.79,768,313.62,814.36,405.66,860.68Z"/><path class="cls-1" d="M422.32,835.22c.52.32,1.11.64,1.68,1,.68-.84,1.4-1.68,2.08-2.52-.56-.32-1.08-.64-1.65-1-81.22-46.36-114.25-92.68-123.7-139-1.4.84-2.8,1.72-4.2,2.56C306.5,742.54,340.2,788.9,422.32,835.22Z"/><path class="cls-1" d="M447.17,809.76c.48.32,1,.64,1.52,1,1-.84,2-1.68,3-2.53-.52-.32-1-.68-1.6-1-72.66-46.32-99.25-92.67-103.85-139l-4.76,2.52C346.49,717.08,373.71,763.4,447.17,809.76Z"/><path class="cls-1" d="M479.76,784.29c.44.32.88.65,1.36,1,1.2-.84,2.4-1.72,3.6-2.56-.43-.32-.91-.65-1.36-1-65.41-46.31-86.27-92.67-86.75-139-1.72.84-3.44,1.68-5.2,2.52C392.25,691.62,413.67,737.94,479.76,784.29Z"/><path class="cls-1" d="M519,758.83c.4.33.84.65,1.25,1,1.4-.84,2.8-1.73,4.24-2.57-.4-.32-.84-.63-1.24-1-59.25-46.36-75.06-92.67-72.1-139-1.88.85-3.76,1.73-5.69,2.57C442.85,666.16,459.14,712.48,519,758.83Z"/><path class="cls-1" d="M485.53,1000.8l3.64,1c-1.48-.84-3-1.72-4.4-2.56l-3.61-1C305.9,951.88,204,905.56,152.61,859.2c-.12.84-.2,1.72-.28,2.56C204.49,908.12,308.26,954.44,485.53,1000.8Z"/><path class="cls-1" d="M447.42,975.3l3.4,1c-1.08-.84-2.24-1.73-3.29-2.57l-3.2-1c-155.85-46.36-241.92-92.67-285.4-139-.28.84-.6,1.72-.88,2.56C202.29,882.62,289.76,929,447.42,975.3Z"/><path class="cls-1" d="M420.47,949.83l2.88,1c-.72-.84-1.4-1.69-2.12-2.53l-2.84-1C280.19,901,207.33,854.64,171,808.28l-1.48,2.56C206.53,857.16,280.67,903.51,420.47,949.83Z"/><path class="cls-1" d="M404,924.37c.88.32,1.72.65,2.56,1-.36-.84-.68-1.68-1-2.53-.88-.32-1.76-.68-2.6-1-122.39-46.32-184.2-92.68-214-139-.68.84-1.4,1.68-2.08,2.52C217.26,831.7,280.07,878,404,924.37Z"/><path class="cls-1" d="M397.61,898.91l2.28,1c-.08-.84-.16-1.72-.2-2.56-.72-.32-1.48-.64-2.24-1C288.92,850,236.6,803.67,213.1,757.35c-.92.84-1.8,1.68-2.68,2.52C234.52,806.24,287.72,852.55,397.61,898.91Z"/><path class="cls-1" d="M465.11,988.07l3.44,1-3.76-2.56-3.49-1c-165.33-46.35-258.93-92.67-306.21-139-.2.84-.4,1.72-.6,2.56C202.57,895.39,297.81,941.71,465.11,988.07Z"/><path class="cls-1" d="M432.64,962.57c1,.32,2.08.68,3.13,1-.89-.84-1.85-1.72-2.73-2.57q-1.5-.46-3-1c-146.8-46.35-226-92.67-265.82-139-.4.84-.76,1.72-1.16,2.56C203.61,869.89,284.12,916.25,432.64,962.57Z"/><path class="cls-1" d="M410.94,937.11l2.73.95c-.57-.84-1.08-1.68-1.6-2.52-.93-.32-1.85-.68-2.77-1-130-46.32-197.12-92.68-230.07-139-.6.84-1.2,1.72-1.76,2.56C211.1,844.43,279.35,890.79,410.94,937.11Z"/><path class="cls-1" d="M399.53,911.64c.85.32,1.65.64,2.53,1-.24-.84-.44-1.68-.64-2.52-.8-.32-1.61-.68-2.45-1-115.21-46.32-172.14-92.68-198.72-139-.8.84-1.6,1.68-2.36,2.52C225.07,819,282.88,865.28,399.53,911.64Z"/><path class="cls-1" d="M398,886.18l2.16,1c.09-.84.17-1.72.32-2.56l-2.16-1c-102.28-46.36-150.24-92.68-170.74-139-1,.84-2,1.73-3,2.57C245.61,793.5,294.45,839.82,398,886.18Z"/><path class="cls-1" d="M208,989.11c32,11.93,70.06,23.82,114.86,35.75H328c-48.24-12.77-88.83-25.5-122.54-38.27Z"/><path class="cls-1" d="M185.15,963.64c46.28,20.42,108.5,40.8,189.28,61.22h5.13c-84.47-21.26-149-42.52-196.37-63.78Z"/><path class="cls-1" d="M168.38,938.18c55.09,28.91,139,57.77,257.58,86.68h5.16C308.66,995.11,222.71,965.37,167,935.62,167.46,936.47,167.94,937.34,168.38,938.18Z"/><path class="cls-1" d="M157.45,912.72c59.61,37.4,163,74.75,320.07,112.14h5.16c-160.89-38.23-266.22-76.46-326-114.7C156.89,911,157.17,911.88,157.45,912.72Z"/><path class="cls-1" d="M529.4,1023.7C333.56,977.38,212.1,931,151.89,884.7c0,.84.12,1.68.2,2.52,60.73,45.88,182.15,91.76,377,137.64h4.81l-.32-.16C532.16,1024.38,530.77,1024,529.4,1023.7Z"/><path class="cls-1" d="M195.8,976.38c39.92,16.17,90.4,32.31,152.85,48.48h5.13c-66.06-17-118.9-34-160.18-51C194.32,974.7,195.08,975.54,195.8,976.38Z"/><path class="cls-1" d="M176,950.92c51.28,24.66,124.62,49.28,224.19,73.94h5.12c-103.33-25.5-178.87-51-231-76.51C174.91,949.19,175.47,950.08,176,950.92Z"/><path class="cls-1" d="M162.22,925.45c57.8,33.15,151.68,66.26,289.52,99.41h5.16c-141.68-34-237.56-68-295.77-102C161.46,923.73,161.86,924.61,162.22,925.45Z"/><path class="cls-1" d="M154.09,900c60.53,41.64,173.1,83.27,349.21,124.91h5.16C328.6,982.38,214.22,939.91,153.57,897.43,153.73,898.27,153.89,899.11,154.09,900Z"/><path class="cls-1" d="M508.83,1013.53l3.8,1c-1.64-.84-3.36-1.72-5-2.56l-3.81-1c-185.39-46.31-296.65-92.67-352.29-139,0,.84,0,1.68-.08,2.52C208.05,920.85,321.23,967.17,508.83,1013.53Z"/><path class="cls-1" d="M237,1014.57c10.89,3.44,22.26,6.84,34.27,10.29h5.16q-22.64-6.43-42.59-12.81C234.92,1012.89,236,1013.73,237,1014.57Z"/><path class="cls-1" d="M250.53,1024.86h.12s-.12,0-.2-.08Z"/><path class="cls-1" d="M221.75,1001.84q33.56,11.53,75.34,23h5.16c-31.18-8.53-58.85-17-83.31-25.54C219.82,1000.16,220.78,1001,221.75,1001.84Z"/><path class="cls-1" d="M1024.86,76.38C1012.13,50.92,989.47,25.46,935.66,0h-5.12c58.29,26.94,81.51,53.88,94.32,80.83Z"/><path class="cls-1" d="M1024.86,32.23c-8.65-10.75-20.58-21.48-37.64-32.23H982c20.1,12.23,33.47,24.44,42.84,36.67Z"/><path class="cls-1" d="M1024.86,54.33C1013.49,36.21,995.15,18.12,961.44,0h-5.2c37.47,19.58,56.93,39.15,68.62,58.73Z"/><path class="cls-1" d="M1024.86,10.17A141.79,141.79,0,0,0,1013,0h-5.21a140.32,140.32,0,0,1,17.06,14.57Z"/><path class="cls-1" d="M1006.2,221.51c-14.09-46.34-30-92.7-106.17-139,.32.86.73,1.7,1.05,2.56,74.86,46.34,90.55,92.66,104.56,139l.24,1c.24-.86.4-1.7.56-2.56Z"/><path class="cls-1" d="M1011.17,196c-15.06-46.33-33.31-92.65-123.95-139,.4.84.88,1.68,1.36,2.52,89.2,46.34,107.21,92.7,122.11,139l.24,1,.48-2.53Z"/><path class="cls-1" d="M1015.25,170.54c-15.77-46.34-36.83-92.65-144.84-139,.64.84,1.2,1.68,1.84,2.52,106.09,46.34,126.9,92.7,142.6,139a4.51,4.51,0,0,1,.32,1c.16-.86.24-1.71.4-2.57A4.51,4.51,0,0,0,1015.25,170.54Z"/><path class="cls-1" d="M1019.41,145.08C1003,98.74,978.5,52.38,850.07,6.05l2.16,2.56C978.5,55,1002.6,101.3,1019,147.64l.24,1,.48-2.56C1019.65,145.72,1019.49,145.4,1019.41,145.08Z"/><path class="cls-1" d="M1024.22,123.14c.24-.84.4-1.68.64-2.52v-.06a4.75,4.75,0,0,1-.32-.94C1010.53,79.75,986.67,39.87,884.1,0H879c106.4,40.71,130.59,81.43,145,122.14Z"/><path class="cls-1" d="M1008.76,208.73c-14.49-46.33-31.54-92.65-114.65-139,.48.86.8,1.7,1.28,2.56,81.67,46.34,98.48,92.66,112.89,139a4,4,0,0,1,.32,1l.48-2.52A4.53,4.53,0,0,0,1008.76,208.73Z"/><path class="cls-1" d="M1013.25,183.27c-15.37-46.34-35-92.65-134-139,.55.84,1.2,1.68,1.68,2.52,97.28,46.34,116.57,92.7,132,139l.24,1,.48-2.53C1013.49,183.93,1013.33,183.61,1013.25,183.27Z"/><path class="cls-1" d="M1017.33,157.81c-16.17-46.34-38.91-92.66-156.69-139,.64.84,1.36,1.68,2,2.52,115.78,46.34,138.2,92.7,154.21,139a4.41,4.41,0,0,1,.32,1c.16-.87.32-1.71.4-2.57Z"/><path class="cls-1" d="M1021.57,135.87c.16-.86.41-1.7.57-2.56a4,4,0,0,1-.32-1C1006.12,88.23,981.06,44.12,858.32,0h-5.13c126.91,45,152.13,89.92,168.06,134.87A4.3,4.3,0,0,1,1021.57,135.87Z"/><path class="cls-1" d="M1024.86,98.48c-13.37-32.83-37.79-65.65-115-98.48h-5.12c82.15,34.29,106.65,68.6,120.1,102.89Z"/><path class="cls-1" d="M944.47,348.85c-6.48-46.34-11.37-92.7-43.39-139-.32.86-.73,1.7-1.13,2.56,31.47,46.34,36,92.66,42.28,139,0,.34.08.66.08,1,.72-.86,1.52-1.7,2.24-2.56C944.55,349.49,944.47,349.17,944.47,348.85Z"/><path class="cls-1" d="M964.25,323.39c-8.49-46.34-16.1-92.7-54.45-139-.24.87-.48,1.71-.72,2.57,37.71,46.34,45.08,92.65,53.4,139a3.57,3.57,0,0,1,.16,1c.64-.84,1.21-1.68,1.77-2.52C964.33,324,964.33,323.71,964.25,323.39Z"/><path class="cls-1" d="M979.62,297.89c-10.33-46.34-20.26-92.66-65.89-139,0,.84-.09,1.68-.16,2.53,44.83,46.33,54.52,92.69,64.69,139l.24,1c.4-.84.88-1.68,1.28-2.52C979.7,298.55,979.7,298.23,979.62,297.89Z"/><path class="cls-1" d="M991.15,272.43c-11.77-46.34-23.7-92.66-77.74-139,.07.84.16,1.68.23,2.52,53.09,46.34,64.86,92.7,76.55,139l.24,1,1-2.56Z"/><path class="cls-1" d="M999.8,247c-13-46.34-26.91-92.7-91-139,.24.86.48,1.7.64,2.56,63,46.34,76.71,92.7,89.68,139,.07.32.16.64.24,1l.72-2.56Z"/><path class="cls-1" d="M955,336.12c-7.53-46.34-13.77-92.7-48.92-139-.32.86-.56,1.7-.88,2.56,34.51,46.34,40.51,92.65,47.8,139,.08.34.08.66.16,1,.64-.86,1.36-1.7,2-2.56A4,4,0,0,1,955,336.12Z"/><path class="cls-1" d="M972.41,310.62c-9.45-46.34-18.17-92.66-60.13-139a25.37,25.37,0,0,1-.4,2.57c41.16,46.33,49.72,92.65,59,139,.08.32.08.64.16,1,.56-.84,1-1.68,1.61-2.52C972.57,311.28,972.5,311,972.41,310.62Z"/><path class="cls-1" d="M985.79,285.16c-11.13-46.34-22-92.66-71.67-139v2.52c48.84,46.34,59.58,92.7,70.54,139l.24,1c.32-.84.73-1.68,1.12-2.52C986,285.82,985.86,285.5,985.79,285.16Z"/><path class="cls-1" d="M995.79,259.7c-12.49-46.34-25.38-92.7-84.15-139,.08.86.24,1.7.4,2.56,57.81,46.34,70.54,92.7,82.87,139l.24,1c.32-.86.64-1.7.88-2.56Z"/><path class="cls-1" d="M1003.24,234.24c-13.61-46.34-28.51-92.7-98.32-139,.32.86.56,1.7.88,2.56,68.61,46.34,83.27,92.66,96.8,139l.24,1c.24-.86.4-1.7.64-2.56Z"/><path class="cls-1" d="M762.72,476.2c5.52-46.34,18.57-92.7,13.45-139-1.28.86-2.64,1.7-4,2.56,4.65,46.34-8.8,92.66-14.49,139,0,.34-.07.66-.07,1l5-2.56C762.64,476.84,762.72,476.52,762.72,476.2Z"/><path class="cls-1" d="M810.28,450.74c3.44-46.34,12.89-92.7,2.72-139-1.12.86-2.24,1.7-3.44,2.56,9.6,46.34-.16,92.66-3.76,139-.09.34-.09.66-.17,1l4.57-2.56A3.89,3.89,0,0,1,810.28,450.74Z"/><path class="cls-1" d="M852.47,425.23c1-46.33,6.57-92.65-8.73-139-1,.86-1.84,1.7-2.8,2.56,14.73,46.34,8.81,92.66,7.53,139v1c1.28-.84,2.64-1.68,4-2.52Z"/><path class="cls-1" d="M888.9,399.77c-1.52-46.33.25-92.65-20.42-139-.71.84-1.52,1.68-2.23,2.52,20.17,46.34,18,92.7,19.29,139v1c1.12-.86,2.25-1.7,3.36-2.56Z"/><path class="cls-1" d="M919.49,374.31c-4.08-46.34-5.76-92.69-32-139l-1.68,2.56c25.62,46.34,27,92.7,30.83,139v1c1-.86,1.92-1.71,2.88-2.57A3.89,3.89,0,0,1,919.49,374.31Z"/><path class="cls-1" d="M787.14,463.47c4.48-46.34,15.77-92.7,8.17-139-1.21.86-2.49,1.7-3.69,2.56,7.13,46.34-4.56,92.66-9.28,139a3.77,3.77,0,0,1-.09,1l4.81-2.56A3.89,3.89,0,0,1,787.14,463.47Z"/><path class="cls-1" d="M832.06,438c2.24-46.34,9.77-92.7-2.88-139l-3.13,2.56c12.17,46.34,4.24,92.66,1.76,139,0,.34-.08.66-.08,1l4.33-2.56Z"/><path class="cls-1" d="M871.45,412.51c-.32-46.34,3.36-92.66-14.65-139-.8.84-1.61,1.68-2.4,2.52,17.45,46.34,13.37,92.7,13.37,139v1l3.6-2.52A4.22,4.22,0,0,1,871.45,412.51Z"/><path class="cls-1" d="M904.92,387c-2.8-46.33-2.8-92.65-26.26-139-.57.84-1.29,1.68-1.93,2.52,22.82,46.34,22.5,92.7,25.06,139,0,.32.08.64.08,1,1-.86,2.09-1.7,3-2.57Z"/><path class="cls-1" d="M932.62,361.58c-5.28-46.34-8.57-92.7-37.71-139-.4.86-.88,1.7-1.36,2.56,28.5,46.34,31.54,92.7,36.51,139a4,4,0,0,1,.08,1c.88-.87,1.76-1.71,2.56-2.57A3.89,3.89,0,0,0,932.62,361.58Z"/><path class="cls-1" d="M473.84,606.11a7.71,7.71,0,0,0,0,1c1.84-.84,3.76-1.72,5.68-2.56a7.77,7.77,0,0,0,.08-1c4.45-46.32,26.1-92.66,37.87-139l-5.92,2.52C499.66,513.41,478.08,559.75,473.84,606.11Z"/><path class="cls-1" d="M532,580.65c-.07.32-.12.64-.16,1,2-.84,4-1.73,5.89-2.57.08-.32.08-.63.16-.95,6.49-46.34,28.34-92.71,38.35-139-1.92.86-3.84,1.7-5.84,2.56C560.23,488,538.37,534.29,532,580.65Z"/><path class="cls-1" d="M596.74,552.62c7.61-46.34,28.58-92.7,35.87-139l-5.52,2.56c-7.53,46.34-28.75,92.7-36.28,139a3.57,3.57,0,0,1-.16,1c2-.85,4-1.73,6-2.57A3.89,3.89,0,0,1,596.74,552.62Z"/><path class="cls-1" d="M654.79,527.16c7.76-46.34,26.82-92.7,30.59-139l-5,2.53c-4.08,46.34-23.46,92.69-31.23,139a4.55,4.55,0,0,1-.24,1c2-.86,3.85-1.7,5.77-2.56C654.71,527.8,654.71,527.48,654.79,527.16Z"/><path class="cls-1" d="M710.6,501.66c7-46.34,23.29-92.66,22.89-139l-4.56,2.53c0,46.34-16.74,92.69-23.86,139a4,4,0,0,1-.16,1c1.92-.84,3.68-1.68,5.53-2.52C710.51,502.32,710.51,502,710.6,501.66Z"/><path class="cls-1" d="M502.74,593.38c0,.32-.08.64-.08,1,1.92-.84,3.88-1.72,5.8-2.57a6.23,6.23,0,0,0,.09-1c5.64-46.35,27.58-92.69,38.55-139l-5.93,2.56C530,500.68,508.14,547,502.74,593.38Z"/><path class="cls-1" d="M561.43,567.91c-.08.32-.08.64-.16,1,1.92-.85,3.92-1.72,5.92-2.56,0-.33.09-.65.09-1,7.2-46.34,28.82-92.69,37.47-139-1.85.86-3.77,1.7-5.61,2.56C590.09,475.22,568.48,521.57,561.43,567.91Z"/><path class="cls-1" d="M626,539.89c7.77-46.33,27.95-92.7,33.55-139-1.76.86-3.52,1.7-5.36,2.56-5.93,46.34-26.26,92.66-33.95,139l-.24,1c2-.84,3.92-1.73,5.84-2.57A4,4,0,0,0,626,539.89Z"/><path class="cls-1" d="M683.05,514.43c7.45-46.34,25.3-92.7,27-139l-4.8,2.53c-2.08,46.33-20.26,92.69-27.78,139a4,4,0,0,1-.16,1c1.92-.84,3.76-1.68,5.6-2.52A4,4,0,0,1,683.05,514.43Z"/><path class="cls-1" d="M737.18,488.93c6.32-46.34,21.13-92.66,18.33-139-1.44.84-2.8,1.68-4.24,2.53,2.32,46.33-12.89,92.69-19.38,139-.08.32-.08.64-.16,1l5.29-2.52C737.1,489.59,737.1,489.27,737.18,488.93Z"/><path class="cls-1" d="M239.84,733.45l.36,1c1.12-.84,2.2-1.72,3.32-2.56l-.36-1c-17.49-46.32-10.17-92.67-3.48-139-1.56.84-3.08,1.68-4.6,2.52C228.63,640.78,221.79,687.09,239.84,733.45Z"/><path class="cls-1" d="M276,708c.08.32.16.68.24,1,1.28-.84,2.6-1.72,3.92-2.56l-.24-1c-11.93-46.36-.52-92.68,8.81-139-1.72.84-3.48,1.73-5.16,2.57C274.55,615.28,263.54,661.63,276,708Z"/><path class="cls-1" d="M318.15,682.49a8.42,8.42,0,0,0,.08,1l4.6-2.56a8.19,8.19,0,0,1-.2-1c-6.85-46.36,8.29-92.68,19.58-139-1.85.84-3.73,1.72-5.57,2.56C325.59,589.81,310.78,636.17,318.15,682.49Z"/><path class="cls-1" d="M365.79,657c0,.32,0,.64.08,1l5-2.52v-1c-2.32-46.32,15.85-92.68,28.18-139L393.25,518C381,564.35,363,610.71,365.79,657Z"/><path class="cls-1" d="M418,631.57v1c1.8-.84,3.6-1.72,5.4-2.56,0-.32.05-.64.05-1,1.48-46.32,21.89-92.68,34.46-139-2,.86-3.92,1.7-5.92,2.56C439.41,538.89,419.15,585.25,418,631.57Z"/><path class="cls-1" d="M257.14,720.73a9.65,9.65,0,0,0,.32.95l3.64-2.56a9,9,0,0,0-.32-1c-14.65-46.36-5.25-92.68,2.84-139-1.64.84-3.28,1.71-4.88,2.56C250.89,628.05,241.92,674.36,257.14,720.73Z"/><path class="cls-1" d="M296.37,695.22a8.66,8.66,0,0,1,.16,1c1.4-.84,2.8-1.72,4.2-2.56-.08-.32-.12-.64-.2-1-9.29-46.36,4.05-92.68,14.45-139-1.8.84-3.6,1.72-5.32,2.56C299.49,602.54,286.52,648.9,296.37,695.22Z"/><path class="cls-1" d="M341.29,669.76c0,.32.12.64.16,1l4.76-2.52c0-.32,0-.68-.08-1-4.48-46.32,12.25-92.68,24.14-139-1.92.86-3.8,1.7-5.69,2.57C352.78,577.08,336.32,623.44,341.29,669.76Z"/><path class="cls-1" d="M391.41,644.3v1l5.2-2.52c0-.32,0-.68,0-1-.32-46.32,19.1-92.68,31.71-139-2,.86-4,1.7-5.93,2.56C409.86,551.62,390.69,598,391.41,644.3Z"/><path class="cls-1" d="M445.57,618.84a7.77,7.77,0,0,1-.08,1c1.93-.84,3.81-1.72,5.69-2.57a7.53,7.53,0,0,0,0-1c3.08-46.32,24.26-92.66,36.59-139l-6,2.56C469.39,526.18,448.33,572.52,445.57,618.84Z"/><path class="cls-1" d="M151.17,860.8c.36.32.76.64,1.16,1,.08-.84.16-1.72.28-2.56l-1.08-1C99.6,811.92,87,765.56,78,719.24c-.65.84-1.29,1.68-1.89,2.52C85.39,768.12,98.36,814.44,151.17,860.8Z"/><path class="cls-1" d="M157.09,835.34c.36.32.64.64,1,1,.28-.84.6-1.72.88-2.56-.32-.32-.6-.64-.92-1-43.67-46.36-52.8-92.68-58.81-139-.8.84-1.56,1.72-2.32,2.56C103.17,742.66,112.65,789,157.09,835.34Z"/><path class="cls-1" d="M168.74,809.84l.76,1,1.48-2.56c-.24-.32-.52-.64-.8-1-36.35-46.32-41.67-92.68-44.51-139-1,.84-1.93,1.68-2.85,2.52C126,717.16,131.67,763.52,168.74,809.84Z"/><path class="cls-1" d="M186.24,784.38c.24.32.44.64.64,1,.68-.84,1.4-1.68,2.08-2.52-.2-.32-.4-.64-.64-1-29.63-46.36-30.91-92.68-30.43-139-1.16.84-2.32,1.72-3.48,2.56C154.29,691.7,156,738.06,186.24,784.38Z"/><path class="cls-1" d="M209.9,758.92c.16.32.32.63.52,1,.88-.84,1.76-1.68,2.68-2.52-.16-.32-.32-.68-.48-1-23.38-46.32-20.38-92.67-16.7-139-1.36.84-2.72,1.68-4,2.52C188.48,666.24,185.92,712.55,209.9,758.92Z"/><path class="cls-1" d="M153.45,848.07c.36.32.68.64,1,1,.2-.84.4-1.72.6-2.56-.36-.32-.68-.64-1-1-47.68-46.32-58.57-92.68-66.1-139-.68.84-1.36,1.68-2.08,2.52C93.68,755.39,104.93,801.71,153.45,848.07Z"/><path class="cls-1" d="M162.22,822.57c.28.32.56.68.84,1,.4-.84.76-1.72,1.16-2.56l-.84-1c-39.92-46.32-47.16-92.68-51.61-139-.92.84-1.76,1.68-2.64,2.52C113.9,729.89,121.54,776.25,162.22,822.57Z"/><path class="cls-1" d="M176.71,797.11c.28.32.52.68.76,1,.56-.84,1.16-1.72,1.76-2.56l-.72-1c-32.95-46.31-36.27-92.67-37.47-139-1,.84-2.12,1.68-3.16,2.52C139.4,704.43,143.12,750.79,176.71,797.11Z"/><path class="cls-1" d="M197.29,771.64l.6,1c.76-.84,1.56-1.68,2.36-2.52-.2-.33-.36-.68-.56-1-26.43-46.31-25.58-92.67-23.5-139-1.24.84-2.52,1.68-3.77,2.52C170.62,679,170.22,725.29,197.29,771.64Z"/><path class="cls-1" d="M224.07,746.18c.16.33.28.65.44,1,1-.84,2-1.73,3-2.57l-.48-1c-20.38-46.32-15.21-92.68-10-139l-4.32,2.52C207.81,653.51,203.09,699.83,224.07,746.18Z"/><path class="cls-1" d="M205.41,988.15l2.6,1-2.52-2.52c-.88-.32-1.76-.69-2.6-1-120.78-46.32-153.81-92.68-174.47-139-.12.84-.24,1.68-.4,2.52C48.88,895.47,82.51,941.79,205.41,988.15Z"/><path class="cls-1" d="M183,962.69l2.16.95-2-2.56-2.16-1C79.15,913.8,51.6,867.45,33.15,821.13c-.16.84-.36,1.68-.52,2.52C51.28,870,79.31,916.33,183,962.69Z"/><path class="cls-1" d="M166.54,937.22l1.84,1c-.44-.84-.92-1.71-1.36-2.56l-1.8-1c-86-46.36-109.13-92.67-125.43-139-.24.84-.52,1.72-.76,2.56C55.53,844.55,79.07,890.86,166.54,937.22Z"/><path class="cls-1" d="M155.85,911.72c.52.32,1,.68,1.6,1-.28-.84-.56-1.72-.8-2.56-.52-.32-1-.64-1.52-1-72.7-46.36-92.08-92.68-106.13-139-.36.84-.72,1.73-1,2.57C62.25,819.05,82,865.41,155.85,911.72Z"/><path class="cls-1" d="M150.77,886.26l1.32,1c-.08-.84-.16-1.68-.2-2.52-.44-.32-.88-.68-1.32-1C89.11,837.38,73.14,791,61.49,744.7c-.48.84-1,1.68-1.4,2.52C72,793.58,88.27,839.9,150.77,886.26Z"/><path class="cls-1" d="M193.44,975.41l2.36,1c-.72-.84-1.48-1.68-2.2-2.52-.8-.33-1.64-.68-2.4-1-110.93-46.31-141.08-92.67-160.61-139-.16.84-.32,1.68-.44,2.52C49.88,882.74,80.55,929.06,193.44,975.41Z"/><path class="cls-1" d="M174,950c.64.32,1.32.64,2,1-.56-.84-1.12-1.73-1.68-2.57-.64-.32-1.29-.64-2-1C78.79,901,53.56,854.71,36.19,808.36c-.2.84-.44,1.72-.64,2.56C53.12,857.28,78.79,903.6,174,950Z"/><path class="cls-1" d="M160.45,924.45c.6.32,1.17.68,1.77,1-.36-.84-.76-1.72-1.09-2.56l-1.68-1c-79-46.36-100.2-92.68-115.41-139-.32.84-.6,1.71-.92,2.56C58.53,831.77,80.11,878.13,160.45,924.45Z"/><path class="cls-1" d="M152.61,899c.48.32,1,.64,1.48,1-.2-.84-.36-1.68-.52-2.52-.44-.32-.92-.64-1.4-1-66.82-46.36-84.51-92.68-97.36-139-.44.84-.84,1.72-1.25,2.56C66.66,806.31,84.71,852.67,152.61,899Z"/><path class="cls-1" d="M150.29,873.53l1.2,1c0-.84,0-1.68.08-2.52-.4-.32-.8-.68-1.24-1-56.49-46.32-70.82-92.68-81.15-139-.52.84-1.08,1.68-1.6,2.53C78.19,780.86,92.84,827.17,150.29,873.53Z"/><path class="cls-1" d="M5,976.5c11.77,16.13,29.83,32.22,60.13,48.36h5.17c-32.79-17-51.92-33.95-64.25-50.93C5.68,974.77,5.32,975.66,5,976.5Z"/><path class="cls-1" d="M13.45,951c16.62,24.63,44.72,49.25,103.21,73.87h5.12C60.13,999.4,31.07,973.93,14.09,948.47,13.89,949.31,13.69,950.15,13.45,951Z"/><path class="cls-1" d="M18.42,925.53c20.29,33.11,56.72,66.22,149.76,99.33h5.17C76.54,990.91,39.39,957,18.82,923,18.7,923.85,18.58,924.69,18.42,925.53Z"/><path class="cls-1" d="M21.74,900.08c23,41.59,65.33,83.18,198,124.78h5.17C88,982.42,45.28,940,22,897.51,21.94,898.35,21.82,899.23,21.74,900.08Z"/><path class="cls-1" d="M234,1013.61l3.08,1c-1-.84-2.12-1.68-3.16-2.52l-3-1c-143.08-46.36-183-92.68-206-139-.08.84-.2,1.72-.28,2.56C47.8,920.93,88.55,967.29,234,1013.61Z"/><path class="cls-1" d="M9.81,963.73c14.33,20.38,37.55,40.75,81.07,61.13H96c-46.32-21.22-70.58-42.44-85.39-63.65C10.37,962.05,10.09,962.89,9.81,963.73Z"/><path class="cls-1" d="M16.25,938.27c18.58,28.86,51.13,57.72,126.19,86.59h5.12c-78.5-29.71-111.89-59.41-130.83-89.12Z"/><path class="cls-1" d="M20.22,912.8C42,950.15,81.63,987.51,194,1024.86h5.17C82.79,986.67,42.52,948.43,20.5,910.24,20.42,911.08,20.3,912,20.22,912.8Z"/><path class="cls-1" d="M247.17,1023.82C91.68,977.46,47.6,931.14,23.46,884.78c-.08.84-.16,1.72-.28,2.56,24.1,45.84,68.38,91.68,222.35,137.52h5l-.08-.08Z"/><path class="cls-1" d="M218.94,1000.88l2.81,1c-1-.84-1.93-1.68-2.81-2.52l-2.8-1C84.63,952,48.36,905.68,26.58,859.32c-.12.84-.24,1.72-.36,2.56C48.24,908.2,85.23,954.56,218.94,1000.88Z"/><path class="cls-1" d="M0,1013.25a145.22,145.22,0,0,0,13.53,11.61H18.7a141.19,141.19,0,0,1-18.7-16Z"/><path class="cls-1" d="M0,991.19c8.89,11.21,21.26,22.46,39.31,33.67h5.17C23.34,1012.17,9.53,999.48,0,986.79Z"/><path class="cls-1" d="M901.08,85c-.32-.86-.73-1.7-1.05-2.56l-1.68-1C852.79,54.35,783,27.16,677.85,0h-5.13c109,28,180.56,56,226.75,84C900,84.37,900.51,84.69,901.08,85Z"/><path class="cls-1" d="M888.58,59.53c-.48-.84-1-1.68-1.36-2.52-.64-.32-1.36-.64-1.92-1-37.39-18.68-88-37.37-155.89-56h-5.12c71.42,19.52,124,39.05,162.45,58.57C887.3,58.89,887.94,59.21,888.58,59.53Z"/><path class="cls-1" d="M872.25,34.07c-.64-.84-1.2-1.68-1.84-2.52-.8-.34-1.6-.66-2.32-1C843.74,20.36,815,10.19,781,0h-5.12c37.23,11,68.3,22.08,94.16,33.11C870.73,33.43,871.45,33.75,872.25,34.07Z"/><path class="cls-1" d="M852.23,8.61l-2.16-2.56c-.88-.33-1.84-.65-2.72-1-4.81-1.7-9.77-3.38-14.81-5.08h-5.13c7.69,2.54,15.06,5.1,22.18,7.65Z"/><path class="cls-1" d="M895.39,72.3c-.48-.86-.8-1.7-1.28-2.56-.56-.32-1.2-.64-1.76-1C850.31,45.86,789.78,22.92,703.63,0h-5.12c89.83,23.76,152.28,47.54,195.12,71.3C894.19,71.64,894.75,72,895.39,72.3Z"/><path class="cls-1" d="M880.9,46.8c-.56-.84-1.13-1.68-1.68-2.52-.65-.34-1.36-.66-2.09-1C845.59,28.84,805.63,14.43,755.19,0h-5.12c53.88,15.27,96,30.57,128.75,45.84C879.54,46.16,880.26,46.48,880.9,46.8Z"/><path class="cls-1" d="M862.64,21.34c-.64-.84-1.36-1.68-2-2.52l-2.56-1Q835,8.9,806.76,0h-5.13c21.78,6.79,41.23,13.59,58.53,20.38C861,20.7,861.84,21,862.64,21.34Z"/><path class="cls-1" d="M900.43,208.85c-32.42-46.33-95.83-92.69-231.95-139,.8.86,1.68,1.7,2.48,2.56,134.27,46.34,196.49,92.7,228.35,139a6.67,6.67,0,0,1,.64,1c.4-.86.81-1.7,1.13-2.56C900.83,209.5,900.67,209.18,900.43,208.85Z"/><path class="cls-1" d="M908.92,183.39c-38.67-46.34-114.5-92.69-270.22-139,1.2.86,2.32,1.7,3.44,2.56,153.65,46.34,228.11,92.66,266.14,139a8.76,8.76,0,0,1,.8,1c.24-.86.48-1.7.72-2.57A9.59,9.59,0,0,1,908.92,183.39Z"/><path class="cls-1" d="M912.76,157.89C867.21,111.55,776,65.23,598.34,18.9c1.6.86,3,1.7,4.56,2.56,175.43,46.34,264.87,92.66,309.7,139l1,1c.07-.85.16-1.69.16-2.53C913.41,158.55,913.08,158.23,912.76,157.89Z"/><path class="cls-1" d="M913.64,136c-.07-.84-.16-1.68-.23-2.52-.41-.34-.81-.66-1.2-1C860.88,88.29,759.51,44.14,574.8,0h-5.2C758.39,45,861.12,90,912.44,135Z"/><path class="cls-1" d="M909.4,110.49c-.16-.86-.4-1.7-.64-2.56-.48-.32-.88-.64-1.36-1-49.88-35.65-136.51-71.32-281-107h-5.2C769.68,36.51,857.84,73,908,109.53,908.52,109.85,909,110.17,909.4,110.49Z"/><path class="cls-1" d="M905.24,196.12c-35.47-46.33-104.73-92.69-250.37-139,1,.86,2,1.7,3,2.56,143.64,46.34,211.7,92.7,246.61,139l.72,1c.32-.86.56-1.7.88-2.56A7.75,7.75,0,0,0,905.24,196.12Z"/><path class="cls-1" d="M911.48,170.66c-42-46.34-125.14-92.69-291.6-139,1.36.86,2.72,1.7,4,2.56C788.1,80.53,869.69,126.85,911,173.18a11.13,11.13,0,0,1,.88,1,25.37,25.37,0,0,0,.4-2.57C912,171.3,911.72,171,911.48,170.66Z"/><path class="cls-1" d="M913,145.16C863.68,98.82,763.52,52.5,574.08,6.17l5,2.52c187,46.34,285.35,92.69,334,139,.33.32.65.64,1,1v-2.52C913.73,145.82,913.41,145.5,913,145.16Z"/><path class="cls-1" d="M912,123.22c-.16-.86-.32-1.7-.4-2.56-.48-.32-.88-.64-1.36-1C859.36,79.81,765.2,39.89,600.58,0h-5.2c168.7,40.75,264.3,81.51,315.38,122.26C911.24,122.58,911.64,122.9,912,123.22Z"/><path class="cls-1" d="M905.8,97.76c-.32-.86-.56-1.7-.88-2.56-.48-.32-1-.64-1.52-1C855.28,62.83,776.73,31.41,652.07,0h-5.13C775.61,32.27,855.76,64.53,904.35,96.8Z"/><path class="cls-1" d="M776.09,336.2c-5.36-46.34-28.67-92.66-97.76-139-.72.84-1.36,1.68-2,2.52,68.3,46.34,90.88,92.69,95.77,139,0,.32.07.64.07,1,1.37-.86,2.73-1.7,4-2.56C776.17,336.84,776.09,336.52,776.09,336.2Z"/><path class="cls-1" d="M812.76,310.74c-10.41-46.34-40.11-92.7-119.3-139-.32.86-.72,1.71-1.12,2.57C770.48,220.6,799.47,267,809.4,313.3a4,4,0,0,0,.16,1c1.2-.86,2.32-1.7,3.44-2.56Z"/><path class="cls-1" d="M843.43,285.28c-15.7-46.34-52.37-92.7-142.92-139a24.86,24.86,0,0,0-.32,2.56c89.35,46.34,125.3,92.66,140.44,139a4.79,4.79,0,0,1,.31,1c1-.86,1.85-1.7,2.8-2.56C843.67,285.92,843.51,285.6,843.43,285.28Z"/><path class="cls-1" d="M868.09,259.78c-21.14-46.34-65.5-92.66-169.19-139l.48,2.52c102.41,46.34,145.89,92.7,166.46,139,.16.32.25.64.41,1,.71-.84,1.52-1.68,2.23-2.52A5.9,5.9,0,0,1,868.09,259.78Z"/><path class="cls-1" d="M887,234.32c-26.66-46.34-79.74-92.66-198.56-139l1.44,2.52c117.22,46.34,169.34,92.7,195.44,139,.16.32.4.64.56,1l1.68-2.56A6,6,0,0,1,887,234.32Z"/><path class="cls-1" d="M795.15,323.47c-7.85-46.34-34.28-92.7-108.25-139-.57.87-1,1.71-1.61,2.57,73.1,46.34,98.81,92.69,106.17,139,.08.32.08.64.16,1,1.2-.86,2.48-1.7,3.69-2.56A4.59,4.59,0,0,0,795.15,323.47Z"/><path class="cls-1" d="M828.86,298c-13-46.34-46.12-92.7-130.84-139-.24.86-.48,1.7-.72,2.57,83.51,46.33,115.94,92.65,128.43,139,.08.34.24.66.32,1l3.13-2.56C829.09,298.65,828.93,298.33,828.86,298Z"/><path class="cls-1" d="M856.48,272.55c-18.34-46.34-58.77-92.7-155.65-139,0,.86.08,1.7.08,2.56,95.6,46.34,135.23,92.66,153.08,139a5.65,5.65,0,0,0,.41,1c.79-.84,1.6-1.68,2.4-2.52A4.51,4.51,0,0,0,856.48,272.55Z"/><path class="cls-1" d="M878.18,247.05c-23.87-46.34-72.38-92.66-183.44-139,.4.84.72,1.68,1,2.52,109.53,46.34,157.17,92.7,180.47,139l.48,1c.64-.84,1.36-1.68,1.93-2.52Z"/><path class="cls-1" d="M894.35,221.59c-29.55-46.34-87.52-92.66-214.66-139l1.92,2.52c125.47,46.34,182.47,92.7,211.38,139,.16.32.4.64.56,1,.48-.86,1-1.7,1.36-2.56C894.75,222.23,894.51,221.91,894.35,221.59Z"/><path class="cls-1" d="M511.83,466.11l-.24,1,5.92-2.52c.08-.34.2-.66.29-1,11.64-46.34,13-92.66-22.71-139l-5,2.52C525.36,373.41,523.6,419.77,511.83,466.11Z"/><path class="cls-1" d="M570.64,440.65l-.24,1c2-.86,3.92-1.7,5.84-2.56a4,4,0,0,0,.16-1c9.85-46.34,7.61-92.66-32.82-139L539,301.61C578.88,348,580.73,394.31,570.64,440.65Z"/><path class="cls-1" d="M632.69,412.62c7.21-46.33.56-92.69-45.56-139l-4.08,2.56c45.47,46.34,51.64,92.66,44.2,139-.09.34-.09.66-.16,1l5.52-2.56A4,4,0,0,0,632.69,412.62Z"/><path class="cls-1" d="M685.45,387.16c3.52-46.33-8.08-92.69-60.85-139-1.2.86-2.32,1.7-3.52,2.56,52.12,46.34,63.25,92.66,59.33,139,0,.32-.08.64-.08,1l5-2.53A4.44,4.44,0,0,1,685.45,387.16Z"/><path class="cls-1" d="M733.49,361.66c-.63-46.34-17.85-92.65-78.3-139-1,.84-1.84,1.68-2.8,2.52,59.73,46.34,76.3,92.7,76.54,139v1l4.56-2.53Z"/><path class="cls-1" d="M541.41,453.38l-.24,1,5.93-2.56.24-1c10.89-46.34,10.57-92.66-27.43-139-1.59.84-3.24,1.68-4.88,2.52C552.54,360.68,552.46,407,541.41,453.38Z"/><path class="cls-1" d="M599.3,427.92a4,4,0,0,0-.16,1c1.84-.86,3.76-1.7,5.61-2.56l.24-1c8.56-46.34,4.24-92.7-38.92-139-1.44.86-2.88,1.7-4.4,2.56C604.26,335.22,608.19,381.58,599.3,427.92Z"/><path class="cls-1" d="M659.59,399.89c5.45-46.33-3.6-92.69-53-139-1.2.86-2.49,1.7-3.69,2.56,48.68,46.34,57.17,92.66,51.41,139a4.34,4.34,0,0,1-.16,1c1.84-.86,3.6-1.7,5.36-2.56C659.51,400.54,659.59,400.22,659.59,399.89Z"/><path class="cls-1" d="M710.12,374.39c1.52-46.34-12.9-92.65-69.34-139L637.65,238c55.73,46.34,69.58,92.66,67.66,139,0,.32-.08.64-.08,1l4.8-2.53A3.77,3.77,0,0,0,710.12,374.39Z"/><path class="cls-1" d="M755.51,348.93c-3-46.34-23.14-92.66-87.83-139-.8.84-1.6,1.68-2.32,2.52,63.81,46.34,83.35,92.7,85.83,139,0,.32.08.64.08,1,1.44-.85,2.8-1.69,4.24-2.53Z"/><path class="cls-1" d="M235.2,593.46l-.12,1c1.52-.84,3-1.68,4.6-2.52,0-.32.12-.68.16-1,6.53-46.32,13-92.66-12-139-1.68.86-3.32,1.7-5,2.56C247.81,500.8,241.44,547.14,235.2,593.46Z"/><path class="cls-1" d="M283.76,568a8,8,0,0,1-.16,1c1.68-.84,3.44-1.73,5.16-2.57l.12-1c9.13-46.34,16.22-92.65-9.45-139L274.19,429C299.73,475.3,292.64,521.66,283.76,568Z"/><path class="cls-1" d="M336.88,542.54l-.24,1c1.84-.84,3.72-1.72,5.57-2.56.08-.32.12-.64.2-1,11-46.34,18.09-92.7-8.85-139-1.88.86-3.68,1.7-5.53,2.56C354.82,449.83,347.77,496.2,336.88,542.54Z"/><path class="cls-1" d="M393.45,517.07a8.19,8.19,0,0,0-.2,1l5.76-2.56a8.69,8.69,0,0,0,.28-1c12.21-46.34,18.3-92.69-10.72-139-1.85.87-3.69,1.71-5.53,2.57C411.78,424.38,405.58,470.73,393.45,517.07Z"/><path class="cls-1" d="M452.3,491.57a9.34,9.34,0,0,0-.28,1c2-.86,4-1.7,5.92-2.56a8.69,8.69,0,0,0,.28-1c12.45-46.34,16.66-92.7-15.25-139-1.76.86-3.6,1.7-5.4,2.57C469.15,398.91,464.75,445.23,452.3,491.57Z"/><path class="cls-1" d="M258.86,580.73c0,.32-.08.63-.12,1,1.6-.85,3.24-1.72,4.88-2.56a7.85,7.85,0,0,1,.16-1c7.89-46.34,14.73-92.65-10.49-139l-5.16,2.52C273.31,488,266.5,534.37,258.86,580.73Z"/><path class="cls-1" d="M309.82,555.26a7.85,7.85,0,0,0-.16,1c1.72-.84,3.52-1.72,5.32-2.56a7.94,7.94,0,0,1,.2-1c10.17-46.33,17.3-92.65-8.92-139-1.81.84-3.57,1.68-5.41,2.52C327,462.57,319.79,508.93,309.82,555.26Z"/><path class="cls-1" d="M364.79,529.8a6.73,6.73,0,0,1-.21,1c1.89-.87,3.77-1.71,5.69-2.57a8.19,8.19,0,0,0,.2-1c11.77-46.34,18.42-92.7-9.45-139l-5.52,2.56C383.2,437.11,376.44,483.47,364.79,529.8Z"/><path class="cls-1" d="M422.71,504.3c-.08.34-.2.66-.28,1,2-.86,3.93-1.7,5.93-2.56a8.19,8.19,0,0,0,.2-1c12.45-46.34,17.73-92.7-12.61-139-1.81.86-3.65,1.71-5.45,2.57C440.53,411.64,435.13,458,422.71,504.3Z"/><path class="cls-1" d="M482.08,478.84c-.12.34-.2.66-.31,1l6-2.56a8.19,8.19,0,0,0,.2-1c12.21-46.34,15.13-92.7-18.54-139l-5.24,2.52C497.54,386.14,494.29,432.5,482.08,478.84Z"/><path class="cls-1" d="M76,720.8c0,.32.12.64.16,1,.6-.84,1.24-1.68,1.89-2.52-.08-.32-.12-.68-.2-1-8.61-46.32-10-92.68-33.95-139l-2.17,2.52C65.53,628.13,67.1,674.44,76,720.8Z"/><path class="cls-1" d="M96.72,695.34c0,.32.12.64.16,1,.76-.84,1.52-1.72,2.32-2.56l-.12-1c-5.84-46.32-5.72-92.68-30.06-139-.92.84-1.88,1.68-2.8,2.53C90.56,602.67,90.6,649,96.72,695.34Z"/><path class="cls-1" d="M122.7,669.88l.12,1c.92-.84,1.88-1.68,2.85-2.52v-1c-2.85-46.36-1-92.68-25.47-139-1.16.86-2.28,1.7-3.4,2.56C121.3,577.2,119.58,623.52,122.7,669.88Z"/><path class="cls-1" d="M154.41,644.38v1c1.16-.84,2.32-1.72,3.48-2.56v-1c.4-46.36,4.05-92.68-20.53-139-1.33.86-2.69,1.7-4,2.56C157.93,551.7,154.45,598.06,154.41,644.38Z"/><path class="cls-1" d="M192,618.92a7.77,7.77,0,0,0-.08,1c1.32-.84,2.68-1.68,4-2.52,0-.32.08-.68.12-1,3.53-46.32,8.77-92.66-15.89-139-1.52.86-3,1.7-4.52,2.56C200.25,526.26,195.16,572.6,192,618.92Z"/><path class="cls-1" d="M85.71,708.07a8,8,0,0,1,.16,1c.72-.84,1.4-1.68,2.08-2.52,0-.32-.08-.68-.12-1-7.28-46.32-8-92.68-32.1-139-.84.84-1.68,1.69-2.49,2.53C77.34,615.39,78.19,661.71,85.71,708.07Z"/><path class="cls-1" d="M109.05,682.61c0,.32,0,.64.08,1,.88-.84,1.72-1.68,2.64-2.52a8.42,8.42,0,0,1-.08-1c-4.36-46.36-3.36-92.68-27.86-139-1,.84-2.08,1.73-3.08,2.57C105.21,589.93,104.37,636.25,109.05,682.61Z"/><path class="cls-1" d="M137.88,657.11v1c1-.84,2.12-1.68,3.16-2.52v-1c-1.24-46.36,1.52-92.68-23-139l-3.68,2.56C138.92,564.43,136.31,610.79,137.88,657.11Z"/><path class="cls-1" d="M172.46,631.65c0,.32,0,.64,0,1,1.25-.84,2.53-1.68,3.77-2.52a7.71,7.71,0,0,1,0-1c2-46.36,6.44-92.68-18.14-139-1.44.86-2.84,1.7-4.24,2.56C178.43,539,174.11,585.33,172.46,631.65Z"/><path class="cls-1" d="M212.86,606.19c0,.32,0,.64-.08,1l4.32-2.52c0-.32.12-.69.16-1,5.05-46.31,10.93-92.65-13.77-139l-4.8,2.56C223.43,513.53,217.62,559.87,212.86,606.19Z"/><path class="cls-1" d="M28,849.11c.16-.84.28-1.68.4-2.52-.12-.32-.28-.64-.4-1C14,811.72,8.49,777.85,0,743.94v4.45c8.17,33.26,13.69,66.49,27.62,99.76C27.74,848.47,27.9,848.79,28,849.11Z"/><path class="cls-1" d="M32.63,823.65c.16-.84.36-1.68.52-2.52-.12-.32-.24-.68-.36-1C18,780,12.93,739.94,0,699.83v4.4c12.37,39.47,17.49,79,32.27,118.46A4.69,4.69,0,0,0,32.63,823.65Z"/><path class="cls-1" d="M39,798.19c.24-.84.52-1.72.76-2.56-.12-.32-.2-.64-.32-1C24.26,748.35,20.18,702,0,655.67v4.4c19.3,45.72,23.5,91.44,38.71,137.16A9,9,0,0,0,39,798.19Z"/><path class="cls-1" d="M47.68,771.73a9.34,9.34,0,0,0,.28,1c.32-.84.68-1.73,1-2.57a8.69,8.69,0,0,0-.28-1c-13.25-46.31-16.85-92.68-38.67-139-.4.84-.76,1.68-1.16,2.52C30.55,679.05,34.19,725.41,47.68,771.73Z"/><path class="cls-1" d="M59.85,746.26l.24,1c.44-.84.92-1.68,1.4-2.52l-.24-1c-11.09-46.36-13.77-92.68-36.83-139-.56.84-1.08,1.72-1.64,2.56C45.72,653.59,48.56,700,59.85,746.26Z"/><path class="cls-1" d="M30.15,836.38c.12-.84.28-1.68.44-2.52-.12-.32-.24-.68-.36-1-14.46-37-19.82-74-30.23-111v4.4C10,762.68,15.37,799,29.74,835.42,29.87,835.74,30,836.06,30.15,836.38Z"/><path class="cls-1" d="M35.55,810.92c.2-.84.44-1.72.64-2.56l-.36-1C20.78,764.2,16.13,721,0,677.77v4.4C15.41,724.77,20.18,767.36,35.19,810Z"/><path class="cls-1" d="M42.84,784.5c.08.32.2.64.28,1,.32-.85.6-1.72.92-2.56a8.47,8.47,0,0,0-.32-1c-14.26-46.32-18.14-92.67-39.16-139-.36.84-.68,1.68-1,2.52C24.46,691.82,28.38,738.14,42.84,784.5Z"/><path class="cls-1" d="M53.32,759c.08.33.16.69.24,1,.41-.84.81-1.72,1.25-2.56a8.85,8.85,0,0,1-.28-1c-12.17-46.32-15.42-92.67-37.88-139-.48.84-1,1.68-1.4,2.52C37.59,666.32,40.91,712.68,53.32,759Z"/><path class="cls-1" d="M67.38,733.54a8.19,8.19,0,0,0,.2,1c.52-.85,1.08-1.69,1.6-2.53a8.19,8.19,0,0,0-.2-1c-9.85-46.36-12-92.68-35.51-139-.64.84-1.28,1.73-1.92,2.57C55,640.86,57.25,687.22,67.38,733.54Z"/><path class="cls-1" d="M5,976.5c.36-.84.72-1.73,1-2.57-.25-.32-.45-.63-.69-.95-1.92-2.77-3.68-5.53-5.32-8.29v4.44c1.32,2.12,2.72,4.24,4.24,6.37C4.48,975.82,4.72,976.18,5,976.5Z"/><path class="cls-1" d="M13.45,951c.24-.84.44-1.68.64-2.52l-.64-1A134.1,134.1,0,0,1,0,920.53V925a132.58,132.58,0,0,0,12.81,25C13,950.35,13.25,950.67,13.45,951Z"/><path class="cls-1" d="M18.42,925.53c.16-.84.28-1.68.4-2.52-.2-.32-.4-.68-.6-1C9.33,906.8,4,891.63,0,876.41v4.41C3.92,895.39,9.21,910,17.85,924.57A9.67,9.67,0,0,1,18.42,925.53Z"/><path class="cls-1" d="M21.74,900.08c.08-.85.2-1.73.28-2.57l-.48-1C10.33,875.13,4.68,853.67,0,832.26v4.4c4.56,20.82,10.25,41.63,21.22,62.45C21.38,899.43,21.58,899.75,21.74,900.08Z"/><path class="cls-1" d="M24.66,874.61c.08-.84.2-1.72.28-2.56-.16-.32-.28-.64-.44-1C11.65,843.43,6,815.76,0,788.1v4.4c5.8,27,11.49,54.09,24.18,81.11C24.34,873.93,24.5,874.29,24.66,874.61Z"/><path class="cls-1" d="M9.81,963.73c.28-.84.56-1.68.8-2.52-.2-.32-.44-.65-.64-1A121.74,121.74,0,0,1,0,942.63V947a121.63,121.63,0,0,0,9.13,15.74C9.37,963.09,9.57,963.41,9.81,963.73Z"/><path class="cls-1" d="M16.25,938.27l.48-2.53c-.2-.32-.4-.68-.6-1A153.4,153.4,0,0,1,0,898.47v4.41a149.26,149.26,0,0,0,15.65,34.43Z"/><path class="cls-1" d="M20.22,912.8c.08-.84.2-1.72.28-2.56-.16-.32-.36-.64-.52-1C9.85,891,4.28,872.65,0,854.31v4.45c4.2,17.69,9.77,35.39,19.66,53.08C19.86,912.16,20,912.48,20.22,912.8Z"/><path class="cls-1" d="M23.18,887.34c.12-.84.2-1.72.28-2.56l-.48-1C10.89,859.28,5.2,834.74,0,810.2v4.4c5.08,23.9,10.77,47.84,22.7,71.74C22.86,886.66,23,887,23.18,887.34Z"/><path class="cls-1" d="M26.22,861.88c.12-.84.24-1.72.36-2.56-.16-.32-.28-.64-.44-1C12.65,827.57,7.05,796.83,0,766v4.4c6.81,30.15,12.45,60.29,25.78,90.44A10.87,10.87,0,0,1,26.22,861.88Z"/><path class="cls-1" d="M671,72.38c-.8-.86-1.68-1.7-2.48-2.56-1-.32-1.92-.64-2.8-1C598.58,45.9,513.91,23,420.11,0H415c97,23.8,184.67,47.62,253.21,71.42Z"/><path class="cls-1" d="M642.14,46.92c-1.12-.86-2.24-1.7-3.44-2.56l-3.21-1C587.13,28.92,531.77,14.47,471.68,0h-5.17C530,15.31,588.41,30.61,638.86,45.92,640,46.26,641.1,46.58,642.14,46.92Z"/><path class="cls-1" d="M602.9,21.46c-1.52-.86-3-1.7-4.56-2.56l-3.6-1Q560.63,9,523.2,0H518c28.43,6.83,55.57,13.63,81.19,20.46C600.5,20.8,601.7,21.12,602.9,21.46Z"/><path class="cls-1" d="M657.83,59.65c-1-.86-2-1.7-3-2.56l-3-1C593.38,37.41,523.12,18.72,445.9,0h-5.17C521.28,19.56,594.5,39.13,654.79,58.69Z"/><path class="cls-1" d="M623.88,34.19c-1.28-.86-2.64-1.7-4-2.56-1.2-.32-2.32-.64-3.44-1C580,20.44,540.05,10.23,497.46,0h-5.21c46.12,11.07,89.2,22.12,128.19,33.19C621.64,33.53,622.76,33.85,623.88,34.19Z"/><path class="cls-1" d="M579.13,8.69l-5-2.52c-1.28-.33-2.48-.65-3.84-1-7-1.74-14-3.46-21.22-5.2h-5.21C554.46,2.58,565,5.14,575.28,7.73,576.56,8.05,577.93,8.37,579.13,8.69Z"/><path class="cls-1" d="M676.81,196.2c-67.26-46.33-192.29-92.65-340.65-139l1.2,2.52c147.48,46.34,271.15,92.7,337.53,139l1.43,1c.65-.84,1.29-1.68,2-2.52C677.77,196.86,677.29,196.54,676.81,196.2Z"/><path class="cls-1" d="M691.86,170.74C615,124.4,475,78.05,317.47,31.71c.84.86,1.64,1.7,2.4,2.56,156.61,46.34,295,92.7,370.87,139,.48.32,1,.64,1.6,1,.4-.86.8-1.71,1.12-2.57C692.9,171.38,692.34,171.06,691.86,170.74Z"/><path class="cls-1" d="M698.58,145.28C611,98.94,453.42,52.58,287.24,6.25l3.56,2.56c165.34,46.34,320.91,92.66,407.46,139l1.93,1a24.86,24.86,0,0,1,.32-2.56C699.79,145.92,699.22,145.6,698.58,145.28Z"/><path class="cls-1" d="M699.38,123.3l-.48-2.52-2.16-1C609.23,79.89,468.47,39.93,317,0h-5.17C465.67,40.77,609.23,81.57,697.3,122.34,698,122.66,698.67,123,699.38,123.3Z"/><path class="cls-1" d="M689.86,97.84l-1.44-2.52c-.81-.34-1.61-.66-2.49-1C606.11,62.87,493.25,31.45,368.55,0h-5.17C491,32.29,606.67,64.59,687.38,96.88,688.26,97.2,689.06,97.52,689.86,97.84Z"/><path class="cls-1" d="M685.38,183.47c-71.91-46.34-204.14-92.65-357.07-139,.61.84,1.21,1.68,1.77,2.52,152,46.34,282.75,92.7,353.69,139,.48.32,1,.64,1.52,1,.57-.86,1-1.7,1.61-2.57C686.33,184.11,685.86,183.79,685.38,183.47Z"/><path class="cls-1" d="M696.26,158c-82.07-46.34-230.51-92.7-392.49-139,1.05.86,2.05,1.7,3,2.56,161.13,46.34,307.81,92.7,388.76,139,.56.32,1.2.65,1.76,1,.24-.87.48-1.71.72-2.57C697.46,158.65,696.82,158.33,696.26,158Z"/><path class="cls-1" d="M700.91,136.07c0-.86-.08-1.7-.08-2.56-.73-.32-1.36-.64-2.09-1C609,88.37,454.06,44.18,291.2,0H286C451,45,608.75,90.06,698.9,135.07,699.55,135.41,700.19,135.73,700.91,136.07Z"/><path class="cls-1" d="M695.78,110.57c-.32-.84-.64-1.68-1-2.52-.72-.32-1.44-.64-2.24-1C608.27,71.4,481.48,35.69,342.77,0H337.6c141.32,36.53,271,73.08,355.94,109.61C694.26,109.93,695.06,110.25,695.78,110.57Z"/><path class="cls-1" d="M681.61,85.11l-1.92-2.52c-.88-.34-1.84-.66-2.72-1C602.9,54.39,504,27.2,394.33,0h-5.16C501.9,28,603.71,56.11,679,84.15Z"/><path class="cls-1" d="M489.33,326.11c.28.32.52.64.76,1l5-2.52a11.79,11.79,0,0,0-.68-1c-34.79-46.34-113-92.66-230.07-139-1.28.85-2.6,1.69-3.88,2.53C377.28,233.42,455,279.77,489.33,326.11Z"/><path class="cls-1" d="M538.13,300.65c.32.32.56.64.88,1l4.57-2.52c-.25-.34-.57-.66-.81-1-39.35-46.34-124-92.66-244.56-139-1,.84-2,1.68-3.08,2.53C415.31,208,499.26,254.31,538.13,300.65Z"/><path class="cls-1" d="M586.17,272.63c-44.92-46.34-137.27-92.7-262.82-139-.68.86-1.36,1.7-2.08,2.56,125,46.34,216.46,92.7,260.82,139l1,1,4.08-2.56Z"/><path class="cls-1" d="M623.48,247.17c-51.4-46.34-152.93-92.7-284.92-139-.32.86-.64,1.7-1,2.56C468.83,157,569.28,203.35,620,249.69c.32.34.72.66,1,1,1.2-.86,2.32-1.7,3.52-2.56A13.93,13.93,0,0,1,623.48,247.17Z"/><path class="cls-1" d="M653.83,221.67c-58.77-46.34-171.11-92.66-310.78-139,.08.86.08,1.7.08,2.56,138.91,46.34,250,92.66,308.06,139l1.2,1c1-.84,1.84-1.68,2.8-2.52C654.71,222.33,654.31,222,653.83,221.67Z"/><path class="cls-1" d="M514.27,313.38c.24.32.52.64.76,1,1.64-.84,3.29-1.68,4.88-2.52-.23-.34-.52-.66-.79-1-37-46.34-118.26-92.66-236.88-139-1.12.84-2.25,1.69-3.41,2.53C397.13,220.68,477.76,267,514.27,313.38Z"/><path class="cls-1" d="M560.79,287.92c.32.32.56.64.88,1,1.52-.86,3-1.7,4.4-2.56l-1-1c-42-46.34-130.31-92.66-253.17-139-.84.84-1.68,1.68-2.56,2.52C431.76,195.22,519.32,241.58,560.79,287.92Z"/><path class="cls-1" d="M605.63,259.9c-48-46.34-144.76-92.7-273.39-139-.48.86-1,1.7-1.6,2.56,128,46.34,223.82,92.7,271.22,139,.33.32.65.64,1,1,1.2-.86,2.49-1.7,3.69-2.56Z"/><path class="cls-1" d="M639.58,234.44c-55-46.34-161.66-92.7-297.33-139-.16.86-.36,1.7-.56,2.56,135,46.34,240.56,92.66,294.76,139l1.2,1,3.13-2.56Z"/><path class="cls-1" d="M666.32,208.93C603.39,162.6,485,116.28,341.09,69.94c.24.86.4,1.7.6,2.56,143.08,46.34,260.17,92.66,322.31,139,.39.32.88.64,1.36,1,.72-.84,1.52-1.68,2.32-2.52C667.2,209.6,666.8,209.28,666.32,208.93Z"/><path class="cls-1" d="M222.39,453.46c.16.34.36.66.52,1,1.64-.86,3.28-1.7,5-2.56-.2-.32-.36-.64-.52-1-24.86-46.34-85-92.7-202.89-139-1.64.86-3.32,1.7-5,2.56C137.56,360.8,197.53,407.12,222.39,453.46Z"/><path class="cls-1" d="M273.59,428l.6,1,5.24-2.52c-.16-.35-.32-.66-.48-1-25.38-46.33-87.91-92.65-204-139L69.82,289C186,335.3,248.33,381.66,273.59,428Z"/><path class="cls-1" d="M327.47,402.54c.16.32.36.64.56,1,1.85-.86,3.65-1.7,5.53-2.56l-.6-1c-26.5-46.33-91.84-92.65-206.61-139l-5,2.52C236.12,309.84,301.13,356.2,327.47,402.54Z"/><path class="cls-1" d="M382.44,377.08l.6,1c1.84-.86,3.68-1.7,5.53-2.57-.21-.32-.41-.64-.65-1-28.38-46.34-97.08-92.69-211.41-139-1.6.86-3.25,1.7-4.85,2.56C286,284.38,354.3,330.74,382.44,377.08Z"/><path class="cls-1" d="M437,351.57l.6,1c1.8-.87,3.64-1.71,5.4-2.57-.24-.32-.48-.64-.68-1q-46.73-69.51-219.14-139c-1.44.86-2.93,1.7-4.41,2.56C333.64,258.92,406.18,305.24,437,351.57Z"/><path class="cls-1" d="M247.61,440.73c.16.32.32.64.52,1l5.16-2.52-.6-1c-25.06-46.34-86.35-92.7-203.25-139l-5,2.56C161.5,348.07,222.63,394.39,247.61,440.73Z"/><path class="cls-1" d="M300.33,415.27c.16.32.36.64.52,1,1.84-.84,3.6-1.68,5.41-2.52-.16-.34-.36-.66-.56-1-25.83-46.34-89.68-92.66-205-139-1.72.84-3.44,1.68-5.12,2.52C211,322.57,274.59,368.93,300.33,415.27Z"/><path class="cls-1" d="M354.94,389.81c.2.32.4.64.56,1l5.52-2.56-.6-1c-27.3-46.33-94.24-92.69-208.65-139l-5.05,2.56C261.18,297.11,327.79,343.47,354.94,389.81Z"/><path class="cls-1" d="M409.86,364.3c.2.35.4.67.64,1,1.8-.86,3.61-1.71,5.45-2.57-.2-.32-.44-.64-.64-1-29.63-46.34-100.37-92.7-214.86-139-1.56.86-3.16,1.7-4.77,2.56C310.14,271.65,380.48,318,409.86,364.3Z"/><path class="cls-1" d="M463.51,338.84c.2.32.44.64.68,1l5.24-2.52-.72-1c-32.78-46.34-108.29-92.7-224.15-139-1.36.86-2.76,1.7-4.16,2.56C356.06,246.19,431,292.5,463.51,338.84Z"/><path class="cls-1" d="M41.71,581.77l2.17-2.52c-.16-.32-.32-.64-.52-1C33.63,560,20.1,541.57,0,523.24v4.4c18.9,17.74,31.79,35.43,41.15,53.17C41.35,581.13,41.51,581.45,41.71,581.77Z"/><path class="cls-1" d="M66.22,556.31c.92-.85,1.88-1.69,2.8-2.53-.16-.32-.32-.68-.52-1C55.21,528.22,34.55,503.64,0,479.08v4.4c32.91,24,52.76,47.9,65.74,71.87Z"/><path class="cls-1" d="M96.8,530.84c1.12-.86,2.24-1.7,3.4-2.56-.2-.32-.4-.64-.56-1-16.77-30.81-46-61.59-99.64-92.39v4.4c51.56,30.18,79.83,60.37,96.24,90.55C96.44,530.2,96.6,530.52,96.8,530.84Z"/><path class="cls-1" d="M133.35,505.38c1.32-.86,2.68-1.7,4-2.56-.17-.32-.37-.64-.57-1-20-37-59.45-74.06-136.79-111.09v4.44C74.82,431.62,113.05,468,132.83,504.42,133,504.74,133.19,505.06,133.35,505.38Z"/><path class="cls-1" d="M175.63,479.92c1.48-.86,3-1.7,4.52-2.56-.2-.32-.36-.64-.52-1C156.37,433.14,104.53,389.91,0,346.65v4.4C101.73,393.69,152.17,436.33,175.11,479,175.31,479.28,175.47,479.6,175.63,479.92Z"/><path class="cls-1" d="M53.24,569c.81-.84,1.65-1.69,2.49-2.53-.16-.32-.36-.68-.52-1C43.68,544.06,26.74,522.6,0,501.14v4.4c25.34,20.84,41.55,41.68,52.72,62.53C52.88,568.39,53.08,568.71,53.24,569Z"/><path class="cls-1" d="M80.75,543.58c1-.84,2-1.73,3.08-2.57-.16-.32-.32-.64-.52-1C68.26,512.37,43.56,484.7,0,457v4.41c41.64,27.06,65.53,54.12,80.23,81.18C80.43,542.93,80.59,543.26,80.75,543.58Z"/><path class="cls-1" d="M114.34,518.11l3.68-2.56c-.16-.32-.36-.64-.52-1C99,480.68,65,446.77,0,412.87v4.4c62.65,33.29,95.68,66.59,113.78,99.88C114,517.47,114.14,517.8,114.34,518.11Z"/><path class="cls-1" d="M153.85,492.65c1.4-.86,2.8-1.7,4.24-2.56-.2-.32-.32-.64-.52-1C135.87,449,90.6,408.84,0,368.71v4.4c87.87,39.53,131.91,79.05,153.29,118.58C153.45,492,153.65,492.33,153.85,492.65Z"/><path class="cls-1" d="M198.69,467.19l4.8-2.56c-.2-.32-.4-.64-.56-1C178.15,417.33,119,371,.2,324.63l-.2.12V329c116.06,45.73,173.71,91.49,198.21,137.23Z"/><path class="cls-1" d="M8.89,632.73c.4-.84.76-1.68,1.16-2.52-.16-.32-.28-.69-.44-1A201.1,201.1,0,0,0,0,611.51V616c3.12,5.28,5.88,10.52,8.41,15.81Z"/><path class="cls-1" d="M22.78,607.27c.56-.84,1.08-1.72,1.64-2.56l-.48-1A199.56,199.56,0,0,0,0,567.35v4.41a197.37,197.37,0,0,1,22.3,34.51C22.46,606.59,22.62,607,22.78,607.27Z"/><path class="cls-1" d="M3.56,645.46c.32-.84.64-1.68,1-2.52a10.23,10.23,0,0,1-.44-1c-1.32-2.8-2.68-5.61-4.12-8.41V638q1.62,3.25,3.12,6.49A10.23,10.23,0,0,1,3.56,645.46Z"/><path class="cls-1" d="M15.25,620c.44-.84.92-1.68,1.4-2.52-.16-.32-.32-.68-.48-1A199.86,199.86,0,0,0,0,589.45v4.41A199.88,199.88,0,0,1,14.77,619C14.93,619.32,15.09,619.68,15.25,620Z"/><path class="cls-1" d="M31.55,594.54c.64-.84,1.28-1.73,1.92-2.57-.16-.32-.32-.64-.52-1A198.17,198.17,0,0,0,0,545.3v4.44a198.2,198.2,0,0,1,31.07,43.8C31.23,593.86,31.39,594.22,31.55,594.54Z"/><path class="cls-1" d="M337.36,59.73l-1.2-2.52-3.08-1C274.27,37.47,214.22,18.74,162.34,0h-5.17c53.45,19.6,116,39.17,177.11,58.77Z"/><path class="cls-1" d="M319.87,34.27c-.76-.86-1.56-1.7-2.4-2.56l-3.17-1C280.19,20.5,246.17,10.25,213.86,0h-5.13c34.59,11.11,71.26,22.2,108,33.31Z"/><path class="cls-1" d="M290.8,8.81l-3.56-2.56c-1.12-.33-2.28-.65-3.4-1L265.42,0h-5.16c9,2.62,18.05,5.22,27.18,7.85Z"/><path class="cls-1" d="M330.08,47c-.56-.84-1.16-1.68-1.77-2.52l-3.2-1c-46.8-14.5-94-29-137-43.48H183c45,15.35,94.72,30.69,144,46Z"/><path class="cls-1" d="M306.78,21.54c-1-.86-2-1.7-3-2.56l-3.28-1C280,12,259.58,6,239.64,0h-5.16c22.54,6.87,45.71,13.71,69,20.58Z"/><path class="cls-1" d="M260.46,187.08c1.28-.84,2.6-1.68,3.88-2.53l-2.4-1C178,149.65,75,115.7,0,81.75v4.4c75.14,33.33,175.83,66.64,258.06,100Z"/><path class="cls-1" d="M295.13,161.62c1.08-.85,2.08-1.69,3.08-2.53l-2.52-1C193.6,117.92,67.5,77.76,0,37.59V42C68.74,81.55,192.56,121.1,292.69,160.65,293.53,161,294.33,161.29,295.13,161.62Z"/><path class="cls-1" d="M321.27,136.15c.72-.86,1.4-1.7,2.08-2.56l-2.64-1C203.41,88.41,62.41,44.22,7.65,0H2.48C55.53,45.06,199.69,90.14,318.71,135.19Z"/><path class="cls-1" d="M337.56,110.69c.32-.86.68-1.7,1-2.56l-2.68-1C236.16,71.44,124.14,35.73,59.21,0H54.05c64.49,36.57,179.31,73.16,280.83,109.73Z"/><path class="cls-1" d="M343.13,85.23c0-.86,0-1.7-.08-2.56l-2.85-1C259.7,54.47,174.15,27.24,110.77,0h-5.16c64,28.08,152.13,56.15,234.59,84.23C341.21,84.57,342.17,84.89,343.13,85.23Z"/><path class="cls-1" d="M278.83,174.35c1.16-.84,2.29-1.69,3.41-2.53-.84-.34-1.65-.66-2.45-1C187.12,133.77,72.66,96.7,0,59.65v4.44C73.34,100.52,185.44,137,276.35,173.39Z"/><path class="cls-1" d="M309.38,148.88c.88-.84,1.72-1.68,2.56-2.52l-2.52-1C197.24,102.09,59.49,58.81,0,15.53v4.41c61.29,42.65,196.76,85.33,306.82,128Z"/><path class="cls-1" d="M330.64,123.42c.56-.86,1.12-1.7,1.6-2.56l-2.6-1C221,79.93,94.88,40,33.43,0H28.26c60.37,40.81,189.4,81.65,299.81,122.46Z"/><path class="cls-1" d="M341.69,98c.2-.86.4-1.7.56-2.56-1-.32-1.93-.64-2.85-1C249.05,63,150.49,31.49,85,0H79.83c65.61,32.33,166.82,64.63,259.09,97Z"/><path class="cls-1" d="M341.69,72.5c-.2-.86-.36-1.7-.6-2.56l-3-1c-70-23-142.76-46-201.53-69h-5.16c59.85,23.84,135.19,47.66,207.33,71.5C339.72,71.84,340.73,72.16,341.69,72.5Z"/><path class="cls-1" d="M19.5,314.46c1.64-.86,3.32-1.7,5-2.56-.84-.32-1.64-.64-2.52-1-7.13-2.82-14.41-5.62-21.94-8.45v4.41c5.8,2.18,11.49,4.38,17.09,6.56Z"/><path class="cls-1" d="M69.82,289,75,286.44l-2.44-1C50,276.43,25.74,267.38,0,258.34v4.4c23.86,8.43,46.44,16.83,67.42,25.26C68.26,288.32,69,288.64,69.82,289Z"/><path class="cls-1" d="M121.3,263.5l5-2.52c-.76-.34-1.53-.66-2.33-1C86.51,244.7,44.4,229.45,0,214.18v4.44c42.6,14.64,82.91,29.29,118.94,43.92C119.7,262.86,120.5,263.18,121.3,263.5Z"/><path class="cls-1" d="M171.66,238c1.6-.86,3.25-1.7,4.85-2.56-.8-.32-1.56-.64-2.32-1C121.78,213,60.81,191.52,0,170v4.45c59.37,20.87,118.38,41.73,169.22,62.61C170.06,237.4,170.86,237.72,171.66,238Z"/><path class="cls-1" d="M218.74,212.58c1.48-.86,3-1.7,4.41-2.56l-2.37-1C153.13,181.33,72,153.59,0,125.87v4.44c71.22,27.08,150.25,54.18,216.3,81.27C217.14,211.92,217.94,212.24,218.74,212.58Z"/><path class="cls-1" d="M44.44,301.73l5-2.56-2.4-1q-22.33-8.93-47-17.82v4.45q21.92,7.95,41.92,15.89Z"/><path class="cls-1" d="M95.6,276.23c1.68-.84,3.4-1.68,5.12-2.52l-2.4-1C68.3,260.56,35.19,248.43,0,236.28v4.4c33.27,11.53,64.57,23.06,93.12,34.59Z"/><path class="cls-1" d="M146.72,250.77l5.05-2.56-2.41-1C104.45,228.87,53,210.5,0,192.12v4.4c51.4,17.76,100.92,35.53,144.36,53.29C145.12,250.13,145.92,250.45,146.72,250.77Z"/><path class="cls-1" d="M195.68,225.31c1.61-.86,3.21-1.7,4.77-2.56l-2.44-1C138.08,197.19,67.26,172.56,0,148v4.41c66.14,24,135,48,193.36,72Z"/><path class="cls-1" d="M240.4,199.85c1.4-.86,2.8-1.7,4.16-2.56-.8-.33-1.6-.65-2.44-1C166.5,165.48,74.7,134.65,0,103.81v4.44c74.38,30.21,164,60.39,238,90.6C238.8,199.19,239.6,199.51,240.4,199.85Z"/><path class="cls-1" d="M0,324.55v.2l.2-.12C.12,324.61.08,324.57,0,324.55Z"/></g></g></svg>